G04 #@! TF.GenerationSoftware,KiCad,Pcbnew,10.0.0*
G04 #@! TF.CreationDate,2026-07-06T03:27:28+02:00*
G04 #@! TF.ProjectId,Stardance macropad,53746172-6461-46e6-9365-206d6163726f,rev?*
G04 #@! TF.SameCoordinates,Original*
G04 #@! TF.FileFunction,Soldermask,Top*
G04 #@! TF.FilePolarity,Negative*
%FSLAX46Y46*%
G04 Gerber Fmt 4.6, Leading zero omitted, Abs format (unit mm)*
G04 Created by KiCad (PCBNEW 10.0.0) date 2026-07-06 03:27:28*
%MOMM*%
%LPD*%
G01*
G04 APERTURE LIST*
%ADD10C,1.750000*%
%ADD11C,4.000000*%
%ADD12C,2.500000*%
%ADD13R,1.700000X1.700000*%
%ADD14O,1.700000X1.700000*%
%ADD15R,2.000000X2.000000*%
%ADD16C,2.000000*%
%ADD17C,3.200000*%
%ADD18R,1.600000X1.600000*%
%ADD19O,1.600000X1.600000*%
%ADD20C,1.600000*%
G04 APERTURE END LIST*
D10*
G04 #@! TO.C,S2*
X153404510Y-78712568D03*
D11*
X158484510Y-78712568D03*
D10*
X163564510Y-78712568D03*
D12*
X154674510Y-76172568D03*
X161024510Y-73632568D03*
G04 #@! TD*
D10*
G04 #@! TO.C,S6*
X172454526Y-97762584D03*
D11*
X177534526Y-97762584D03*
D10*
X182614526Y-97762584D03*
D12*
X173724526Y-95222584D03*
X180074526Y-92682584D03*
G04 #@! TD*
D10*
G04 #@! TO.C,S5*
X153404510Y-97762584D03*
D11*
X158484510Y-97762584D03*
D10*
X163564510Y-97762584D03*
D12*
X154674510Y-95222584D03*
X161024510Y-92682584D03*
G04 #@! TD*
D13*
G04 #@! TO.C,J2*
X131100112Y-62202552D03*
D14*
X131100112Y-59662552D03*
X131100112Y-57122552D03*
X131100112Y-54582552D03*
G04 #@! TD*
D10*
G04 #@! TO.C,S4*
X134354494Y-97762584D03*
D11*
X139434494Y-97762584D03*
D10*
X144514494Y-97762584D03*
D12*
X135624494Y-95222584D03*
X141974494Y-92682584D03*
G04 #@! TD*
D15*
G04 #@! TO.C,SW1*
X170284526Y-54876613D03*
D16*
X170284526Y-59876613D03*
X170284526Y-57376613D03*
D17*
X177784526Y-51776613D03*
X177784526Y-62976613D03*
D16*
X184784526Y-59876613D03*
X184784526Y-54876613D03*
G04 #@! TD*
D10*
G04 #@! TO.C,S1*
X134354486Y-78712560D03*
D11*
X139434486Y-78712560D03*
D10*
X144514486Y-78712560D03*
D12*
X135624486Y-76172560D03*
X141974486Y-73632560D03*
G04 #@! TD*
D10*
G04 #@! TO.C,S3*
X172454526Y-78712568D03*
D11*
X177534526Y-78712568D03*
D10*
X182614526Y-78712568D03*
D12*
X173724526Y-76172568D03*
X180074526Y-73632568D03*
G04 #@! TD*
D18*
G04 #@! TO.C,D1*
X148959502Y-81570064D03*
D19*
X148959502Y-73950064D03*
G04 #@! TD*
D18*
G04 #@! TO.C,D3*
X187059534Y-81570064D03*
D19*
X187059534Y-73950064D03*
G04 #@! TD*
D18*
G04 #@! TO.C,D4*
X148959502Y-100620080D03*
D19*
X148959502Y-93000080D03*
G04 #@! TD*
D18*
G04 #@! TO.C,D5*
X168009518Y-100620080D03*
D19*
X168009518Y-93000080D03*
G04 #@! TD*
D18*
G04 #@! TO.C,D2*
X168009518Y-81570064D03*
D19*
X168009518Y-73950064D03*
G04 #@! TD*
D18*
G04 #@! TO.C,D6*
X187059534Y-100620080D03*
D19*
X187059534Y-93000080D03*
G04 #@! TD*
D18*
G04 #@! TO.C,U1*
X166223579Y-51566308D03*
D20*
X166223579Y-54106308D03*
X166223579Y-56646308D03*
X166223579Y-59186308D03*
X166223579Y-61726308D03*
X166223579Y-64266308D03*
X166223579Y-66806308D03*
X150983579Y-66806308D03*
X150983579Y-64266308D03*
X150983579Y-61726308D03*
X150983579Y-59186308D03*
X150983579Y-56646308D03*
X150983579Y-54106308D03*
X150983579Y-51566308D03*
G04 #@! TD*
M02*
