M48
; DRILL file KiCad 10.0.0 date 2026-07-06T03:27:28
; FORMAT={-:-/ absolute / metric / decimal}
; #@! TF.CreationDate,2026-07-06T03:27:28+02:00
; #@! TF.GenerationSoftware,Kicad,Pcbnew,10.0.0
; #@! TF.FileFunction,Plated,1,2,PTH
FMAT,2
METRIC
; #@! TA.AperFunction,Plated,PTH,ViaDrill
T1C0.300
; #@! TA.AperFunction,Plated,PTH,ComponentDrill
T2C0.800
; #@! TA.AperFunction,Plated,PTH,ComponentDrill
T3C1.000
; #@! TA.AperFunction,Plated,PTH,ComponentDrill
T4C1.500
; #@! TA.AperFunction,Plated,PTH,ComponentDrill
T5C2.600
%
G90
G05
T1
X165.628Y-69.778
X165.628Y-71.569
X169.795Y-70.978
X169.795Y-82.284
T2
X148.96Y-73.95
X148.96Y-81.57
X148.96Y-93.0
X148.96Y-100.62
X168.01Y-73.95
X168.01Y-81.57
X168.01Y-93.0
X168.01Y-100.62
X187.06Y-73.95
X187.06Y-81.57
X187.06Y-93.0
X187.06Y-100.62
T3
X131.1Y-54.583
X131.1Y-57.123
X131.1Y-59.663
X131.1Y-62.203
X150.984Y-51.566
X150.984Y-54.106
X150.984Y-56.646
X150.984Y-59.186
X150.984Y-61.726
X150.984Y-64.266
X150.984Y-66.806
X166.224Y-51.566
X166.224Y-54.106
X166.224Y-56.646
X166.224Y-59.186
X166.224Y-61.726
X166.224Y-64.266
X166.224Y-66.806
X170.285Y-54.877
X170.285Y-57.377
X170.285Y-59.877
X184.785Y-54.877
X184.785Y-59.877
T4
X135.624Y-76.173
X135.624Y-95.223
X141.974Y-73.633
X141.974Y-92.683
X154.675Y-76.173
X154.675Y-95.223
X161.025Y-73.633
X161.025Y-92.683
X173.725Y-76.173
X173.725Y-95.223
X180.075Y-73.633
X180.075Y-92.683
T5
X177.785Y-51.777
X177.785Y-62.977
M30
