G04 #@! TF.GenerationSoftware,KiCad,Pcbnew,10.0.0*
G04 #@! TF.CreationDate,2026-07-06T03:27:28+02:00*
G04 #@! TF.ProjectId,Stardance macropad,53746172-6461-46e6-9365-206d6163726f,rev?*
G04 #@! TF.SameCoordinates,Original*
G04 #@! TF.FileFunction,Copper,L2,Bot*
G04 #@! TF.FilePolarity,Positive*
%FSLAX46Y46*%
G04 Gerber Fmt 4.6, Leading zero omitted, Abs format (unit mm)*
G04 Created by KiCad (PCBNEW 10.0.0) date 2026-07-06 03:27:28*
%MOMM*%
%LPD*%
G01*
G04 APERTURE LIST*
G04 Aperture macros list*
%AMRoundRect*
0 Rectangle with rounded corners*
0 $1 Rounding radius*
0 $2 $3 $4 $5 $6 $7 $8 $9 X,Y pos of 4 corners*
0 Add a 4 corners polygon primitive as box body*
4,1,4,$2,$3,$4,$5,$6,$7,$8,$9,$2,$3,0*
0 Add four circle primitives for the rounded corners*
1,1,$1+$1,$2,$3*
1,1,$1+$1,$4,$5*
1,1,$1+$1,$6,$7*
1,1,$1+$1,$8,$9*
0 Add four rect primitives between the rounded corners*
20,1,$1+$1,$2,$3,$4,$5,0*
20,1,$1+$1,$4,$5,$6,$7,0*
20,1,$1+$1,$6,$7,$8,$9,0*
20,1,$1+$1,$8,$9,$2,$3,0*%
G04 Aperture macros list end*
G04 #@! TA.AperFunction,ComponentPad*
%ADD10C,2.500000*%
G04 #@! TD*
G04 #@! TA.AperFunction,ComponentPad*
%ADD11R,1.700000X1.700000*%
G04 #@! TD*
G04 #@! TA.AperFunction,ComponentPad*
%ADD12O,1.700000X1.700000*%
G04 #@! TD*
G04 #@! TA.AperFunction,ComponentPad*
%ADD13R,2.000000X2.000000*%
G04 #@! TD*
G04 #@! TA.AperFunction,ComponentPad*
%ADD14C,2.000000*%
G04 #@! TD*
G04 #@! TA.AperFunction,ComponentPad*
%ADD15C,3.200000*%
G04 #@! TD*
G04 #@! TA.AperFunction,ComponentPad*
%ADD16R,1.600000X1.600000*%
G04 #@! TD*
G04 #@! TA.AperFunction,ComponentPad*
%ADD17O,1.600000X1.600000*%
G04 #@! TD*
G04 #@! TA.AperFunction,SMDPad,CuDef*
%ADD18RoundRect,0.500000X0.875000X0.500000X-0.875000X0.500000X-0.875000X-0.500000X0.875000X-0.500000X0*%
G04 #@! TD*
G04 #@! TA.AperFunction,ComponentPad*
%ADD19C,1.600000*%
G04 #@! TD*
G04 #@! TA.AperFunction,ViaPad*
%ADD20C,0.600000*%
G04 #@! TD*
G04 #@! TA.AperFunction,Conductor*
%ADD21C,0.200000*%
G04 #@! TD*
G04 APERTURE END LIST*
D10*
G04 #@! TO.P,S2,1,1_1*
G04 #@! TO.N,Collumn_2*
X154674510Y-76172568D03*
G04 #@! TO.P,S2,2,2_2*
G04 #@! TO.N,Net-(D2-A)*
X161024510Y-73632568D03*
G04 #@! TD*
G04 #@! TO.P,S6,1,1_1*
G04 #@! TO.N,Collumn_3*
X173724526Y-95222584D03*
G04 #@! TO.P,S6,2,2_2*
G04 #@! TO.N,Net-(D6-A)*
X180074526Y-92682584D03*
G04 #@! TD*
G04 #@! TO.P,S5,1,1_1*
G04 #@! TO.N,Collumn_2*
X154674510Y-95222584D03*
G04 #@! TO.P,S5,2,2_2*
G04 #@! TO.N,Net-(D5-A)*
X161024510Y-92682584D03*
G04 #@! TD*
D11*
G04 #@! TO.P,J2,1,GND_1*
G04 #@! TO.N,GND*
X131100112Y-62202552D03*
D12*
G04 #@! TO.P,J2,2,VCC_2*
G04 #@! TO.N,VCC*
X131100112Y-59662552D03*
G04 #@! TO.P,J2,3,SCL_3*
G04 #@! TO.N,SCL*
X131100112Y-57122552D03*
G04 #@! TO.P,J2,4,SDA_4*
G04 #@! TO.N,SDA*
X131100112Y-54582552D03*
G04 #@! TD*
D10*
G04 #@! TO.P,S4,1,1_1*
G04 #@! TO.N,Collumn_1*
X135624494Y-95222584D03*
G04 #@! TO.P,S4,2,2_2*
G04 #@! TO.N,Net-(D4-A)*
X141974494Y-92682584D03*
G04 #@! TD*
D13*
G04 #@! TO.P,SW1,A,A_A*
G04 #@! TO.N,CLK*
X170284526Y-54876613D03*
D14*
G04 #@! TO.P,SW1,B,B_B*
G04 #@! TO.N,DT*
X170284526Y-59876613D03*
G04 #@! TO.P,SW1,C,C_C*
G04 #@! TO.N,GND*
X170284526Y-57376613D03*
D15*
G04 #@! TO.P,SW1,MP,MP_MP*
X177784526Y-51776613D03*
X177784526Y-62976613D03*
D14*
G04 #@! TO.P,SW1,S1,S1_S1*
G04 #@! TO.N,switch*
X184784526Y-59876613D03*
G04 #@! TO.P,SW1,S2,S2_S2*
G04 #@! TO.N,GND*
X184784526Y-54876613D03*
G04 #@! TD*
D10*
G04 #@! TO.P,S1,1,1_1*
G04 #@! TO.N,Collumn_1*
X135624486Y-76172560D03*
G04 #@! TO.P,S1,2,2_2*
G04 #@! TO.N,Net-(D1-A)*
X141974486Y-73632560D03*
G04 #@! TD*
G04 #@! TO.P,S3,1,1_1*
G04 #@! TO.N,Collumn_3*
X173724526Y-76172568D03*
G04 #@! TO.P,S3,2,2_2*
G04 #@! TO.N,Net-(D3-A)*
X180074526Y-73632568D03*
G04 #@! TD*
D16*
G04 #@! TO.P,D1,1,K_1*
G04 #@! TO.N,Row_1*
X148959502Y-81570064D03*
D17*
G04 #@! TO.P,D1,2,A_2*
G04 #@! TO.N,Net-(D1-A)*
X148959502Y-73950064D03*
G04 #@! TD*
D16*
G04 #@! TO.P,D3,1,K_1*
G04 #@! TO.N,Row_1*
X187059534Y-81570064D03*
D17*
G04 #@! TO.P,D3,2,A_2*
G04 #@! TO.N,Net-(D3-A)*
X187059534Y-73950064D03*
G04 #@! TD*
D16*
G04 #@! TO.P,D4,1,K_1*
G04 #@! TO.N,Row_2*
X148959502Y-100620080D03*
D17*
G04 #@! TO.P,D4,2,A_2*
G04 #@! TO.N,Net-(D4-A)*
X148959502Y-93000080D03*
G04 #@! TD*
D16*
G04 #@! TO.P,D5,1,K_1*
G04 #@! TO.N,Row_2*
X168009518Y-100620080D03*
D17*
G04 #@! TO.P,D5,2,A_2*
G04 #@! TO.N,Net-(D5-A)*
X168009518Y-93000080D03*
G04 #@! TD*
D16*
G04 #@! TO.P,D2,1,K_1*
G04 #@! TO.N,Row_1*
X168009518Y-81570064D03*
D17*
G04 #@! TO.P,D2,2,A_2*
G04 #@! TO.N,Net-(D2-A)*
X168009518Y-73950064D03*
G04 #@! TD*
D16*
G04 #@! TO.P,D6,1,K_1*
G04 #@! TO.N,Row_2*
X187059534Y-100620080D03*
D17*
G04 #@! TO.P,D6,2,A_2*
G04 #@! TO.N,Net-(D6-A)*
X187059534Y-93000080D03*
G04 #@! TD*
D18*
G04 #@! TO.P,U1,1,P26_A0_D0_1*
G04 #@! TO.N,CLK*
X166668579Y-51566308D03*
D16*
X166223579Y-51566308D03*
D18*
G04 #@! TO.P,U1,2,P27_A1_D1_2*
G04 #@! TO.N,switch*
X166668579Y-54106308D03*
D19*
X166223579Y-54106308D03*
D18*
G04 #@! TO.P,U1,3,P28_A2_D2_3*
G04 #@! TO.N,Row_1*
X166668579Y-56646308D03*
D19*
X166223579Y-56646308D03*
D18*
G04 #@! TO.P,U1,4,P29_A3_D3_4*
G04 #@! TO.N,unconnected-(U1-P29_A3_D3-Pad4)_1*
X166668579Y-59186308D03*
D19*
G04 #@! TO.N,unconnected-(U1-P29_A3_D3-Pad4)*
X166223579Y-59186308D03*
D18*
G04 #@! TO.P,U1,5,P6_SDA_D4_5*
G04 #@! TO.N,SDA*
X166668579Y-61726308D03*
D19*
X166223579Y-61726308D03*
D18*
G04 #@! TO.P,U1,6,P7_SCL_D5_6*
G04 #@! TO.N,SCL*
X166668579Y-64266308D03*
D19*
X166223579Y-64266308D03*
D18*
G04 #@! TO.P,U1,7,P0_D6_TX_7*
G04 #@! TO.N,Row_2*
X166668579Y-66806308D03*
D19*
X166223579Y-66806308D03*
G04 #@! TO.P,U1,8,P1_D7_RX_8*
G04 #@! TO.N,Collumn_1*
X150983579Y-66806308D03*
D18*
X150503579Y-66806308D03*
D19*
G04 #@! TO.P,U1,9,P2_D8_SCK_9*
G04 #@! TO.N,Collumn_2*
X150983579Y-64266308D03*
D18*
X150503579Y-64266308D03*
D19*
G04 #@! TO.P,U1,10,P4_D9_MISO_10*
G04 #@! TO.N,Collumn_3*
X150983579Y-61726308D03*
D18*
X150503579Y-61726308D03*
D19*
G04 #@! TO.P,U1,11,P3_D10_MOSI_11*
G04 #@! TO.N,DT*
X150983579Y-59186308D03*
D18*
X150503579Y-59186308D03*
D19*
G04 #@! TO.P,U1,12,3V3_12*
G04 #@! TO.N,VCC*
X150983579Y-56646308D03*
D18*
X150503579Y-56646308D03*
D19*
G04 #@! TO.P,U1,13,GND_13*
G04 #@! TO.N,GND*
X150983579Y-54106308D03*
D18*
X150503579Y-54106308D03*
D19*
G04 #@! TO.P,U1,14,VBUS_14*
G04 #@! TO.N,unconnected-(U1-VBUS-Pad14)*
X150983579Y-51566308D03*
D18*
G04 #@! TO.N,unconnected-(U1-VBUS-Pad14)_1*
X150503579Y-51566308D03*
G04 #@! TD*
D20*
G04 #@! TO.N,Row_1*
X165628266Y-71568812D03*
X165628266Y-69778186D03*
G04 #@! TO.N,Row_2*
X169795457Y-70978186D03*
X169795457Y-82284446D03*
G04 #@! TD*
G04 #@! TO.N,CLK*
D21*
X166974221Y-51566308D02*
X170284526Y-54876613D01*
X166223579Y-51566308D02*
X166974221Y-51566308D01*
G04 #@! TO.N,Collumn_2*
X154674510Y-76172568D02*
X154674510Y-65377560D01*
X154674510Y-76172568D02*
X154674510Y-95222584D01*
X153563258Y-64266308D02*
X150983579Y-64266308D01*
X154674510Y-65377560D02*
X153563258Y-64266308D01*
G04 #@! TO.N,Collumn_3*
X173724526Y-71330690D02*
X172772022Y-70378186D01*
X153404510Y-61726308D02*
X153722006Y-62043804D01*
X150983579Y-61726308D02*
X153404510Y-61726308D01*
X173724526Y-76172568D02*
X173724526Y-95222584D01*
X153722006Y-63829743D02*
X153722006Y-62043804D01*
X173724526Y-76172568D02*
X173724526Y-71330690D01*
X172772022Y-70378186D02*
X155074510Y-70378186D01*
X155074510Y-65182247D02*
X153722006Y-63829743D01*
X155074510Y-70378186D02*
X155074510Y-65182247D01*
G04 #@! TO.N,VCC*
X148403868Y-56646308D02*
X150503579Y-56646308D01*
X131100112Y-59662552D02*
X145387624Y-59662552D01*
X145387624Y-59662552D02*
X148403868Y-56646308D01*
G04 #@! TO.N,Collumn_1*
X135624486Y-95222576D02*
X135624494Y-95222584D01*
X135624486Y-76172560D02*
X135624486Y-70021003D01*
X135624486Y-76172560D02*
X135624486Y-95222576D01*
X150150128Y-69187560D02*
X150983579Y-68354109D01*
X150983579Y-68354109D02*
X150983579Y-66806308D01*
X135624486Y-70021003D02*
X136457929Y-69187560D01*
X136457929Y-69187560D02*
X150150128Y-69187560D01*
G04 #@! TO.N,Row_1*
X165628266Y-69778186D02*
X164437640Y-68587560D01*
X165072632Y-56646308D02*
X164437640Y-57281300D01*
X166223579Y-56646308D02*
X165072632Y-56646308D01*
X165628266Y-79903194D02*
X165628266Y-71568812D01*
X164437640Y-68587560D02*
X164437640Y-57281300D01*
X167295136Y-81570064D02*
X165628266Y-79903194D01*
X168009518Y-81570064D02*
X167295136Y-81570064D01*
G04 #@! TO.N,Row_2*
X169795457Y-82284446D02*
X169795457Y-70978186D01*
X168009518Y-100620080D02*
X168009518Y-100143836D01*
X168009518Y-100620080D02*
X169109518Y-99520080D01*
G04 #@! TD*
G04 #@! TA.AperFunction,Conductor*
G04 #@! TO.N,GND*
G36*
X188752025Y-48207745D02*
G01*
X188797780Y-48260549D01*
X188808986Y-48312060D01*
X188808986Y-107663060D01*
X188789301Y-107730099D01*
X188736497Y-107775854D01*
X188684986Y-107787060D01*
X128283986Y-107787060D01*
X128216947Y-107767375D01*
X128171192Y-107714571D01*
X128159986Y-107663060D01*
X128159986Y-54476265D01*
X129749612Y-54476265D01*
X129749612Y-54688838D01*
X129779352Y-54876613D01*
X129782866Y-54898795D01*
X129814016Y-54994665D01*
X129848556Y-55100966D01*
X129945063Y-55290372D01*
X130070002Y-55462338D01*
X130220325Y-55612661D01*
X130392294Y-55737602D01*
X130401058Y-55742068D01*
X130451854Y-55790043D01*
X130468648Y-55857864D01*
X130446110Y-55923999D01*
X130401058Y-55963036D01*
X130392294Y-55967501D01*
X130220325Y-56092442D01*
X130070002Y-56242765D01*
X129945063Y-56414731D01*
X129848556Y-56604137D01*
X129782865Y-56806312D01*
X129749612Y-57016265D01*
X129749612Y-57228838D01*
X129780472Y-57423684D01*
X129782866Y-57438795D01*
X129825369Y-57569606D01*
X129848556Y-57640966D01*
X129945063Y-57830372D01*
X130070002Y-58002338D01*
X130220325Y-58152661D01*
X130392294Y-58277602D01*
X130401058Y-58282068D01*
X130451854Y-58330043D01*
X130468648Y-58397864D01*
X130446110Y-58463999D01*
X130401058Y-58503036D01*
X130392294Y-58507501D01*
X130220325Y-58632442D01*
X130070002Y-58782765D01*
X129945063Y-58954731D01*
X129848556Y-59144137D01*
X129782865Y-59346312D01*
X129754525Y-59525243D01*
X129749612Y-59556265D01*
X129749612Y-59768839D01*
X129782866Y-59978795D01*
X129836242Y-60143070D01*
X129848556Y-60180966D01*
X129945063Y-60370372D01*
X130070002Y-60542338D01*
X130183930Y-60656266D01*
X130217415Y-60717589D01*
X130212431Y-60787281D01*
X130170559Y-60843214D01*
X130139583Y-60860129D01*
X130008024Y-60909198D01*
X130008018Y-60909201D01*
X129892924Y-60995361D01*
X129892921Y-60995364D01*
X129806761Y-61110458D01*
X129806757Y-61110465D01*
X129756515Y-61245172D01*
X129756513Y-61245179D01*
X129750112Y-61304707D01*
X129750112Y-61952552D01*
X130667100Y-61952552D01*
X130634187Y-62009559D01*
X130600112Y-62136726D01*
X130600112Y-62268378D01*
X130634187Y-62395545D01*
X130667100Y-62452552D01*
X129750112Y-62452552D01*
X129750112Y-63100396D01*
X129756513Y-63159924D01*
X129756515Y-63159931D01*
X129806757Y-63294638D01*
X129806761Y-63294645D01*
X129892921Y-63409739D01*
X129892924Y-63409742D01*
X130008018Y-63495902D01*
X130008025Y-63495906D01*
X130142732Y-63546148D01*
X130142739Y-63546150D01*
X130202267Y-63552551D01*
X130202284Y-63552552D01*
X130850112Y-63552552D01*
X130850112Y-62635564D01*
X130907119Y-62668477D01*
X131034286Y-62702552D01*
X131165938Y-62702552D01*
X131293105Y-62668477D01*
X131350112Y-62635564D01*
X131350112Y-63552552D01*
X131997940Y-63552552D01*
X131997956Y-63552551D01*
X132057484Y-63546150D01*
X132057491Y-63546148D01*
X132192198Y-63495906D01*
X132192205Y-63495902D01*
X132307299Y-63409742D01*
X132307302Y-63409739D01*
X132393462Y-63294645D01*
X132393466Y-63294638D01*
X132443708Y-63159931D01*
X132443710Y-63159924D01*
X132450111Y-63100396D01*
X132450112Y-63100379D01*
X132450112Y-62452552D01*
X131533124Y-62452552D01*
X131566037Y-62395545D01*
X131600112Y-62268378D01*
X131600112Y-62136726D01*
X131566037Y-62009559D01*
X131533124Y-61952552D01*
X132450112Y-61952552D01*
X132450112Y-61304724D01*
X132450111Y-61304707D01*
X132443710Y-61245179D01*
X132443708Y-61245172D01*
X132393466Y-61110465D01*
X132393462Y-61110458D01*
X132307302Y-60995364D01*
X132307299Y-60995361D01*
X132192205Y-60909201D01*
X132192200Y-60909198D01*
X132060640Y-60860129D01*
X132004707Y-60818257D01*
X131980290Y-60752793D01*
X131995142Y-60684520D01*
X132016287Y-60656272D01*
X132130216Y-60542344D01*
X132255163Y-60370368D01*
X132255461Y-60369782D01*
X132275347Y-60330757D01*
X132323321Y-60279961D01*
X132385831Y-60263052D01*
X145300955Y-60263052D01*
X145300971Y-60263053D01*
X145308567Y-60263053D01*
X145466678Y-60263053D01*
X145466681Y-60263053D01*
X145619409Y-60222129D01*
X145680586Y-60186808D01*
X145756340Y-60143072D01*
X145868144Y-60031268D01*
X145868144Y-60031266D01*
X145878348Y-60021063D01*
X145878352Y-60021058D01*
X148475727Y-57423682D01*
X148537048Y-57390199D01*
X148606740Y-57395183D01*
X148662673Y-57437055D01*
X148682621Y-57477252D01*
X148694667Y-57519351D01*
X148694669Y-57519356D01*
X148694670Y-57519357D01*
X148788881Y-57699715D01*
X148850017Y-57774693D01*
X148901594Y-57837947D01*
X148928703Y-57902344D01*
X148916694Y-57971173D01*
X148901594Y-57994669D01*
X148788881Y-58132901D01*
X148773270Y-58162787D01*
X148694668Y-58313262D01*
X148651538Y-58463999D01*
X148639091Y-58507501D01*
X148638693Y-58508891D01*
X148638692Y-58508894D01*
X148628079Y-58628274D01*
X148628079Y-59744336D01*
X148628080Y-59744342D01*
X148638692Y-59863723D01*
X148694668Y-60059353D01*
X148694669Y-60059356D01*
X148694670Y-60059357D01*
X148788881Y-60239715D01*
X148788883Y-60239717D01*
X148901594Y-60377947D01*
X148928703Y-60442344D01*
X148916694Y-60511173D01*
X148901594Y-60534669D01*
X148788883Y-60672898D01*
X148694668Y-60853262D01*
X148654009Y-60995364D01*
X148642405Y-61035919D01*
X148638693Y-61048891D01*
X148638692Y-61048894D01*
X148638299Y-61053319D01*
X148628819Y-61159955D01*
X148628079Y-61168274D01*
X148628079Y-62284336D01*
X148628080Y-62284342D01*
X148638692Y-62403723D01*
X148694668Y-62599353D01*
X148694669Y-62599355D01*
X148694670Y-62599357D01*
X148788881Y-62779715D01*
X148788883Y-62779717D01*
X148901594Y-62917947D01*
X148928703Y-62982344D01*
X148916694Y-63051173D01*
X148901594Y-63074669D01*
X148880617Y-63100396D01*
X148788881Y-63212901D01*
X148746185Y-63294638D01*
X148694668Y-63393262D01*
X148665300Y-63495902D01*
X148640949Y-63581008D01*
X148638693Y-63588891D01*
X148638692Y-63588894D01*
X148628079Y-63708274D01*
X148628079Y-64824336D01*
X148628080Y-64824342D01*
X148638692Y-64943723D01*
X148694668Y-65139353D01*
X148694669Y-65139356D01*
X148694670Y-65139357D01*
X148788881Y-65319715D01*
X148788883Y-65319717D01*
X148901594Y-65457947D01*
X148928703Y-65522344D01*
X148916694Y-65591173D01*
X148901594Y-65614669D01*
X148788883Y-65752898D01*
X148694668Y-65933262D01*
X148638693Y-66128891D01*
X148638692Y-66128894D01*
X148628079Y-66248274D01*
X148628079Y-67364336D01*
X148628080Y-67364342D01*
X148638692Y-67483723D01*
X148694668Y-67679353D01*
X148694669Y-67679356D01*
X148694670Y-67679357D01*
X148788881Y-67859715D01*
X148788883Y-67859717D01*
X148917469Y-68017417D01*
X149011382Y-68093992D01*
X149075172Y-68146006D01*
X149255530Y-68240217D01*
X149451161Y-68296194D01*
X149570542Y-68306808D01*
X149882283Y-68306807D01*
X149949321Y-68326491D01*
X149995076Y-68379295D01*
X150005020Y-68448454D01*
X149975995Y-68512009D01*
X149969965Y-68518487D01*
X149937713Y-68550740D01*
X149876390Y-68584226D01*
X149850030Y-68587060D01*
X136378869Y-68587060D01*
X136337948Y-68598024D01*
X136337948Y-68598025D01*
X136300680Y-68608011D01*
X136226143Y-68627983D01*
X136226138Y-68627986D01*
X136089219Y-68707035D01*
X136089211Y-68707041D01*
X135143967Y-69652285D01*
X135143963Y-69652290D01*
X135129191Y-69677878D01*
X135116923Y-69699128D01*
X135108270Y-69714116D01*
X135065578Y-69788060D01*
X135064909Y-69789218D01*
X135023985Y-69941946D01*
X135023985Y-69941948D01*
X135023985Y-70110049D01*
X135023986Y-70110062D01*
X135023986Y-74443713D01*
X135004301Y-74510752D01*
X134951497Y-74556507D01*
X134947449Y-74558269D01*
X134848598Y-74599216D01*
X134848595Y-74599217D01*
X134848587Y-74599221D01*
X134649868Y-74713952D01*
X134467824Y-74853641D01*
X134305567Y-75015898D01*
X134165878Y-75197942D01*
X134051143Y-75396669D01*
X134051136Y-75396683D01*
X133963328Y-75608672D01*
X133963328Y-75608673D01*
X133903938Y-75830322D01*
X133903937Y-75830330D01*
X133873986Y-76057818D01*
X133873986Y-76287301D01*
X133896995Y-76462060D01*
X133903938Y-76514798D01*
X133920586Y-76576929D01*
X133963328Y-76736447D01*
X134051136Y-76948436D01*
X134051143Y-76948450D01*
X134165878Y-77147177D01*
X134305567Y-77329221D01*
X134305575Y-77329230D01*
X134351724Y-77375379D01*
X134385209Y-77436702D01*
X134380225Y-77506394D01*
X134338353Y-77562327D01*
X134272889Y-77586744D01*
X134267453Y-77586938D01*
X134265909Y-77587059D01*
X134090929Y-77614774D01*
X133922446Y-77669516D01*
X133922443Y-77669517D01*
X133764595Y-77749946D01*
X133682824Y-77809356D01*
X133621272Y-77854077D01*
X133621270Y-77854079D01*
X133621269Y-77854079D01*
X133496005Y-77979343D01*
X133496005Y-77979344D01*
X133496003Y-77979346D01*
X133451282Y-78040898D01*
X133391872Y-78122669D01*
X133311443Y-78280517D01*
X133311442Y-78280520D01*
X133256700Y-78449003D01*
X133238319Y-78565054D01*
X133228986Y-78623981D01*
X133228986Y-78801139D01*
X133238320Y-78860073D01*
X133256700Y-78976116D01*
X133311442Y-79144599D01*
X133311443Y-79144602D01*
X133391872Y-79302450D01*
X133496003Y-79445774D01*
X133621272Y-79571043D01*
X133764596Y-79675174D01*
X133833063Y-79710060D01*
X133922443Y-79755602D01*
X133922446Y-79755603D01*
X134006687Y-79782974D01*
X134090931Y-79810346D01*
X134265907Y-79838060D01*
X134265908Y-79838060D01*
X134443064Y-79838060D01*
X134443065Y-79838060D01*
X134618041Y-79810346D01*
X134786528Y-79755602D01*
X134843691Y-79726475D01*
X134912359Y-79713579D01*
X134977099Y-79739854D01*
X135017357Y-79796960D01*
X135023986Y-79836960D01*
X135023986Y-93493740D01*
X135004301Y-93560779D01*
X134951497Y-93606534D01*
X134947440Y-93608301D01*
X134848601Y-93649242D01*
X134848595Y-93649245D01*
X134649876Y-93763976D01*
X134467832Y-93903665D01*
X134305575Y-94065922D01*
X134165886Y-94247966D01*
X134051151Y-94446693D01*
X134051144Y-94446707D01*
X133963336Y-94658696D01*
X133903947Y-94880343D01*
X133903945Y-94880354D01*
X133873994Y-95107842D01*
X133873994Y-95337325D01*
X133897003Y-95512084D01*
X133903946Y-95564822D01*
X133950841Y-95739838D01*
X133963336Y-95786471D01*
X134051144Y-95998460D01*
X134051151Y-95998474D01*
X134165886Y-96197201D01*
X134305575Y-96379245D01*
X134305583Y-96379254D01*
X134351732Y-96425403D01*
X134385217Y-96486726D01*
X134380233Y-96556418D01*
X134338361Y-96612351D01*
X134272897Y-96636768D01*
X134267461Y-96636962D01*
X134265917Y-96637083D01*
X134090937Y-96664798D01*
X133922454Y-96719540D01*
X133922451Y-96719541D01*
X133764603Y-96799970D01*
X133682832Y-96859380D01*
X133621280Y-96904101D01*
X133621278Y-96904103D01*
X133621277Y-96904103D01*
X133496013Y-97029367D01*
X133496013Y-97029368D01*
X133496011Y-97029370D01*
X133451290Y-97090922D01*
X133391880Y-97172693D01*
X133311451Y-97330541D01*
X133311450Y-97330544D01*
X133256708Y-97499027D01*
X133228994Y-97674005D01*
X133228994Y-97851162D01*
X133256708Y-98026140D01*
X133311450Y-98194623D01*
X133311451Y-98194626D01*
X133391880Y-98352474D01*
X133496011Y-98495798D01*
X133621280Y-98621067D01*
X133764604Y-98725198D01*
X133833071Y-98760084D01*
X133922451Y-98805626D01*
X133922454Y-98805627D01*
X134006695Y-98832998D01*
X134090939Y-98860370D01*
X134265915Y-98888084D01*
X134265916Y-98888084D01*
X134443072Y-98888084D01*
X134443073Y-98888084D01*
X134618049Y-98860370D01*
X134786536Y-98805626D01*
X134944384Y-98725198D01*
X135087708Y-98621067D01*
X135212977Y-98495798D01*
X135317108Y-98352474D01*
X135397536Y-98194626D01*
X135452280Y-98026139D01*
X135479994Y-97851163D01*
X135479994Y-97674005D01*
X135470659Y-97615070D01*
X137183994Y-97615070D01*
X137183994Y-97910097D01*
X137199272Y-98026139D01*
X137222501Y-98202577D01*
X137298855Y-98487535D01*
X137298858Y-98487545D01*
X137411748Y-98760084D01*
X137411752Y-98760094D01*
X137559255Y-99015577D01*
X137738846Y-99249624D01*
X137738852Y-99249631D01*
X137947446Y-99458225D01*
X137947453Y-99458231D01*
X138181500Y-99637822D01*
X138436983Y-99785325D01*
X138436984Y-99785325D01*
X138436987Y-99785327D01*
X138647790Y-99872644D01*
X138686785Y-99888797D01*
X138709542Y-99898223D01*
X138994501Y-99974577D01*
X139286988Y-100013084D01*
X139286995Y-100013084D01*
X139581993Y-100013084D01*
X139582000Y-100013084D01*
X139874487Y-99974577D01*
X140159446Y-99898223D01*
X140432001Y-99785327D01*
X140454712Y-99772215D01*
X147659002Y-99772215D01*
X147659002Y-101467950D01*
X147659003Y-101467956D01*
X147665410Y-101527563D01*
X147715704Y-101662408D01*
X147715708Y-101662415D01*
X147801954Y-101777624D01*
X147801957Y-101777627D01*
X147917166Y-101863873D01*
X147917173Y-101863877D01*
X148052019Y-101914171D01*
X148052018Y-101914171D01*
X148058946Y-101914915D01*
X148111629Y-101920580D01*
X149807374Y-101920579D01*
X149866985Y-101914171D01*
X150001833Y-101863876D01*
X150117048Y-101777626D01*
X150203298Y-101662411D01*
X150253593Y-101527563D01*
X150260002Y-101467953D01*
X150260001Y-99772208D01*
X150253593Y-99712597D01*
X150203298Y-99577749D01*
X150203297Y-99577748D01*
X150203295Y-99577744D01*
X150117049Y-99462535D01*
X150117046Y-99462532D01*
X150001837Y-99376286D01*
X150001830Y-99376282D01*
X149866984Y-99325988D01*
X149866985Y-99325988D01*
X149807385Y-99319581D01*
X149807383Y-99319580D01*
X149807375Y-99319580D01*
X149807366Y-99319580D01*
X148111631Y-99319580D01*
X148111625Y-99319581D01*
X148052018Y-99325988D01*
X147917173Y-99376282D01*
X147917166Y-99376286D01*
X147801957Y-99462532D01*
X147801954Y-99462535D01*
X147715708Y-99577744D01*
X147715704Y-99577751D01*
X147665410Y-99712597D01*
X147661189Y-99751865D01*
X147659003Y-99772203D01*
X147659002Y-99772215D01*
X140454712Y-99772215D01*
X140504830Y-99743279D01*
X140646479Y-99661499D01*
X140665934Y-99650265D01*
X140687488Y-99637822D01*
X140921536Y-99458230D01*
X141130140Y-99249626D01*
X141309732Y-99015578D01*
X141457237Y-98760091D01*
X141570133Y-98487536D01*
X141646487Y-98202577D01*
X141684994Y-97910090D01*
X141684994Y-97674005D01*
X143388994Y-97674005D01*
X143388994Y-97851162D01*
X143416708Y-98026140D01*
X143471450Y-98194623D01*
X143471451Y-98194626D01*
X143551880Y-98352474D01*
X143656011Y-98495798D01*
X143781280Y-98621067D01*
X143924604Y-98725198D01*
X143993071Y-98760084D01*
X144082451Y-98805626D01*
X144082454Y-98805627D01*
X144166695Y-98832998D01*
X144250939Y-98860370D01*
X144425915Y-98888084D01*
X144425916Y-98888084D01*
X144603072Y-98888084D01*
X144603073Y-98888084D01*
X144778049Y-98860370D01*
X144946536Y-98805626D01*
X145104384Y-98725198D01*
X145247708Y-98621067D01*
X145372977Y-98495798D01*
X145477108Y-98352474D01*
X145557536Y-98194626D01*
X145612280Y-98026139D01*
X145639994Y-97851163D01*
X145639994Y-97674005D01*
X145612280Y-97499029D01*
X145557536Y-97330542D01*
X145557536Y-97330541D01*
X145477107Y-97172693D01*
X145466012Y-97157422D01*
X145372977Y-97029370D01*
X145247708Y-96904101D01*
X145104384Y-96799970D01*
X145096447Y-96795926D01*
X144946536Y-96719541D01*
X144946533Y-96719540D01*
X144778050Y-96664798D01*
X144690561Y-96650941D01*
X144603073Y-96637084D01*
X144425915Y-96637084D01*
X144367589Y-96646322D01*
X144250937Y-96664798D01*
X144082454Y-96719540D01*
X144082451Y-96719541D01*
X143924603Y-96799970D01*
X143842832Y-96859380D01*
X143781280Y-96904101D01*
X143781278Y-96904103D01*
X143781277Y-96904103D01*
X143656013Y-97029367D01*
X143656013Y-97029368D01*
X143656011Y-97029370D01*
X143611290Y-97090922D01*
X143551880Y-97172693D01*
X143471451Y-97330541D01*
X143471450Y-97330544D01*
X143416708Y-97499027D01*
X143388994Y-97674005D01*
X141684994Y-97674005D01*
X141684994Y-97615078D01*
X141646487Y-97322591D01*
X141570133Y-97037632D01*
X141457237Y-96765077D01*
X141430947Y-96719542D01*
X141309732Y-96509590D01*
X141130141Y-96275543D01*
X141130135Y-96275536D01*
X140921541Y-96066942D01*
X140921534Y-96066936D01*
X140687487Y-95887345D01*
X140432004Y-95739842D01*
X140431994Y-95739838D01*
X140159455Y-95626948D01*
X140159448Y-95626946D01*
X140159446Y-95626945D01*
X139874487Y-95550591D01*
X139825607Y-95544155D01*
X139582007Y-95512084D01*
X139582000Y-95512084D01*
X139286988Y-95512084D01*
X139286980Y-95512084D01*
X139008579Y-95548737D01*
X138994501Y-95550591D01*
X138709542Y-95626945D01*
X138709532Y-95626948D01*
X138436993Y-95739838D01*
X138436983Y-95739842D01*
X138181500Y-95887345D01*
X137947453Y-96066936D01*
X137947446Y-96066942D01*
X137738852Y-96275536D01*
X137738846Y-96275543D01*
X137559255Y-96509590D01*
X137411752Y-96765073D01*
X137411748Y-96765083D01*
X137298858Y-97037622D01*
X137298855Y-97037632D01*
X137262666Y-97172694D01*
X137222502Y-97322588D01*
X137222500Y-97322599D01*
X137183994Y-97615070D01*
X135470659Y-97615070D01*
X135452280Y-97499029D01*
X135397536Y-97330542D01*
X135397536Y-97330541D01*
X135317107Y-97172693D01*
X135306012Y-97157422D01*
X135282532Y-97091616D01*
X135298357Y-97023562D01*
X135348462Y-96974867D01*
X135416940Y-96960991D01*
X135422471Y-96961592D01*
X135509760Y-96973084D01*
X135509767Y-96973084D01*
X135739221Y-96973084D01*
X135739228Y-96973084D01*
X135966732Y-96943132D01*
X136188381Y-96883742D01*
X136400382Y-96795928D01*
X136599106Y-96681195D01*
X136781155Y-96541503D01*
X136781159Y-96541498D01*
X136781164Y-96541495D01*
X136943405Y-96379254D01*
X136943408Y-96379249D01*
X136943413Y-96379245D01*
X137083105Y-96197196D01*
X137197838Y-95998472D01*
X137285652Y-95786471D01*
X137345042Y-95564822D01*
X137374994Y-95337318D01*
X137374994Y-95107850D01*
X137345042Y-94880346D01*
X137285652Y-94658697D01*
X137197838Y-94446696D01*
X137083105Y-94247972D01*
X137083102Y-94247969D01*
X137083101Y-94247966D01*
X136943412Y-94065922D01*
X136943405Y-94065914D01*
X136781164Y-93903673D01*
X136781155Y-93903665D01*
X136599111Y-93763976D01*
X136400384Y-93649241D01*
X136400380Y-93649239D01*
X136301532Y-93608294D01*
X136247129Y-93564452D01*
X136225065Y-93498158D01*
X136224986Y-93493733D01*
X136224986Y-92567842D01*
X140223994Y-92567842D01*
X140223994Y-92797325D01*
X140234441Y-92876670D01*
X140253946Y-93024822D01*
X140313336Y-93246471D01*
X140401144Y-93458460D01*
X140401151Y-93458474D01*
X140515886Y-93657201D01*
X140655575Y-93839245D01*
X140655583Y-93839254D01*
X140817824Y-94001495D01*
X140817832Y-94001502D01*
X140999876Y-94141191D01*
X140999879Y-94141192D01*
X140999882Y-94141195D01*
X141198606Y-94255928D01*
X141198611Y-94255930D01*
X141198617Y-94255933D01*
X141289974Y-94293774D01*
X141410607Y-94343742D01*
X141632256Y-94403132D01*
X141859760Y-94433084D01*
X141859767Y-94433084D01*
X142089221Y-94433084D01*
X142089228Y-94433084D01*
X142316732Y-94403132D01*
X142538381Y-94343742D01*
X142750382Y-94255928D01*
X142949106Y-94141195D01*
X143131155Y-94001503D01*
X143131159Y-94001498D01*
X143131164Y-94001495D01*
X143293405Y-93839254D01*
X143293408Y-93839249D01*
X143293413Y-93839245D01*
X143433105Y-93657196D01*
X143547838Y-93458472D01*
X143635652Y-93246471D01*
X143695042Y-93024822D01*
X143711775Y-92897728D01*
X147659002Y-92897728D01*
X147659002Y-93102431D01*
X147691024Y-93304614D01*
X147754283Y-93499303D01*
X147808921Y-93606534D01*
X147830683Y-93649245D01*
X147847217Y-93681693D01*
X147967530Y-93847293D01*
X148112288Y-93992051D01*
X148267251Y-94104636D01*
X148277892Y-94112367D01*
X148394109Y-94171583D01*
X148460278Y-94205298D01*
X148460280Y-94205298D01*
X148460283Y-94205300D01*
X148564639Y-94239207D01*
X148654967Y-94268557D01*
X148756059Y-94284568D01*
X148857150Y-94300580D01*
X148857151Y-94300580D01*
X149061853Y-94300580D01*
X149061854Y-94300580D01*
X149264036Y-94268557D01*
X149458721Y-94205300D01*
X149641112Y-94112367D01*
X149734092Y-94044812D01*
X149806715Y-93992051D01*
X149806717Y-93992048D01*
X149806721Y-93992046D01*
X149951468Y-93847299D01*
X149951470Y-93847295D01*
X149951473Y-93847293D01*
X150012007Y-93763973D01*
X150071789Y-93681690D01*
X150164722Y-93499299D01*
X150227979Y-93304614D01*
X150260002Y-93102432D01*
X150260002Y-92897728D01*
X150256667Y-92876670D01*
X150227979Y-92695545D01*
X150164720Y-92500856D01*
X150082935Y-92340346D01*
X150071789Y-92318470D01*
X150064058Y-92307829D01*
X149951473Y-92152866D01*
X149806715Y-92008108D01*
X149641115Y-91887795D01*
X149641114Y-91887794D01*
X149641112Y-91887793D01*
X149584155Y-91858771D01*
X149458725Y-91794861D01*
X149264036Y-91731602D01*
X149089497Y-91703958D01*
X149061854Y-91699580D01*
X148857150Y-91699580D01*
X148832831Y-91703431D01*
X148654967Y-91731602D01*
X148460278Y-91794861D01*
X148277888Y-91887795D01*
X148112288Y-92008108D01*
X147967530Y-92152866D01*
X147847217Y-92318466D01*
X147754283Y-92500856D01*
X147691024Y-92695545D01*
X147659002Y-92897728D01*
X143711775Y-92897728D01*
X143724994Y-92797318D01*
X143724994Y-92567850D01*
X143695042Y-92340346D01*
X143635652Y-92118697D01*
X143547838Y-91906696D01*
X143433105Y-91707972D01*
X143433102Y-91707969D01*
X143433101Y-91707966D01*
X143293412Y-91525922D01*
X143293405Y-91525914D01*
X143131164Y-91363673D01*
X143131155Y-91363665D01*
X142949111Y-91223976D01*
X142750384Y-91109241D01*
X142750370Y-91109234D01*
X142538381Y-91021426D01*
X142316732Y-90962036D01*
X142278709Y-90957030D01*
X142089235Y-90932084D01*
X142089228Y-90932084D01*
X141859760Y-90932084D01*
X141859752Y-90932084D01*
X141643209Y-90960593D01*
X141632256Y-90962036D01*
X141538570Y-90987138D01*
X141410606Y-91021426D01*
X141198617Y-91109234D01*
X141198603Y-91109241D01*
X140999876Y-91223976D01*
X140817832Y-91363665D01*
X140655575Y-91525922D01*
X140515886Y-91707966D01*
X140401151Y-91906693D01*
X140401144Y-91906707D01*
X140313336Y-92118696D01*
X140253947Y-92340343D01*
X140253945Y-92340354D01*
X140223994Y-92567842D01*
X136224986Y-92567842D01*
X136224986Y-78565046D01*
X137183986Y-78565046D01*
X137183986Y-78860073D01*
X137199264Y-78976115D01*
X137222493Y-79152553D01*
X137262660Y-79302458D01*
X137298847Y-79437511D01*
X137298850Y-79437521D01*
X137411740Y-79710060D01*
X137411744Y-79710070D01*
X137559247Y-79965553D01*
X137738838Y-80199600D01*
X137738844Y-80199607D01*
X137947438Y-80408201D01*
X137947445Y-80408207D01*
X138181492Y-80587798D01*
X138436975Y-80735301D01*
X138436976Y-80735301D01*
X138436979Y-80735303D01*
X138709534Y-80848199D01*
X138994493Y-80924553D01*
X139286980Y-80963060D01*
X139286987Y-80963060D01*
X139581985Y-80963060D01*
X139581992Y-80963060D01*
X139874479Y-80924553D01*
X140159438Y-80848199D01*
X140431993Y-80735303D01*
X140454690Y-80722199D01*
X147659002Y-80722199D01*
X147659002Y-82417934D01*
X147659003Y-82417940D01*
X147665410Y-82477547D01*
X147715704Y-82612392D01*
X147715708Y-82612399D01*
X147801954Y-82727608D01*
X147801957Y-82727611D01*
X147917166Y-82813857D01*
X147917173Y-82813861D01*
X148052019Y-82864155D01*
X148052018Y-82864155D01*
X148058946Y-82864899D01*
X148111629Y-82870564D01*
X149807374Y-82870563D01*
X149866985Y-82864155D01*
X150001833Y-82813860D01*
X150117048Y-82727610D01*
X150203298Y-82612395D01*
X150253593Y-82477547D01*
X150260002Y-82417937D01*
X150260001Y-80722192D01*
X150253593Y-80662581D01*
X150203298Y-80527733D01*
X150203297Y-80527732D01*
X150203295Y-80527728D01*
X150117049Y-80412519D01*
X150117046Y-80412516D01*
X150001837Y-80326270D01*
X150001830Y-80326266D01*
X149866984Y-80275972D01*
X149866985Y-80275972D01*
X149807385Y-80269565D01*
X149807383Y-80269564D01*
X149807375Y-80269564D01*
X149807366Y-80269564D01*
X148111631Y-80269564D01*
X148111625Y-80269565D01*
X148052018Y-80275972D01*
X147917173Y-80326266D01*
X147917166Y-80326270D01*
X147801957Y-80412516D01*
X147801954Y-80412519D01*
X147715708Y-80527728D01*
X147715704Y-80527735D01*
X147665410Y-80662581D01*
X147659003Y-80722180D01*
X147659003Y-80722187D01*
X147659002Y-80722199D01*
X140454690Y-80722199D01*
X140557952Y-80662581D01*
X140646457Y-80611483D01*
X140664159Y-80601261D01*
X140687480Y-80587798D01*
X140921528Y-80408206D01*
X141130132Y-80199602D01*
X141309724Y-79965554D01*
X141457229Y-79710067D01*
X141570125Y-79437512D01*
X141646479Y-79152553D01*
X141684986Y-78860066D01*
X141684986Y-78623981D01*
X143388986Y-78623981D01*
X143388986Y-78801139D01*
X143398320Y-78860073D01*
X143416700Y-78976116D01*
X143471442Y-79144599D01*
X143471443Y-79144602D01*
X143551872Y-79302450D01*
X143656003Y-79445774D01*
X143781272Y-79571043D01*
X143924596Y-79675174D01*
X143993063Y-79710060D01*
X144082443Y-79755602D01*
X144082446Y-79755603D01*
X144166687Y-79782974D01*
X144250931Y-79810346D01*
X144425907Y-79838060D01*
X144425908Y-79838060D01*
X144603064Y-79838060D01*
X144603065Y-79838060D01*
X144778041Y-79810346D01*
X144946528Y-79755602D01*
X145104376Y-79675174D01*
X145247700Y-79571043D01*
X145372969Y-79445774D01*
X145477100Y-79302450D01*
X145557528Y-79144602D01*
X145612272Y-78976115D01*
X145639986Y-78801139D01*
X145639986Y-78623981D01*
X145612272Y-78449005D01*
X145584900Y-78364761D01*
X145557529Y-78280520D01*
X145557528Y-78280517D01*
X145477104Y-78122678D01*
X145477100Y-78122670D01*
X145372969Y-77979346D01*
X145247700Y-77854077D01*
X145104376Y-77749946D01*
X145096439Y-77745902D01*
X144946528Y-77669517D01*
X144946525Y-77669516D01*
X144778042Y-77614774D01*
X144690553Y-77600917D01*
X144603065Y-77587060D01*
X144425907Y-77587060D01*
X144367581Y-77596298D01*
X144250929Y-77614774D01*
X144082446Y-77669516D01*
X144082443Y-77669517D01*
X143924595Y-77749946D01*
X143842824Y-77809356D01*
X143781272Y-77854077D01*
X143781270Y-77854079D01*
X143781269Y-77854079D01*
X143656005Y-77979343D01*
X143656005Y-77979344D01*
X143656003Y-77979346D01*
X143611282Y-78040898D01*
X143551872Y-78122669D01*
X143471443Y-78280517D01*
X143471442Y-78280520D01*
X143416700Y-78449003D01*
X143398319Y-78565054D01*
X143388986Y-78623981D01*
X141684986Y-78623981D01*
X141684986Y-78565054D01*
X141646479Y-78272567D01*
X141570125Y-77987608D01*
X141457229Y-77715053D01*
X141430943Y-77669525D01*
X141309724Y-77459566D01*
X141130133Y-77225519D01*
X141130127Y-77225512D01*
X140921533Y-77016918D01*
X140921526Y-77016912D01*
X140687479Y-76837321D01*
X140431996Y-76689818D01*
X140431986Y-76689814D01*
X140159447Y-76576924D01*
X140159440Y-76576922D01*
X140159438Y-76576921D01*
X139874479Y-76500567D01*
X139825599Y-76494131D01*
X139581999Y-76462060D01*
X139581992Y-76462060D01*
X139286980Y-76462060D01*
X139286972Y-76462060D01*
X139008571Y-76498713D01*
X138994493Y-76500567D01*
X138709534Y-76576921D01*
X138709524Y-76576924D01*
X138436985Y-76689814D01*
X138436975Y-76689818D01*
X138181492Y-76837321D01*
X137947445Y-77016912D01*
X137947438Y-77016918D01*
X137738844Y-77225512D01*
X137738838Y-77225519D01*
X137559247Y-77459566D01*
X137411744Y-77715049D01*
X137411740Y-77715059D01*
X137298850Y-77987598D01*
X137298848Y-77987606D01*
X137298847Y-77987608D01*
X137222493Y-78272567D01*
X137222492Y-78272575D01*
X137183986Y-78565046D01*
X136224986Y-78565046D01*
X136224986Y-77901406D01*
X136244671Y-77834367D01*
X136297475Y-77788612D01*
X136301534Y-77786845D01*
X136400362Y-77745909D01*
X136400362Y-77745908D01*
X136400374Y-77745904D01*
X136599098Y-77631171D01*
X136781147Y-77491479D01*
X136781151Y-77491474D01*
X136781156Y-77491471D01*
X136943397Y-77329230D01*
X136943400Y-77329225D01*
X136943405Y-77329221D01*
X137083097Y-77147172D01*
X137197830Y-76948448D01*
X137285644Y-76736447D01*
X137345034Y-76514798D01*
X137374986Y-76287294D01*
X137374986Y-76057826D01*
X137345034Y-75830322D01*
X137285644Y-75608673D01*
X137197830Y-75396672D01*
X137083097Y-75197948D01*
X137083094Y-75197945D01*
X137083093Y-75197942D01*
X136943404Y-75015898D01*
X136943397Y-75015890D01*
X136781156Y-74853649D01*
X136781147Y-74853641D01*
X136599103Y-74713952D01*
X136400384Y-74599221D01*
X136400379Y-74599219D01*
X136400374Y-74599216D01*
X136301531Y-74558273D01*
X136247129Y-74514432D01*
X136225065Y-74448137D01*
X136224986Y-74443713D01*
X136224986Y-73517818D01*
X140223986Y-73517818D01*
X140223986Y-73747301D01*
X140248932Y-73936775D01*
X140253938Y-73974798D01*
X140313328Y-74196447D01*
X140401136Y-74408436D01*
X140401143Y-74408450D01*
X140515878Y-74607177D01*
X140655567Y-74789221D01*
X140655575Y-74789230D01*
X140817816Y-74951471D01*
X140817824Y-74951478D01*
X140817825Y-74951479D01*
X140868448Y-74990324D01*
X140999868Y-75091167D01*
X140999871Y-75091168D01*
X140999874Y-75091171D01*
X141198598Y-75205904D01*
X141198603Y-75205906D01*
X141198609Y-75205909D01*
X141229106Y-75218541D01*
X141410599Y-75293718D01*
X141632248Y-75353108D01*
X141859752Y-75383060D01*
X141859759Y-75383060D01*
X142089213Y-75383060D01*
X142089220Y-75383060D01*
X142316724Y-75353108D01*
X142538373Y-75293718D01*
X142750374Y-75205904D01*
X142949098Y-75091171D01*
X143131147Y-74951479D01*
X143131151Y-74951474D01*
X143131156Y-74951471D01*
X143293397Y-74789230D01*
X143293400Y-74789225D01*
X143293405Y-74789221D01*
X143433097Y-74607172D01*
X143547830Y-74408448D01*
X143635644Y-74196447D01*
X143695034Y-73974798D01*
X143711765Y-73847712D01*
X147659002Y-73847712D01*
X147659002Y-74052415D01*
X147691024Y-74254598D01*
X147754283Y-74449287D01*
X147809816Y-74558274D01*
X147830683Y-74599229D01*
X147847217Y-74631677D01*
X147967530Y-74797277D01*
X148112288Y-74942035D01*
X148267251Y-75054620D01*
X148277892Y-75062351D01*
X148394109Y-75121567D01*
X148460278Y-75155282D01*
X148460280Y-75155282D01*
X148460283Y-75155284D01*
X148564639Y-75189191D01*
X148654967Y-75218541D01*
X148756059Y-75234552D01*
X148857150Y-75250564D01*
X148857151Y-75250564D01*
X149061853Y-75250564D01*
X149061854Y-75250564D01*
X149264036Y-75218541D01*
X149458721Y-75155284D01*
X149641112Y-75062351D01*
X149734092Y-74994796D01*
X149806715Y-74942035D01*
X149806717Y-74942032D01*
X149806721Y-74942030D01*
X149951468Y-74797283D01*
X149951470Y-74797279D01*
X149951473Y-74797277D01*
X150012013Y-74713949D01*
X150071789Y-74631674D01*
X150164722Y-74449283D01*
X150227979Y-74254598D01*
X150260002Y-74052416D01*
X150260002Y-73847712D01*
X150256667Y-73826653D01*
X150227979Y-73645529D01*
X150164720Y-73450840D01*
X150082935Y-73290330D01*
X150071789Y-73268454D01*
X150064058Y-73257813D01*
X149951473Y-73102850D01*
X149806715Y-72958092D01*
X149641115Y-72837779D01*
X149641114Y-72837778D01*
X149641112Y-72837777D01*
X149584155Y-72808755D01*
X149458725Y-72744845D01*
X149264036Y-72681586D01*
X149089497Y-72653942D01*
X149061854Y-72649564D01*
X148857150Y-72649564D01*
X148832831Y-72653415D01*
X148654967Y-72681586D01*
X148460278Y-72744845D01*
X148277888Y-72837779D01*
X148112288Y-72958092D01*
X147967530Y-73102850D01*
X147847217Y-73268450D01*
X147754283Y-73450840D01*
X147691024Y-73645529D01*
X147659002Y-73847712D01*
X143711765Y-73847712D01*
X143724986Y-73747294D01*
X143724986Y-73517826D01*
X143695034Y-73290322D01*
X143635644Y-73068673D01*
X143547830Y-72856672D01*
X143433097Y-72657948D01*
X143433094Y-72657945D01*
X143433093Y-72657942D01*
X143293404Y-72475898D01*
X143293397Y-72475890D01*
X143131156Y-72313649D01*
X143131147Y-72313641D01*
X142949103Y-72173952D01*
X142750376Y-72059217D01*
X142750362Y-72059210D01*
X142538373Y-71971402D01*
X142451023Y-71947997D01*
X142316724Y-71912012D01*
X142278701Y-71907006D01*
X142089227Y-71882060D01*
X142089220Y-71882060D01*
X141859752Y-71882060D01*
X141859744Y-71882060D01*
X141643201Y-71910569D01*
X141632248Y-71912012D01*
X141538562Y-71937114D01*
X141410598Y-71971402D01*
X141198609Y-72059210D01*
X141198595Y-72059217D01*
X140999868Y-72173952D01*
X140817824Y-72313641D01*
X140655567Y-72475898D01*
X140515878Y-72657942D01*
X140401143Y-72856669D01*
X140401136Y-72856683D01*
X140313328Y-73068672D01*
X140299657Y-73119694D01*
X140253938Y-73290322D01*
X140253937Y-73290330D01*
X140223986Y-73517818D01*
X136224986Y-73517818D01*
X136224986Y-70321100D01*
X136244671Y-70254061D01*
X136261305Y-70233419D01*
X136670345Y-69824379D01*
X136731668Y-69790894D01*
X136758026Y-69788060D01*
X150063459Y-69788060D01*
X150063475Y-69788061D01*
X150071071Y-69788061D01*
X150229182Y-69788061D01*
X150229185Y-69788061D01*
X150381913Y-69747137D01*
X150439105Y-69714117D01*
X150518844Y-69668080D01*
X150630648Y-69556276D01*
X150630648Y-69556274D01*
X150640852Y-69546071D01*
X150640855Y-69546066D01*
X151464099Y-68722825D01*
X151543156Y-68585893D01*
X151584080Y-68433166D01*
X151584080Y-68381654D01*
X151603765Y-68314615D01*
X151656569Y-68268860D01*
X151673968Y-68262438D01*
X151751628Y-68240217D01*
X151931986Y-68146006D01*
X152089688Y-68017417D01*
X152218277Y-67859715D01*
X152312488Y-67679357D01*
X152368465Y-67483726D01*
X152379079Y-67364345D01*
X152379078Y-66248272D01*
X152368465Y-66128890D01*
X152312488Y-65933259D01*
X152218277Y-65752901D01*
X152105562Y-65614667D01*
X152078454Y-65550273D01*
X152090463Y-65481443D01*
X152105560Y-65457950D01*
X152218277Y-65319715D01*
X152312488Y-65139357D01*
X152364753Y-64956695D01*
X152402120Y-64897659D01*
X152465474Y-64868195D01*
X152483969Y-64866808D01*
X153263161Y-64866808D01*
X153330200Y-64886493D01*
X153350842Y-64903127D01*
X154037691Y-65589976D01*
X154071176Y-65651299D01*
X154074010Y-65677657D01*
X154074010Y-74443721D01*
X154054325Y-74510760D01*
X154001521Y-74556515D01*
X153997473Y-74558277D01*
X153898622Y-74599224D01*
X153898619Y-74599225D01*
X153898611Y-74599229D01*
X153699892Y-74713960D01*
X153517848Y-74853649D01*
X153355591Y-75015906D01*
X153215902Y-75197950D01*
X153101167Y-75396677D01*
X153101160Y-75396691D01*
X153013352Y-75608680D01*
X152953963Y-75830327D01*
X152953961Y-75830338D01*
X152924010Y-76057826D01*
X152924010Y-76287309D01*
X152947018Y-76462060D01*
X152953962Y-76514806D01*
X153000855Y-76689814D01*
X153013352Y-76736455D01*
X153101160Y-76948444D01*
X153101167Y-76948458D01*
X153215902Y-77147185D01*
X153355591Y-77329229D01*
X153355599Y-77329238D01*
X153401748Y-77375387D01*
X153435233Y-77436710D01*
X153430249Y-77506402D01*
X153388377Y-77562335D01*
X153322913Y-77586752D01*
X153317477Y-77586946D01*
X153315933Y-77587067D01*
X153140953Y-77614782D01*
X152972470Y-77669524D01*
X152972467Y-77669525D01*
X152814619Y-77749954D01*
X152732848Y-77809364D01*
X152671296Y-77854085D01*
X152671294Y-77854087D01*
X152671293Y-77854087D01*
X152546029Y-77979351D01*
X152546029Y-77979352D01*
X152546027Y-77979354D01*
X152501306Y-78040906D01*
X152441896Y-78122677D01*
X152361467Y-78280525D01*
X152361466Y-78280528D01*
X152306724Y-78449011D01*
X152279010Y-78623989D01*
X152279010Y-78801146D01*
X152306724Y-78976124D01*
X152361466Y-79144607D01*
X152361467Y-79144610D01*
X152441892Y-79302450D01*
X152441896Y-79302458D01*
X152546027Y-79445782D01*
X152671296Y-79571051D01*
X152814620Y-79675182D01*
X152845229Y-79690778D01*
X152972467Y-79755610D01*
X152972470Y-79755611D01*
X153056711Y-79782982D01*
X153140955Y-79810354D01*
X153315931Y-79838068D01*
X153315932Y-79838068D01*
X153493088Y-79838068D01*
X153493089Y-79838068D01*
X153668065Y-79810354D01*
X153836552Y-79755610D01*
X153893715Y-79726483D01*
X153962383Y-79713587D01*
X154027123Y-79739862D01*
X154067381Y-79796968D01*
X154074010Y-79836968D01*
X154074010Y-93493737D01*
X154054325Y-93560776D01*
X154001521Y-93606531D01*
X153997473Y-93608293D01*
X153898622Y-93649240D01*
X153898619Y-93649241D01*
X153898611Y-93649245D01*
X153699892Y-93763976D01*
X153517848Y-93903665D01*
X153355591Y-94065922D01*
X153215902Y-94247966D01*
X153101167Y-94446693D01*
X153101160Y-94446707D01*
X153013352Y-94658696D01*
X152953963Y-94880343D01*
X152953961Y-94880354D01*
X152924010Y-95107842D01*
X152924010Y-95337325D01*
X152947019Y-95512084D01*
X152953962Y-95564822D01*
X153000857Y-95739838D01*
X153013352Y-95786471D01*
X153101160Y-95998460D01*
X153101167Y-95998474D01*
X153215902Y-96197201D01*
X153355591Y-96379245D01*
X153355599Y-96379254D01*
X153401748Y-96425403D01*
X153435233Y-96486726D01*
X153430249Y-96556418D01*
X153388377Y-96612351D01*
X153322913Y-96636768D01*
X153317477Y-96636962D01*
X153315933Y-96637083D01*
X153140953Y-96664798D01*
X152972470Y-96719540D01*
X152972467Y-96719541D01*
X152814619Y-96799970D01*
X152732848Y-96859380D01*
X152671296Y-96904101D01*
X152671294Y-96904103D01*
X152671293Y-96904103D01*
X152546029Y-97029367D01*
X152546029Y-97029368D01*
X152546027Y-97029370D01*
X152501306Y-97090922D01*
X152441896Y-97172693D01*
X152361467Y-97330541D01*
X152361466Y-97330544D01*
X152306724Y-97499027D01*
X152279010Y-97674005D01*
X152279010Y-97851162D01*
X152306724Y-98026140D01*
X152361466Y-98194623D01*
X152361467Y-98194626D01*
X152441896Y-98352474D01*
X152546027Y-98495798D01*
X152671296Y-98621067D01*
X152814620Y-98725198D01*
X152883087Y-98760084D01*
X152972467Y-98805626D01*
X152972470Y-98805627D01*
X153056711Y-98832998D01*
X153140955Y-98860370D01*
X153315931Y-98888084D01*
X153315932Y-98888084D01*
X153493088Y-98888084D01*
X153493089Y-98888084D01*
X153668065Y-98860370D01*
X153836552Y-98805626D01*
X153994400Y-98725198D01*
X154137724Y-98621067D01*
X154262993Y-98495798D01*
X154367124Y-98352474D01*
X154447552Y-98194626D01*
X154502296Y-98026139D01*
X154530010Y-97851163D01*
X154530010Y-97674005D01*
X154520675Y-97615070D01*
X156234010Y-97615070D01*
X156234010Y-97910097D01*
X156249288Y-98026139D01*
X156272517Y-98202577D01*
X156348871Y-98487535D01*
X156348874Y-98487545D01*
X156461764Y-98760084D01*
X156461768Y-98760094D01*
X156609271Y-99015577D01*
X156788862Y-99249624D01*
X156788868Y-99249631D01*
X156997462Y-99458225D01*
X156997469Y-99458231D01*
X157231516Y-99637822D01*
X157486999Y-99785325D01*
X157487000Y-99785325D01*
X157487003Y-99785327D01*
X157697806Y-99872644D01*
X157736801Y-99888797D01*
X157759558Y-99898223D01*
X158044517Y-99974577D01*
X158337004Y-100013084D01*
X158337011Y-100013084D01*
X158632009Y-100013084D01*
X158632016Y-100013084D01*
X158924503Y-99974577D01*
X159209462Y-99898223D01*
X159482017Y-99785327D01*
X159504728Y-99772215D01*
X166709018Y-99772215D01*
X166709018Y-101467950D01*
X166709019Y-101467956D01*
X166715426Y-101527563D01*
X166765720Y-101662408D01*
X166765724Y-101662415D01*
X166851970Y-101777624D01*
X166851973Y-101777627D01*
X166967182Y-101863873D01*
X166967189Y-101863877D01*
X167102035Y-101914171D01*
X167102034Y-101914171D01*
X167108962Y-101914915D01*
X167161645Y-101920580D01*
X168857390Y-101920579D01*
X168917001Y-101914171D01*
X169051849Y-101863876D01*
X169167064Y-101777626D01*
X169253314Y-101662411D01*
X169303609Y-101527563D01*
X169310018Y-101467953D01*
X169310017Y-100220176D01*
X169329702Y-100153138D01*
X169346331Y-100132500D01*
X169590037Y-99888796D01*
X169669095Y-99751865D01*
X169710019Y-99599137D01*
X169710019Y-99441023D01*
X169669095Y-99288295D01*
X169590037Y-99151364D01*
X169478234Y-99039561D01*
X169341303Y-98960503D01*
X169188575Y-98919579D01*
X169030461Y-98919579D01*
X168915915Y-98950272D01*
X168877732Y-98960503D01*
X168740802Y-99039561D01*
X168740799Y-99039563D01*
X168497101Y-99283261D01*
X168435778Y-99316746D01*
X168409420Y-99319580D01*
X167161647Y-99319580D01*
X167161641Y-99319581D01*
X167102034Y-99325988D01*
X166967189Y-99376282D01*
X166967182Y-99376286D01*
X166851973Y-99462532D01*
X166851970Y-99462535D01*
X166765724Y-99577744D01*
X166765720Y-99577751D01*
X166715426Y-99712597D01*
X166711205Y-99751865D01*
X166709019Y-99772203D01*
X166709018Y-99772215D01*
X159504728Y-99772215D01*
X159554846Y-99743279D01*
X159696495Y-99661499D01*
X159715950Y-99650265D01*
X159737504Y-99637822D01*
X159971552Y-99458230D01*
X160180156Y-99249626D01*
X160359748Y-99015578D01*
X160507253Y-98760091D01*
X160620149Y-98487536D01*
X160696503Y-98202577D01*
X160735010Y-97910090D01*
X160735010Y-97674005D01*
X162439010Y-97674005D01*
X162439010Y-97851162D01*
X162466724Y-98026140D01*
X162521466Y-98194623D01*
X162521467Y-98194626D01*
X162601896Y-98352474D01*
X162706027Y-98495798D01*
X162831296Y-98621067D01*
X162974620Y-98725198D01*
X163043087Y-98760084D01*
X163132467Y-98805626D01*
X163132470Y-98805627D01*
X163216711Y-98832998D01*
X163300955Y-98860370D01*
X163475931Y-98888084D01*
X163475932Y-98888084D01*
X163653088Y-98888084D01*
X163653089Y-98888084D01*
X163828065Y-98860370D01*
X163996552Y-98805626D01*
X164154400Y-98725198D01*
X164297724Y-98621067D01*
X164422993Y-98495798D01*
X164527124Y-98352474D01*
X164607552Y-98194626D01*
X164662296Y-98026139D01*
X164690010Y-97851163D01*
X164690010Y-97674005D01*
X164662296Y-97499029D01*
X164607552Y-97330542D01*
X164607552Y-97330541D01*
X164527123Y-97172693D01*
X164516028Y-97157422D01*
X164422993Y-97029370D01*
X164297724Y-96904101D01*
X164154400Y-96799970D01*
X164146463Y-96795926D01*
X163996552Y-96719541D01*
X163996549Y-96719540D01*
X163828066Y-96664798D01*
X163740577Y-96650941D01*
X163653089Y-96637084D01*
X163475931Y-96637084D01*
X163417605Y-96646322D01*
X163300953Y-96664798D01*
X163132470Y-96719540D01*
X163132467Y-96719541D01*
X162974619Y-96799970D01*
X162892848Y-96859380D01*
X162831296Y-96904101D01*
X162831294Y-96904103D01*
X162831293Y-96904103D01*
X162706029Y-97029367D01*
X162706029Y-97029368D01*
X162706027Y-97029370D01*
X162661306Y-97090922D01*
X162601896Y-97172693D01*
X162521467Y-97330541D01*
X162521466Y-97330544D01*
X162466724Y-97499027D01*
X162439010Y-97674005D01*
X160735010Y-97674005D01*
X160735010Y-97615078D01*
X160696503Y-97322591D01*
X160620149Y-97037632D01*
X160507253Y-96765077D01*
X160480963Y-96719542D01*
X160359748Y-96509590D01*
X160180157Y-96275543D01*
X160180151Y-96275536D01*
X159971557Y-96066942D01*
X159971550Y-96066936D01*
X159737503Y-95887345D01*
X159482020Y-95739842D01*
X159482010Y-95739838D01*
X159209471Y-95626948D01*
X159209464Y-95626946D01*
X159209462Y-95626945D01*
X158924503Y-95550591D01*
X158875623Y-95544155D01*
X158632023Y-95512084D01*
X158632016Y-95512084D01*
X158337004Y-95512084D01*
X158336996Y-95512084D01*
X158058595Y-95548737D01*
X158044517Y-95550591D01*
X157759558Y-95626945D01*
X157759548Y-95626948D01*
X157487009Y-95739838D01*
X157486999Y-95739842D01*
X157231516Y-95887345D01*
X156997469Y-96066936D01*
X156997462Y-96066942D01*
X156788868Y-96275536D01*
X156788862Y-96275543D01*
X156609271Y-96509590D01*
X156461768Y-96765073D01*
X156461764Y-96765083D01*
X156348874Y-97037622D01*
X156348871Y-97037632D01*
X156312682Y-97172694D01*
X156272518Y-97322588D01*
X156272516Y-97322599D01*
X156234010Y-97615070D01*
X154520675Y-97615070D01*
X154502296Y-97499029D01*
X154447552Y-97330542D01*
X154447552Y-97330541D01*
X154367123Y-97172693D01*
X154356028Y-97157422D01*
X154332548Y-97091616D01*
X154348373Y-97023562D01*
X154398478Y-96974867D01*
X154466956Y-96960991D01*
X154472487Y-96961592D01*
X154559776Y-96973084D01*
X154559783Y-96973084D01*
X154789237Y-96973084D01*
X154789244Y-96973084D01*
X155016748Y-96943132D01*
X155238397Y-96883742D01*
X155450398Y-96795928D01*
X155649122Y-96681195D01*
X155831171Y-96541503D01*
X155831175Y-96541498D01*
X155831180Y-96541495D01*
X155993421Y-96379254D01*
X155993424Y-96379249D01*
X155993429Y-96379245D01*
X156133121Y-96197196D01*
X156247854Y-95998472D01*
X156335668Y-95786471D01*
X156395058Y-95564822D01*
X156425010Y-95337318D01*
X156425010Y-95107850D01*
X156395058Y-94880346D01*
X156335668Y-94658697D01*
X156247854Y-94446696D01*
X156133121Y-94247972D01*
X156133118Y-94247969D01*
X156133117Y-94247966D01*
X155993428Y-94065922D01*
X155993421Y-94065914D01*
X155831180Y-93903673D01*
X155831171Y-93903665D01*
X155649127Y-93763976D01*
X155450408Y-93649245D01*
X155450401Y-93649242D01*
X155450398Y-93649240D01*
X155351555Y-93608297D01*
X155297153Y-93564456D01*
X155275089Y-93498161D01*
X155275010Y-93493737D01*
X155275010Y-92567842D01*
X159274010Y-92567842D01*
X159274010Y-92797325D01*
X159284457Y-92876670D01*
X159303962Y-93024822D01*
X159363352Y-93246471D01*
X159451160Y-93458460D01*
X159451167Y-93458474D01*
X159565902Y-93657201D01*
X159705591Y-93839245D01*
X159705599Y-93839254D01*
X159867840Y-94001495D01*
X159867848Y-94001502D01*
X160049892Y-94141191D01*
X160049895Y-94141192D01*
X160049898Y-94141195D01*
X160248622Y-94255928D01*
X160248627Y-94255930D01*
X160248633Y-94255933D01*
X160339990Y-94293774D01*
X160460623Y-94343742D01*
X160682272Y-94403132D01*
X160909776Y-94433084D01*
X160909783Y-94433084D01*
X161139237Y-94433084D01*
X161139244Y-94433084D01*
X161366748Y-94403132D01*
X161588397Y-94343742D01*
X161800398Y-94255928D01*
X161999122Y-94141195D01*
X162181171Y-94001503D01*
X162181175Y-94001498D01*
X162181180Y-94001495D01*
X162343421Y-93839254D01*
X162343424Y-93839249D01*
X162343429Y-93839245D01*
X162483121Y-93657196D01*
X162597854Y-93458472D01*
X162685668Y-93246471D01*
X162745058Y-93024822D01*
X162761791Y-92897728D01*
X166709018Y-92897728D01*
X166709018Y-93102431D01*
X166741040Y-93304614D01*
X166804299Y-93499303D01*
X166858937Y-93606534D01*
X166880699Y-93649245D01*
X166897233Y-93681693D01*
X167017546Y-93847293D01*
X167162304Y-93992051D01*
X167317267Y-94104636D01*
X167327908Y-94112367D01*
X167444125Y-94171583D01*
X167510294Y-94205298D01*
X167510296Y-94205298D01*
X167510299Y-94205300D01*
X167614655Y-94239207D01*
X167704983Y-94268557D01*
X167806075Y-94284568D01*
X167907166Y-94300580D01*
X167907167Y-94300580D01*
X168111869Y-94300580D01*
X168111870Y-94300580D01*
X168314052Y-94268557D01*
X168508737Y-94205300D01*
X168691128Y-94112367D01*
X168784108Y-94044812D01*
X168856731Y-93992051D01*
X168856733Y-93992048D01*
X168856737Y-93992046D01*
X169001484Y-93847299D01*
X169001486Y-93847295D01*
X169001489Y-93847293D01*
X169062023Y-93763973D01*
X169121805Y-93681690D01*
X169214738Y-93499299D01*
X169277995Y-93304614D01*
X169310018Y-93102432D01*
X169310018Y-92897728D01*
X169306683Y-92876670D01*
X169277995Y-92695545D01*
X169214736Y-92500856D01*
X169132951Y-92340346D01*
X169121805Y-92318470D01*
X169114074Y-92307829D01*
X169001489Y-92152866D01*
X168856731Y-92008108D01*
X168691131Y-91887795D01*
X168691130Y-91887794D01*
X168691128Y-91887793D01*
X168634171Y-91858771D01*
X168508741Y-91794861D01*
X168314052Y-91731602D01*
X168139513Y-91703958D01*
X168111870Y-91699580D01*
X167907166Y-91699580D01*
X167882847Y-91703431D01*
X167704983Y-91731602D01*
X167510294Y-91794861D01*
X167327904Y-91887795D01*
X167162304Y-92008108D01*
X167017546Y-92152866D01*
X166897233Y-92318466D01*
X166804299Y-92500856D01*
X166741040Y-92695545D01*
X166709018Y-92897728D01*
X162761791Y-92897728D01*
X162775010Y-92797318D01*
X162775010Y-92567850D01*
X162745058Y-92340346D01*
X162685668Y-92118697D01*
X162597854Y-91906696D01*
X162483121Y-91707972D01*
X162483118Y-91707969D01*
X162483117Y-91707966D01*
X162343428Y-91525922D01*
X162343421Y-91525914D01*
X162181180Y-91363673D01*
X162181171Y-91363665D01*
X161999127Y-91223976D01*
X161800400Y-91109241D01*
X161800386Y-91109234D01*
X161588397Y-91021426D01*
X161366748Y-90962036D01*
X161328725Y-90957030D01*
X161139251Y-90932084D01*
X161139244Y-90932084D01*
X160909776Y-90932084D01*
X160909768Y-90932084D01*
X160693225Y-90960593D01*
X160682272Y-90962036D01*
X160588586Y-90987138D01*
X160460622Y-91021426D01*
X160248633Y-91109234D01*
X160248619Y-91109241D01*
X160049892Y-91223976D01*
X159867848Y-91363665D01*
X159705591Y-91525922D01*
X159565902Y-91707966D01*
X159451167Y-91906693D01*
X159451160Y-91906707D01*
X159363352Y-92118696D01*
X159303963Y-92340343D01*
X159303961Y-92340354D01*
X159274010Y-92567842D01*
X155275010Y-92567842D01*
X155275010Y-78565054D01*
X156234010Y-78565054D01*
X156234010Y-78860081D01*
X156249287Y-78976115D01*
X156272517Y-79152561D01*
X156348871Y-79437520D01*
X156348872Y-79437522D01*
X156348874Y-79437529D01*
X156461764Y-79710068D01*
X156461768Y-79710078D01*
X156609271Y-79965561D01*
X156788862Y-80199608D01*
X156788868Y-80199615D01*
X156997462Y-80408209D01*
X156997469Y-80408215D01*
X157231516Y-80587806D01*
X157486999Y-80735309D01*
X157487000Y-80735309D01*
X157487003Y-80735311D01*
X157697806Y-80822628D01*
X157759538Y-80848199D01*
X157759558Y-80848207D01*
X158044517Y-80924561D01*
X158322925Y-80961214D01*
X158336935Y-80963059D01*
X158337004Y-80963068D01*
X158337011Y-80963068D01*
X158632009Y-80963068D01*
X158632016Y-80963068D01*
X158924503Y-80924561D01*
X159209462Y-80848207D01*
X159482017Y-80735311D01*
X159737504Y-80587806D01*
X159971552Y-80408214D01*
X160180156Y-80199610D01*
X160359748Y-79965562D01*
X160507253Y-79710075D01*
X160620149Y-79437520D01*
X160696503Y-79152561D01*
X160735010Y-78860074D01*
X160735010Y-78623989D01*
X162439010Y-78623989D01*
X162439010Y-78801146D01*
X162466724Y-78976124D01*
X162521466Y-79144607D01*
X162521467Y-79144610D01*
X162601892Y-79302450D01*
X162601896Y-79302458D01*
X162706027Y-79445782D01*
X162831296Y-79571051D01*
X162974620Y-79675182D01*
X163005229Y-79690778D01*
X163132467Y-79755610D01*
X163132470Y-79755611D01*
X163216711Y-79782982D01*
X163300955Y-79810354D01*
X163475931Y-79838068D01*
X163475932Y-79838068D01*
X163653088Y-79838068D01*
X163653089Y-79838068D01*
X163828065Y-79810354D01*
X163996552Y-79755610D01*
X164154400Y-79675182D01*
X164297724Y-79571051D01*
X164422993Y-79445782D01*
X164527124Y-79302458D01*
X164607552Y-79144610D01*
X164662296Y-78976123D01*
X164690010Y-78801147D01*
X164690010Y-78623989D01*
X164662296Y-78449013D01*
X164607552Y-78280526D01*
X164607552Y-78280525D01*
X164527123Y-78122677D01*
X164527117Y-78122669D01*
X164422993Y-77979354D01*
X164297724Y-77854085D01*
X164154400Y-77749954D01*
X164146461Y-77745909D01*
X163996552Y-77669525D01*
X163996549Y-77669524D01*
X163828066Y-77614782D01*
X163740577Y-77600925D01*
X163653089Y-77587068D01*
X163475931Y-77587068D01*
X163417605Y-77596306D01*
X163300953Y-77614782D01*
X163132470Y-77669524D01*
X163132467Y-77669525D01*
X162974619Y-77749954D01*
X162892848Y-77809364D01*
X162831296Y-77854085D01*
X162831294Y-77854087D01*
X162831293Y-77854087D01*
X162706029Y-77979351D01*
X162706029Y-77979352D01*
X162706027Y-77979354D01*
X162661306Y-78040906D01*
X162601896Y-78122677D01*
X162521467Y-78280525D01*
X162521466Y-78280528D01*
X162466724Y-78449011D01*
X162439010Y-78623989D01*
X160735010Y-78623989D01*
X160735010Y-78565062D01*
X160696503Y-78272575D01*
X160620149Y-77987616D01*
X160616723Y-77979346D01*
X160564839Y-77854087D01*
X160507253Y-77715061D01*
X160507248Y-77715053D01*
X160359748Y-77459574D01*
X160180157Y-77225527D01*
X160180151Y-77225520D01*
X159971557Y-77016926D01*
X159971550Y-77016920D01*
X159737503Y-76837329D01*
X159482020Y-76689826D01*
X159482010Y-76689822D01*
X159209471Y-76576932D01*
X159209464Y-76576930D01*
X159209462Y-76576929D01*
X158924503Y-76500575D01*
X158875623Y-76494139D01*
X158632023Y-76462068D01*
X158632016Y-76462068D01*
X158337004Y-76462068D01*
X158336996Y-76462068D01*
X158058595Y-76498721D01*
X158044517Y-76500575D01*
X157759588Y-76576921D01*
X157759558Y-76576929D01*
X157759548Y-76576932D01*
X157487009Y-76689822D01*
X157486999Y-76689826D01*
X157231516Y-76837329D01*
X156997469Y-77016920D01*
X156997462Y-77016926D01*
X156788868Y-77225520D01*
X156788862Y-77225527D01*
X156609271Y-77459574D01*
X156461768Y-77715057D01*
X156461764Y-77715067D01*
X156348874Y-77987606D01*
X156348871Y-77987616D01*
X156312682Y-78122678D01*
X156272518Y-78272572D01*
X156272516Y-78272583D01*
X156234010Y-78565054D01*
X155275010Y-78565054D01*
X155275010Y-77901414D01*
X155294695Y-77834375D01*
X155347499Y-77788620D01*
X155351558Y-77786853D01*
X155450386Y-77745917D01*
X155450386Y-77745916D01*
X155450398Y-77745912D01*
X155649122Y-77631179D01*
X155831171Y-77491487D01*
X155831175Y-77491482D01*
X155831180Y-77491479D01*
X155993421Y-77329238D01*
X155993424Y-77329233D01*
X155993429Y-77329229D01*
X156133121Y-77147180D01*
X156247854Y-76948456D01*
X156335668Y-76736455D01*
X156395058Y-76514806D01*
X156425010Y-76287302D01*
X156425010Y-76057834D01*
X156395058Y-75830330D01*
X156335668Y-75608681D01*
X156247854Y-75396680D01*
X156133121Y-75197956D01*
X156133118Y-75197953D01*
X156133117Y-75197950D01*
X155993428Y-75015906D01*
X155993421Y-75015898D01*
X155831180Y-74853657D01*
X155831171Y-74853649D01*
X155649127Y-74713960D01*
X155450408Y-74599229D01*
X155450403Y-74599227D01*
X155450398Y-74599224D01*
X155351555Y-74558281D01*
X155297153Y-74514440D01*
X155275089Y-74448145D01*
X155275010Y-74443721D01*
X155275010Y-73517826D01*
X159274010Y-73517826D01*
X159274010Y-73747309D01*
X159284457Y-73826654D01*
X159303962Y-73974806D01*
X159363350Y-74196447D01*
X159363352Y-74196455D01*
X159451160Y-74408444D01*
X159451167Y-74408458D01*
X159565902Y-74607185D01*
X159705591Y-74789229D01*
X159705599Y-74789238D01*
X159867840Y-74951479D01*
X159867848Y-74951486D01*
X160049892Y-75091175D01*
X160049895Y-75091176D01*
X160049898Y-75091179D01*
X160248622Y-75205912D01*
X160248627Y-75205914D01*
X160248633Y-75205917D01*
X160339990Y-75243758D01*
X160460623Y-75293726D01*
X160682272Y-75353116D01*
X160898822Y-75381625D01*
X160909707Y-75383059D01*
X160909776Y-75383068D01*
X160909783Y-75383068D01*
X161139237Y-75383068D01*
X161139244Y-75383068D01*
X161366748Y-75353116D01*
X161588397Y-75293726D01*
X161800398Y-75205912D01*
X161999122Y-75091179D01*
X162181171Y-74951487D01*
X162181175Y-74951482D01*
X162181180Y-74951479D01*
X162343421Y-74789238D01*
X162343424Y-74789233D01*
X162343429Y-74789229D01*
X162483121Y-74607180D01*
X162597854Y-74408456D01*
X162685668Y-74196455D01*
X162745058Y-73974806D01*
X162775010Y-73747302D01*
X162775010Y-73517834D01*
X162745058Y-73290330D01*
X162685668Y-73068681D01*
X162597854Y-72856680D01*
X162483121Y-72657956D01*
X162483118Y-72657953D01*
X162483117Y-72657950D01*
X162343428Y-72475906D01*
X162343421Y-72475898D01*
X162181180Y-72313657D01*
X162181171Y-72313649D01*
X161999127Y-72173960D01*
X161800400Y-72059225D01*
X161800386Y-72059218D01*
X161588397Y-71971410D01*
X161588367Y-71971402D01*
X161366748Y-71912020D01*
X161328725Y-71907014D01*
X161139251Y-71882068D01*
X161139244Y-71882068D01*
X160909776Y-71882068D01*
X160909768Y-71882068D01*
X160693225Y-71910577D01*
X160682272Y-71912020D01*
X160588586Y-71937122D01*
X160460622Y-71971410D01*
X160248633Y-72059218D01*
X160248619Y-72059225D01*
X160049892Y-72173960D01*
X159867848Y-72313649D01*
X159705591Y-72475906D01*
X159565902Y-72657950D01*
X159451167Y-72856677D01*
X159451160Y-72856691D01*
X159363352Y-73068680D01*
X159303963Y-73290327D01*
X159303961Y-73290338D01*
X159274010Y-73517826D01*
X155275010Y-73517826D01*
X155275010Y-71102686D01*
X155294695Y-71035647D01*
X155347499Y-70989892D01*
X155399010Y-70978686D01*
X164827834Y-70978686D01*
X164894873Y-70998371D01*
X164940628Y-71051175D01*
X164950572Y-71120333D01*
X164930936Y-71171577D01*
X164918875Y-71189626D01*
X164918868Y-71189639D01*
X164858530Y-71335310D01*
X164858527Y-71335322D01*
X164827766Y-71489965D01*
X164827766Y-71647658D01*
X164858527Y-71802301D01*
X164858530Y-71802313D01*
X164918868Y-71947984D01*
X164918875Y-71947997D01*
X165006868Y-72079686D01*
X165027746Y-72146363D01*
X165027766Y-72148577D01*
X165027766Y-79816524D01*
X165027765Y-79816542D01*
X165027765Y-79982248D01*
X165027764Y-79982248D01*
X165068689Y-80134979D01*
X165097624Y-80185094D01*
X165097625Y-80185098D01*
X165097626Y-80185098D01*
X165147745Y-80271908D01*
X165147747Y-80271911D01*
X165266615Y-80390779D01*
X165266621Y-80390784D01*
X166672699Y-81796862D01*
X166706184Y-81858185D01*
X166709018Y-81884543D01*
X166709018Y-82417934D01*
X166709019Y-82417940D01*
X166715426Y-82477547D01*
X166765720Y-82612392D01*
X166765724Y-82612399D01*
X166851970Y-82727608D01*
X166851973Y-82727611D01*
X166967182Y-82813857D01*
X166967189Y-82813861D01*
X167102035Y-82864155D01*
X167102034Y-82864155D01*
X167108962Y-82864899D01*
X167161645Y-82870564D01*
X168857390Y-82870563D01*
X168917001Y-82864155D01*
X169051849Y-82813860D01*
X169051854Y-82813855D01*
X169059627Y-82809612D01*
X169061163Y-82812425D01*
X169111848Y-82793497D01*
X169180127Y-82808319D01*
X169208428Y-82829496D01*
X169285164Y-82906232D01*
X169285168Y-82906235D01*
X169416271Y-82993836D01*
X169416284Y-82993843D01*
X169561955Y-83054181D01*
X169561960Y-83054183D01*
X169716610Y-83084945D01*
X169716613Y-83084946D01*
X169716615Y-83084946D01*
X169874301Y-83084946D01*
X169874302Y-83084945D01*
X170028954Y-83054183D01*
X170174636Y-82993840D01*
X170305746Y-82906235D01*
X170417246Y-82794735D01*
X170504851Y-82663625D01*
X170565194Y-82517943D01*
X170595957Y-82363288D01*
X170595957Y-82205604D01*
X170595957Y-82205601D01*
X170595956Y-82205599D01*
X170565195Y-82050956D01*
X170565194Y-82050949D01*
X170565192Y-82050944D01*
X170504854Y-81905273D01*
X170504847Y-81905260D01*
X170416855Y-81773571D01*
X170395977Y-81706893D01*
X170395957Y-81704680D01*
X170395957Y-71557951D01*
X170415642Y-71490912D01*
X170416855Y-71489060D01*
X170504847Y-71357371D01*
X170504847Y-71357370D01*
X170504851Y-71357365D01*
X170565194Y-71211683D01*
X170586435Y-71104899D01*
X170591688Y-71078494D01*
X170624073Y-71016583D01*
X170684789Y-70982009D01*
X170713305Y-70978686D01*
X172471925Y-70978686D01*
X172538964Y-70998371D01*
X172559606Y-71015005D01*
X173087707Y-71543106D01*
X173121192Y-71604429D01*
X173124026Y-71630787D01*
X173124026Y-74443721D01*
X173104341Y-74510760D01*
X173051537Y-74556515D01*
X173047489Y-74558277D01*
X172948638Y-74599224D01*
X172948635Y-74599225D01*
X172948627Y-74599229D01*
X172749908Y-74713960D01*
X172567864Y-74853649D01*
X172405607Y-75015906D01*
X172265918Y-75197950D01*
X172151183Y-75396677D01*
X172151176Y-75396691D01*
X172063368Y-75608680D01*
X172003979Y-75830327D01*
X172003977Y-75830338D01*
X171974026Y-76057826D01*
X171974026Y-76287309D01*
X171997034Y-76462060D01*
X172003978Y-76514806D01*
X172050871Y-76689814D01*
X172063368Y-76736455D01*
X172151176Y-76948444D01*
X172151183Y-76948458D01*
X172265918Y-77147185D01*
X172405607Y-77329229D01*
X172405615Y-77329238D01*
X172451764Y-77375387D01*
X172485249Y-77436710D01*
X172480265Y-77506402D01*
X172438393Y-77562335D01*
X172372929Y-77586752D01*
X172367493Y-77586946D01*
X172365949Y-77587067D01*
X172190969Y-77614782D01*
X172022486Y-77669524D01*
X172022483Y-77669525D01*
X171864635Y-77749954D01*
X171782864Y-77809364D01*
X171721312Y-77854085D01*
X171721310Y-77854087D01*
X171721309Y-77854087D01*
X171596045Y-77979351D01*
X171596045Y-77979352D01*
X171596043Y-77979354D01*
X171551322Y-78040906D01*
X171491912Y-78122677D01*
X171411483Y-78280525D01*
X171411482Y-78280528D01*
X171356740Y-78449011D01*
X171329026Y-78623989D01*
X171329026Y-78801146D01*
X171356740Y-78976124D01*
X171411482Y-79144607D01*
X171411483Y-79144610D01*
X171491908Y-79302450D01*
X171491912Y-79302458D01*
X171596043Y-79445782D01*
X171721312Y-79571051D01*
X171864636Y-79675182D01*
X171895245Y-79690778D01*
X172022483Y-79755610D01*
X172022486Y-79755611D01*
X172106727Y-79782982D01*
X172190971Y-79810354D01*
X172365947Y-79838068D01*
X172365948Y-79838068D01*
X172543104Y-79838068D01*
X172543105Y-79838068D01*
X172718081Y-79810354D01*
X172886568Y-79755610D01*
X172943731Y-79726483D01*
X173012399Y-79713587D01*
X173077139Y-79739862D01*
X173117397Y-79796968D01*
X173124026Y-79836968D01*
X173124026Y-93493737D01*
X173104341Y-93560776D01*
X173051537Y-93606531D01*
X173047489Y-93608293D01*
X172948638Y-93649240D01*
X172948635Y-93649241D01*
X172948627Y-93649245D01*
X172749908Y-93763976D01*
X172567864Y-93903665D01*
X172405607Y-94065922D01*
X172265918Y-94247966D01*
X172151183Y-94446693D01*
X172151176Y-94446707D01*
X172063368Y-94658696D01*
X172003979Y-94880343D01*
X172003977Y-94880354D01*
X171974026Y-95107842D01*
X171974026Y-95337325D01*
X171997035Y-95512084D01*
X172003978Y-95564822D01*
X172050873Y-95739838D01*
X172063368Y-95786471D01*
X172151176Y-95998460D01*
X172151183Y-95998474D01*
X172265918Y-96197201D01*
X172405607Y-96379245D01*
X172405615Y-96379254D01*
X172451764Y-96425403D01*
X172485249Y-96486726D01*
X172480265Y-96556418D01*
X172438393Y-96612351D01*
X172372929Y-96636768D01*
X172367493Y-96636962D01*
X172365949Y-96637083D01*
X172190969Y-96664798D01*
X172022486Y-96719540D01*
X172022483Y-96719541D01*
X171864635Y-96799970D01*
X171782864Y-96859380D01*
X171721312Y-96904101D01*
X171721310Y-96904103D01*
X171721309Y-96904103D01*
X171596045Y-97029367D01*
X171596045Y-97029368D01*
X171596043Y-97029370D01*
X171551322Y-97090922D01*
X171491912Y-97172693D01*
X171411483Y-97330541D01*
X171411482Y-97330544D01*
X171356740Y-97499027D01*
X171329026Y-97674005D01*
X171329026Y-97851162D01*
X171356740Y-98026140D01*
X171411482Y-98194623D01*
X171411483Y-98194626D01*
X171491912Y-98352474D01*
X171596043Y-98495798D01*
X171721312Y-98621067D01*
X171864636Y-98725198D01*
X171933103Y-98760084D01*
X172022483Y-98805626D01*
X172022486Y-98805627D01*
X172106727Y-98832998D01*
X172190971Y-98860370D01*
X172365947Y-98888084D01*
X172365948Y-98888084D01*
X172543104Y-98888084D01*
X172543105Y-98888084D01*
X172718081Y-98860370D01*
X172886568Y-98805626D01*
X173044416Y-98725198D01*
X173187740Y-98621067D01*
X173313009Y-98495798D01*
X173417140Y-98352474D01*
X173497568Y-98194626D01*
X173552312Y-98026139D01*
X173580026Y-97851163D01*
X173580026Y-97674005D01*
X173570691Y-97615070D01*
X175284026Y-97615070D01*
X175284026Y-97910097D01*
X175299304Y-98026139D01*
X175322533Y-98202577D01*
X175398887Y-98487535D01*
X175398890Y-98487545D01*
X175511780Y-98760084D01*
X175511784Y-98760094D01*
X175659287Y-99015577D01*
X175838878Y-99249624D01*
X175838884Y-99249631D01*
X176047478Y-99458225D01*
X176047485Y-99458231D01*
X176281532Y-99637822D01*
X176537015Y-99785325D01*
X176537016Y-99785325D01*
X176537019Y-99785327D01*
X176747822Y-99872644D01*
X176786817Y-99888797D01*
X176809574Y-99898223D01*
X177094533Y-99974577D01*
X177387020Y-100013084D01*
X177387027Y-100013084D01*
X177682025Y-100013084D01*
X177682032Y-100013084D01*
X177974519Y-99974577D01*
X178259478Y-99898223D01*
X178532033Y-99785327D01*
X178554744Y-99772215D01*
X185759034Y-99772215D01*
X185759034Y-101467950D01*
X185759035Y-101467956D01*
X185765442Y-101527563D01*
X185815736Y-101662408D01*
X185815740Y-101662415D01*
X185901986Y-101777624D01*
X185901989Y-101777627D01*
X186017198Y-101863873D01*
X186017205Y-101863877D01*
X186152051Y-101914171D01*
X186152050Y-101914171D01*
X186158978Y-101914915D01*
X186211661Y-101920580D01*
X187907406Y-101920579D01*
X187967017Y-101914171D01*
X188101865Y-101863876D01*
X188217080Y-101777626D01*
X188303330Y-101662411D01*
X188353625Y-101527563D01*
X188360034Y-101467953D01*
X188360033Y-99772208D01*
X188353625Y-99712597D01*
X188303330Y-99577749D01*
X188303329Y-99577748D01*
X188303327Y-99577744D01*
X188217081Y-99462535D01*
X188217078Y-99462532D01*
X188101869Y-99376286D01*
X188101862Y-99376282D01*
X187967016Y-99325988D01*
X187967017Y-99325988D01*
X187907417Y-99319581D01*
X187907415Y-99319580D01*
X187907407Y-99319580D01*
X187907398Y-99319580D01*
X186211663Y-99319580D01*
X186211657Y-99319581D01*
X186152050Y-99325988D01*
X186017205Y-99376282D01*
X186017198Y-99376286D01*
X185901989Y-99462532D01*
X185901986Y-99462535D01*
X185815740Y-99577744D01*
X185815736Y-99577751D01*
X185765442Y-99712597D01*
X185761221Y-99751865D01*
X185759035Y-99772203D01*
X185759034Y-99772215D01*
X178554744Y-99772215D01*
X178604862Y-99743279D01*
X178746511Y-99661499D01*
X178765966Y-99650265D01*
X178787520Y-99637822D01*
X179021568Y-99458230D01*
X179230172Y-99249626D01*
X179409764Y-99015578D01*
X179557269Y-98760091D01*
X179670165Y-98487536D01*
X179746519Y-98202577D01*
X179785026Y-97910090D01*
X179785026Y-97674005D01*
X181489026Y-97674005D01*
X181489026Y-97851162D01*
X181516740Y-98026140D01*
X181571482Y-98194623D01*
X181571483Y-98194626D01*
X181651912Y-98352474D01*
X181756043Y-98495798D01*
X181881312Y-98621067D01*
X182024636Y-98725198D01*
X182093103Y-98760084D01*
X182182483Y-98805626D01*
X182182486Y-98805627D01*
X182266727Y-98832998D01*
X182350971Y-98860370D01*
X182525947Y-98888084D01*
X182525948Y-98888084D01*
X182703104Y-98888084D01*
X182703105Y-98888084D01*
X182878081Y-98860370D01*
X183046568Y-98805626D01*
X183204416Y-98725198D01*
X183347740Y-98621067D01*
X183473009Y-98495798D01*
X183577140Y-98352474D01*
X183657568Y-98194626D01*
X183712312Y-98026139D01*
X183740026Y-97851163D01*
X183740026Y-97674005D01*
X183712312Y-97499029D01*
X183657568Y-97330542D01*
X183657568Y-97330541D01*
X183577139Y-97172693D01*
X183566044Y-97157422D01*
X183473009Y-97029370D01*
X183347740Y-96904101D01*
X183204416Y-96799970D01*
X183196479Y-96795926D01*
X183046568Y-96719541D01*
X183046565Y-96719540D01*
X182878082Y-96664798D01*
X182790593Y-96650941D01*
X182703105Y-96637084D01*
X182525947Y-96637084D01*
X182467621Y-96646322D01*
X182350969Y-96664798D01*
X182182486Y-96719540D01*
X182182483Y-96719541D01*
X182024635Y-96799970D01*
X181942864Y-96859380D01*
X181881312Y-96904101D01*
X181881310Y-96904103D01*
X181881309Y-96904103D01*
X181756045Y-97029367D01*
X181756045Y-97029368D01*
X181756043Y-97029370D01*
X181711322Y-97090922D01*
X181651912Y-97172693D01*
X181571483Y-97330541D01*
X181571482Y-97330544D01*
X181516740Y-97499027D01*
X181489026Y-97674005D01*
X179785026Y-97674005D01*
X179785026Y-97615078D01*
X179746519Y-97322591D01*
X179670165Y-97037632D01*
X179557269Y-96765077D01*
X179530979Y-96719542D01*
X179409764Y-96509590D01*
X179230173Y-96275543D01*
X179230167Y-96275536D01*
X179021573Y-96066942D01*
X179021566Y-96066936D01*
X178787519Y-95887345D01*
X178532036Y-95739842D01*
X178532026Y-95739838D01*
X178259487Y-95626948D01*
X178259480Y-95626946D01*
X178259478Y-95626945D01*
X177974519Y-95550591D01*
X177925639Y-95544155D01*
X177682039Y-95512084D01*
X177682032Y-95512084D01*
X177387020Y-95512084D01*
X177387012Y-95512084D01*
X177108611Y-95548737D01*
X177094533Y-95550591D01*
X176809574Y-95626945D01*
X176809564Y-95626948D01*
X176537025Y-95739838D01*
X176537015Y-95739842D01*
X176281532Y-95887345D01*
X176047485Y-96066936D01*
X176047478Y-96066942D01*
X175838884Y-96275536D01*
X175838878Y-96275543D01*
X175659287Y-96509590D01*
X175511784Y-96765073D01*
X175511780Y-96765083D01*
X175398890Y-97037622D01*
X175398887Y-97037632D01*
X175362698Y-97172694D01*
X175322534Y-97322588D01*
X175322532Y-97322599D01*
X175284026Y-97615070D01*
X173570691Y-97615070D01*
X173552312Y-97499029D01*
X173497568Y-97330542D01*
X173497568Y-97330541D01*
X173417139Y-97172693D01*
X173406044Y-97157422D01*
X173382564Y-97091616D01*
X173398389Y-97023562D01*
X173448494Y-96974867D01*
X173516972Y-96960991D01*
X173522503Y-96961592D01*
X173609792Y-96973084D01*
X173609799Y-96973084D01*
X173839253Y-96973084D01*
X173839260Y-96973084D01*
X174066764Y-96943132D01*
X174288413Y-96883742D01*
X174500414Y-96795928D01*
X174699138Y-96681195D01*
X174881187Y-96541503D01*
X174881191Y-96541498D01*
X174881196Y-96541495D01*
X175043437Y-96379254D01*
X175043440Y-96379249D01*
X175043445Y-96379245D01*
X175183137Y-96197196D01*
X175297870Y-95998472D01*
X175385684Y-95786471D01*
X175445074Y-95564822D01*
X175475026Y-95337318D01*
X175475026Y-95107850D01*
X175445074Y-94880346D01*
X175385684Y-94658697D01*
X175297870Y-94446696D01*
X175183137Y-94247972D01*
X175183134Y-94247969D01*
X175183133Y-94247966D01*
X175043444Y-94065922D01*
X175043437Y-94065914D01*
X174881196Y-93903673D01*
X174881187Y-93903665D01*
X174699143Y-93763976D01*
X174500424Y-93649245D01*
X174500417Y-93649242D01*
X174500414Y-93649240D01*
X174401571Y-93608297D01*
X174347169Y-93564456D01*
X174325105Y-93498161D01*
X174325026Y-93493737D01*
X174325026Y-92567842D01*
X178324026Y-92567842D01*
X178324026Y-92797325D01*
X178334473Y-92876670D01*
X178353978Y-93024822D01*
X178413368Y-93246471D01*
X178501176Y-93458460D01*
X178501183Y-93458474D01*
X178615918Y-93657201D01*
X178755607Y-93839245D01*
X178755615Y-93839254D01*
X178917856Y-94001495D01*
X178917864Y-94001502D01*
X179099908Y-94141191D01*
X179099911Y-94141192D01*
X179099914Y-94141195D01*
X179298638Y-94255928D01*
X179298643Y-94255930D01*
X179298649Y-94255933D01*
X179390006Y-94293774D01*
X179510639Y-94343742D01*
X179732288Y-94403132D01*
X179959792Y-94433084D01*
X179959799Y-94433084D01*
X180189253Y-94433084D01*
X180189260Y-94433084D01*
X180416764Y-94403132D01*
X180638413Y-94343742D01*
X180850414Y-94255928D01*
X181049138Y-94141195D01*
X181231187Y-94001503D01*
X181231191Y-94001498D01*
X181231196Y-94001495D01*
X181393437Y-93839254D01*
X181393440Y-93839249D01*
X181393445Y-93839245D01*
X181533137Y-93657196D01*
X181647870Y-93458472D01*
X181735684Y-93246471D01*
X181795074Y-93024822D01*
X181811807Y-92897728D01*
X185759034Y-92897728D01*
X185759034Y-93102431D01*
X185791056Y-93304614D01*
X185854315Y-93499303D01*
X185908953Y-93606534D01*
X185930715Y-93649245D01*
X185947249Y-93681693D01*
X186067562Y-93847293D01*
X186212320Y-93992051D01*
X186367283Y-94104636D01*
X186377924Y-94112367D01*
X186494141Y-94171583D01*
X186560310Y-94205298D01*
X186560312Y-94205298D01*
X186560315Y-94205300D01*
X186664671Y-94239207D01*
X186754999Y-94268557D01*
X186856091Y-94284568D01*
X186957182Y-94300580D01*
X186957183Y-94300580D01*
X187161885Y-94300580D01*
X187161886Y-94300580D01*
X187364068Y-94268557D01*
X187558753Y-94205300D01*
X187741144Y-94112367D01*
X187834124Y-94044812D01*
X187906747Y-93992051D01*
X187906749Y-93992048D01*
X187906753Y-93992046D01*
X188051500Y-93847299D01*
X188051502Y-93847295D01*
X188051505Y-93847293D01*
X188112039Y-93763973D01*
X188171821Y-93681690D01*
X188264754Y-93499299D01*
X188328011Y-93304614D01*
X188360034Y-93102432D01*
X188360034Y-92897728D01*
X188356699Y-92876670D01*
X188328011Y-92695545D01*
X188264752Y-92500856D01*
X188182967Y-92340346D01*
X188171821Y-92318470D01*
X188164090Y-92307829D01*
X188051505Y-92152866D01*
X187906747Y-92008108D01*
X187741147Y-91887795D01*
X187741146Y-91887794D01*
X187741144Y-91887793D01*
X187684187Y-91858771D01*
X187558757Y-91794861D01*
X187364068Y-91731602D01*
X187189529Y-91703958D01*
X187161886Y-91699580D01*
X186957182Y-91699580D01*
X186932863Y-91703431D01*
X186754999Y-91731602D01*
X186560310Y-91794861D01*
X186377920Y-91887795D01*
X186212320Y-92008108D01*
X186067562Y-92152866D01*
X185947249Y-92318466D01*
X185854315Y-92500856D01*
X185791056Y-92695545D01*
X185759034Y-92897728D01*
X181811807Y-92897728D01*
X181825026Y-92797318D01*
X181825026Y-92567850D01*
X181795074Y-92340346D01*
X181735684Y-92118697D01*
X181647870Y-91906696D01*
X181533137Y-91707972D01*
X181533134Y-91707969D01*
X181533133Y-91707966D01*
X181393444Y-91525922D01*
X181393437Y-91525914D01*
X181231196Y-91363673D01*
X181231187Y-91363665D01*
X181049143Y-91223976D01*
X180850416Y-91109241D01*
X180850402Y-91109234D01*
X180638413Y-91021426D01*
X180416764Y-90962036D01*
X180378741Y-90957030D01*
X180189267Y-90932084D01*
X180189260Y-90932084D01*
X179959792Y-90932084D01*
X179959784Y-90932084D01*
X179743241Y-90960593D01*
X179732288Y-90962036D01*
X179638602Y-90987138D01*
X179510638Y-91021426D01*
X179298649Y-91109234D01*
X179298635Y-91109241D01*
X179099908Y-91223976D01*
X178917864Y-91363665D01*
X178755607Y-91525922D01*
X178615918Y-91707966D01*
X178501183Y-91906693D01*
X178501176Y-91906707D01*
X178413368Y-92118696D01*
X178353979Y-92340343D01*
X178353977Y-92340354D01*
X178324026Y-92567842D01*
X174325026Y-92567842D01*
X174325026Y-78565054D01*
X175284026Y-78565054D01*
X175284026Y-78860081D01*
X175299303Y-78976115D01*
X175322533Y-79152561D01*
X175398887Y-79437520D01*
X175398888Y-79437522D01*
X175398890Y-79437529D01*
X175511780Y-79710068D01*
X175511784Y-79710078D01*
X175659287Y-79965561D01*
X175838878Y-80199608D01*
X175838884Y-80199615D01*
X176047478Y-80408209D01*
X176047485Y-80408215D01*
X176281532Y-80587806D01*
X176537015Y-80735309D01*
X176537016Y-80735309D01*
X176537019Y-80735311D01*
X176747822Y-80822628D01*
X176809554Y-80848199D01*
X176809574Y-80848207D01*
X177094533Y-80924561D01*
X177372941Y-80961214D01*
X177386951Y-80963059D01*
X177387020Y-80963068D01*
X177387027Y-80963068D01*
X177682025Y-80963068D01*
X177682032Y-80963068D01*
X177974519Y-80924561D01*
X178259478Y-80848207D01*
X178532033Y-80735311D01*
X178554744Y-80722199D01*
X185759034Y-80722199D01*
X185759034Y-82417934D01*
X185759035Y-82417940D01*
X185765442Y-82477547D01*
X185815736Y-82612392D01*
X185815740Y-82612399D01*
X185901986Y-82727608D01*
X185901989Y-82727611D01*
X186017198Y-82813857D01*
X186017205Y-82813861D01*
X186152051Y-82864155D01*
X186152050Y-82864155D01*
X186158978Y-82864899D01*
X186211661Y-82870564D01*
X187907406Y-82870563D01*
X187967017Y-82864155D01*
X188101865Y-82813860D01*
X188217080Y-82727610D01*
X188303330Y-82612395D01*
X188353625Y-82477547D01*
X188360034Y-82417937D01*
X188360033Y-80722192D01*
X188353625Y-80662581D01*
X188303330Y-80527733D01*
X188303329Y-80527732D01*
X188303327Y-80527728D01*
X188217081Y-80412519D01*
X188217078Y-80412516D01*
X188101869Y-80326270D01*
X188101862Y-80326266D01*
X187967016Y-80275972D01*
X187967017Y-80275972D01*
X187907417Y-80269565D01*
X187907415Y-80269564D01*
X187907407Y-80269564D01*
X187907398Y-80269564D01*
X186211663Y-80269564D01*
X186211657Y-80269565D01*
X186152050Y-80275972D01*
X186017205Y-80326266D01*
X186017198Y-80326270D01*
X185901989Y-80412516D01*
X185901986Y-80412519D01*
X185815740Y-80527728D01*
X185815736Y-80527735D01*
X185765442Y-80662581D01*
X185759035Y-80722180D01*
X185759035Y-80722187D01*
X185759034Y-80722199D01*
X178554744Y-80722199D01*
X178604862Y-80693263D01*
X178746511Y-80611483D01*
X178765966Y-80600249D01*
X178787520Y-80587806D01*
X179021568Y-80408214D01*
X179230172Y-80199610D01*
X179409764Y-79965562D01*
X179557269Y-79710075D01*
X179670165Y-79437520D01*
X179746519Y-79152561D01*
X179785026Y-78860074D01*
X179785026Y-78623989D01*
X181489026Y-78623989D01*
X181489026Y-78801146D01*
X181516740Y-78976124D01*
X181571482Y-79144607D01*
X181571483Y-79144610D01*
X181651908Y-79302450D01*
X181651912Y-79302458D01*
X181756043Y-79445782D01*
X181881312Y-79571051D01*
X182024636Y-79675182D01*
X182055245Y-79690778D01*
X182182483Y-79755610D01*
X182182486Y-79755611D01*
X182266727Y-79782982D01*
X182350971Y-79810354D01*
X182525947Y-79838068D01*
X182525948Y-79838068D01*
X182703104Y-79838068D01*
X182703105Y-79838068D01*
X182878081Y-79810354D01*
X183046568Y-79755610D01*
X183204416Y-79675182D01*
X183347740Y-79571051D01*
X183473009Y-79445782D01*
X183577140Y-79302458D01*
X183657568Y-79144610D01*
X183712312Y-78976123D01*
X183740026Y-78801147D01*
X183740026Y-78623989D01*
X183712312Y-78449013D01*
X183657568Y-78280526D01*
X183657568Y-78280525D01*
X183577139Y-78122677D01*
X183577133Y-78122669D01*
X183473009Y-77979354D01*
X183347740Y-77854085D01*
X183204416Y-77749954D01*
X183196477Y-77745909D01*
X183046568Y-77669525D01*
X183046565Y-77669524D01*
X182878082Y-77614782D01*
X182790593Y-77600925D01*
X182703105Y-77587068D01*
X182525947Y-77587068D01*
X182467621Y-77596306D01*
X182350969Y-77614782D01*
X182182486Y-77669524D01*
X182182483Y-77669525D01*
X182024635Y-77749954D01*
X181942864Y-77809364D01*
X181881312Y-77854085D01*
X181881310Y-77854087D01*
X181881309Y-77854087D01*
X181756045Y-77979351D01*
X181756045Y-77979352D01*
X181756043Y-77979354D01*
X181711322Y-78040906D01*
X181651912Y-78122677D01*
X181571483Y-78280525D01*
X181571482Y-78280528D01*
X181516740Y-78449011D01*
X181489026Y-78623989D01*
X179785026Y-78623989D01*
X179785026Y-78565062D01*
X179746519Y-78272575D01*
X179670165Y-77987616D01*
X179666739Y-77979346D01*
X179614855Y-77854087D01*
X179557269Y-77715061D01*
X179557264Y-77715053D01*
X179409764Y-77459574D01*
X179230173Y-77225527D01*
X179230167Y-77225520D01*
X179021573Y-77016926D01*
X179021566Y-77016920D01*
X178787519Y-76837329D01*
X178532036Y-76689826D01*
X178532026Y-76689822D01*
X178259487Y-76576932D01*
X178259480Y-76576930D01*
X178259478Y-76576929D01*
X177974519Y-76500575D01*
X177925639Y-76494139D01*
X177682039Y-76462068D01*
X177682032Y-76462068D01*
X177387020Y-76462068D01*
X177387012Y-76462068D01*
X177108611Y-76498721D01*
X177094533Y-76500575D01*
X176809604Y-76576921D01*
X176809574Y-76576929D01*
X176809564Y-76576932D01*
X176537025Y-76689822D01*
X176537015Y-76689826D01*
X176281532Y-76837329D01*
X176047485Y-77016920D01*
X176047478Y-77016926D01*
X175838884Y-77225520D01*
X175838878Y-77225527D01*
X175659287Y-77459574D01*
X175511784Y-77715057D01*
X175511780Y-77715067D01*
X175398890Y-77987606D01*
X175398887Y-77987616D01*
X175362698Y-78122678D01*
X175322534Y-78272572D01*
X175322532Y-78272583D01*
X175284026Y-78565054D01*
X174325026Y-78565054D01*
X174325026Y-77901414D01*
X174344711Y-77834375D01*
X174397515Y-77788620D01*
X174401574Y-77786853D01*
X174500402Y-77745917D01*
X174500402Y-77745916D01*
X174500414Y-77745912D01*
X174699138Y-77631179D01*
X174881187Y-77491487D01*
X174881191Y-77491482D01*
X174881196Y-77491479D01*
X175043437Y-77329238D01*
X175043440Y-77329233D01*
X175043445Y-77329229D01*
X175183137Y-77147180D01*
X175297870Y-76948456D01*
X175385684Y-76736455D01*
X175445074Y-76514806D01*
X175475026Y-76287302D01*
X175475026Y-76057834D01*
X175445074Y-75830330D01*
X175385684Y-75608681D01*
X175297870Y-75396680D01*
X175183137Y-75197956D01*
X175183134Y-75197953D01*
X175183133Y-75197950D01*
X175043444Y-75015906D01*
X175043437Y-75015898D01*
X174881196Y-74853657D01*
X174881187Y-74853649D01*
X174699143Y-74713960D01*
X174500424Y-74599229D01*
X174500419Y-74599227D01*
X174500414Y-74599224D01*
X174401571Y-74558281D01*
X174347169Y-74514440D01*
X174325105Y-74448145D01*
X174325026Y-74443721D01*
X174325026Y-73517826D01*
X178324026Y-73517826D01*
X178324026Y-73747309D01*
X178334473Y-73826654D01*
X178353978Y-73974806D01*
X178413366Y-74196447D01*
X178413368Y-74196455D01*
X178501176Y-74408444D01*
X178501183Y-74408458D01*
X178615918Y-74607185D01*
X178755607Y-74789229D01*
X178755615Y-74789238D01*
X178917856Y-74951479D01*
X178917864Y-74951486D01*
X179099908Y-75091175D01*
X179099911Y-75091176D01*
X179099914Y-75091179D01*
X179298638Y-75205912D01*
X179298643Y-75205914D01*
X179298649Y-75205917D01*
X179390006Y-75243758D01*
X179510639Y-75293726D01*
X179732288Y-75353116D01*
X179948838Y-75381625D01*
X179959723Y-75383059D01*
X179959792Y-75383068D01*
X179959799Y-75383068D01*
X180189253Y-75383068D01*
X180189260Y-75383068D01*
X180416764Y-75353116D01*
X180638413Y-75293726D01*
X180850414Y-75205912D01*
X181049138Y-75091179D01*
X181231187Y-74951487D01*
X181231191Y-74951482D01*
X181231196Y-74951479D01*
X181393437Y-74789238D01*
X181393440Y-74789233D01*
X181393445Y-74789229D01*
X181533137Y-74607180D01*
X181647870Y-74408456D01*
X181735684Y-74196455D01*
X181795074Y-73974806D01*
X181811807Y-73847712D01*
X185759034Y-73847712D01*
X185759034Y-74052415D01*
X185791056Y-74254598D01*
X185854315Y-74449287D01*
X185909848Y-74558274D01*
X185930715Y-74599229D01*
X185947249Y-74631677D01*
X186067562Y-74797277D01*
X186212320Y-74942035D01*
X186367283Y-75054620D01*
X186377924Y-75062351D01*
X186494141Y-75121567D01*
X186560310Y-75155282D01*
X186560312Y-75155282D01*
X186560315Y-75155284D01*
X186664671Y-75189191D01*
X186754999Y-75218541D01*
X186856091Y-75234552D01*
X186957182Y-75250564D01*
X186957183Y-75250564D01*
X187161885Y-75250564D01*
X187161886Y-75250564D01*
X187364068Y-75218541D01*
X187558753Y-75155284D01*
X187741144Y-75062351D01*
X187834124Y-74994796D01*
X187906747Y-74942035D01*
X187906749Y-74942032D01*
X187906753Y-74942030D01*
X188051500Y-74797283D01*
X188051502Y-74797279D01*
X188051505Y-74797277D01*
X188112045Y-74713949D01*
X188171821Y-74631674D01*
X188264754Y-74449283D01*
X188328011Y-74254598D01*
X188360034Y-74052416D01*
X188360034Y-73847712D01*
X188356699Y-73826653D01*
X188328011Y-73645529D01*
X188264752Y-73450840D01*
X188182967Y-73290330D01*
X188171821Y-73268454D01*
X188164090Y-73257813D01*
X188051505Y-73102850D01*
X187906747Y-72958092D01*
X187741147Y-72837779D01*
X187741146Y-72837778D01*
X187741144Y-72837777D01*
X187684187Y-72808755D01*
X187558757Y-72744845D01*
X187364068Y-72681586D01*
X187189529Y-72653942D01*
X187161886Y-72649564D01*
X186957182Y-72649564D01*
X186932863Y-72653415D01*
X186754999Y-72681586D01*
X186560310Y-72744845D01*
X186377920Y-72837779D01*
X186212320Y-72958092D01*
X186067562Y-73102850D01*
X185947249Y-73268450D01*
X185854315Y-73450840D01*
X185791056Y-73645529D01*
X185759034Y-73847712D01*
X181811807Y-73847712D01*
X181825026Y-73747302D01*
X181825026Y-73517834D01*
X181795074Y-73290330D01*
X181735684Y-73068681D01*
X181647870Y-72856680D01*
X181533137Y-72657956D01*
X181533134Y-72657953D01*
X181533133Y-72657950D01*
X181393444Y-72475906D01*
X181393437Y-72475898D01*
X181231196Y-72313657D01*
X181231187Y-72313649D01*
X181049143Y-72173960D01*
X180850416Y-72059225D01*
X180850402Y-72059218D01*
X180638413Y-71971410D01*
X180638383Y-71971402D01*
X180416764Y-71912020D01*
X180378741Y-71907014D01*
X180189267Y-71882068D01*
X180189260Y-71882068D01*
X179959792Y-71882068D01*
X179959784Y-71882068D01*
X179743241Y-71910577D01*
X179732288Y-71912020D01*
X179638602Y-71937122D01*
X179510638Y-71971410D01*
X179298649Y-72059218D01*
X179298635Y-72059225D01*
X179099908Y-72173960D01*
X178917864Y-72313649D01*
X178755607Y-72475906D01*
X178615918Y-72657950D01*
X178501183Y-72856677D01*
X178501176Y-72856691D01*
X178413368Y-73068680D01*
X178353979Y-73290327D01*
X178353977Y-73290338D01*
X178324026Y-73517826D01*
X174325026Y-73517826D01*
X174325026Y-71251635D01*
X174325026Y-71251633D01*
X174284103Y-71098905D01*
X174251396Y-71042255D01*
X174251396Y-71042254D01*
X174205050Y-70961980D01*
X174205047Y-70961976D01*
X174205046Y-70961974D01*
X174093242Y-70850170D01*
X174093241Y-70850169D01*
X174088911Y-70845839D01*
X174088900Y-70845829D01*
X173259612Y-70016541D01*
X173259610Y-70016538D01*
X173140739Y-69897667D01*
X173140738Y-69897666D01*
X173053926Y-69847546D01*
X173053926Y-69847545D01*
X173053922Y-69847544D01*
X173003807Y-69818609D01*
X172851079Y-69777685D01*
X172692965Y-69777685D01*
X172685369Y-69777685D01*
X172685353Y-69777686D01*
X166546114Y-69777686D01*
X166479075Y-69758001D01*
X166433320Y-69705197D01*
X166424497Y-69677878D01*
X166398004Y-69544694D01*
X166398003Y-69544693D01*
X166398003Y-69544689D01*
X166396260Y-69540481D01*
X166337663Y-69399013D01*
X166337656Y-69399000D01*
X166250055Y-69267897D01*
X166250052Y-69267893D01*
X166138558Y-69156399D01*
X166138554Y-69156396D01*
X166007451Y-69068795D01*
X166007438Y-69068788D01*
X165861767Y-69008450D01*
X165861757Y-69008447D01*
X165706415Y-68977547D01*
X165644504Y-68945162D01*
X165642926Y-68943611D01*
X165074459Y-68375144D01*
X165040974Y-68313821D01*
X165038140Y-68287463D01*
X165038140Y-68242376D01*
X165057825Y-68175337D01*
X165110629Y-68129582D01*
X165179787Y-68119638D01*
X165234264Y-68143537D01*
X165234919Y-68142544D01*
X165240166Y-68146002D01*
X165240169Y-68146003D01*
X165240172Y-68146006D01*
X165420530Y-68240217D01*
X165616161Y-68296194D01*
X165735542Y-68306808D01*
X167601615Y-68306807D01*
X167720997Y-68296194D01*
X167916628Y-68240217D01*
X168096986Y-68146006D01*
X168254688Y-68017417D01*
X168383277Y-67859715D01*
X168477488Y-67679357D01*
X168533465Y-67483726D01*
X168544079Y-67364345D01*
X168544078Y-66248272D01*
X168533465Y-66128890D01*
X168477488Y-65933259D01*
X168383277Y-65752901D01*
X168270562Y-65614667D01*
X168243454Y-65550273D01*
X168255463Y-65481443D01*
X168270560Y-65457950D01*
X168383277Y-65319715D01*
X168477488Y-65139357D01*
X168533465Y-64943726D01*
X168544079Y-64824345D01*
X168544078Y-64244603D01*
X168544078Y-63708279D01*
X168544078Y-63708272D01*
X168533465Y-63588890D01*
X168477488Y-63393259D01*
X168383277Y-63212901D01*
X168270562Y-63074667D01*
X168243454Y-63010273D01*
X168255463Y-62941443D01*
X168269416Y-62919376D01*
X168269985Y-62918655D01*
X168334960Y-62838971D01*
X175684526Y-62838971D01*
X175684526Y-63114254D01*
X175720456Y-63387178D01*
X175791706Y-63653084D01*
X175897046Y-63907400D01*
X175897053Y-63907415D01*
X176034689Y-64145809D01*
X176133284Y-64274299D01*
X176705049Y-63702534D01*
X176792941Y-63823506D01*
X176937633Y-63968198D01*
X177058603Y-64056088D01*
X176486838Y-64627853D01*
X176615330Y-64726449D01*
X176853723Y-64864085D01*
X176853738Y-64864092D01*
X177108054Y-64969432D01*
X177373960Y-65040682D01*
X177646884Y-65076613D01*
X177922168Y-65076613D01*
X178195091Y-65040682D01*
X178460997Y-64969432D01*
X178715313Y-64864092D01*
X178715328Y-64864085D01*
X178953720Y-64726449D01*
X178953737Y-64726438D01*
X179082212Y-64627854D01*
X179082212Y-64627852D01*
X178510448Y-64056088D01*
X178631419Y-63968198D01*
X178776111Y-63823506D01*
X178864001Y-63702535D01*
X179435765Y-64274299D01*
X179435767Y-64274299D01*
X179534351Y-64145824D01*
X179534362Y-64145807D01*
X179671998Y-63907415D01*
X179672005Y-63907400D01*
X179777345Y-63653084D01*
X179848595Y-63387178D01*
X179884526Y-63114254D01*
X179884526Y-62838971D01*
X179848595Y-62566047D01*
X179777345Y-62300141D01*
X179672005Y-62045825D01*
X179671998Y-62045810D01*
X179534362Y-61807417D01*
X179435766Y-61678925D01*
X178864001Y-62250690D01*
X178776111Y-62129720D01*
X178631419Y-61985028D01*
X178510447Y-61897136D01*
X179082212Y-61325371D01*
X178953722Y-61226776D01*
X178715328Y-61089140D01*
X178715313Y-61089133D01*
X178460997Y-60983793D01*
X178195091Y-60912543D01*
X177922168Y-60876613D01*
X177646884Y-60876613D01*
X177373960Y-60912543D01*
X177108054Y-60983793D01*
X176853738Y-61089133D01*
X176853723Y-61089140D01*
X176615325Y-61226779D01*
X176486838Y-61325370D01*
X176486838Y-61325371D01*
X177058604Y-61897137D01*
X176937633Y-61985028D01*
X176792941Y-62129720D01*
X176705050Y-62250691D01*
X176133284Y-61678925D01*
X176133283Y-61678925D01*
X176034692Y-61807412D01*
X175897053Y-62045810D01*
X175897046Y-62045825D01*
X175791706Y-62300141D01*
X175720456Y-62566047D01*
X175684526Y-62838971D01*
X168334960Y-62838971D01*
X168383277Y-62779715D01*
X168477488Y-62599357D01*
X168533465Y-62403726D01*
X168544079Y-62284345D01*
X168544078Y-61168272D01*
X168533465Y-61048890D01*
X168477488Y-60853259D01*
X168383277Y-60672901D01*
X168270562Y-60534667D01*
X168243454Y-60470273D01*
X168255463Y-60401443D01*
X168270560Y-60377950D01*
X168383277Y-60239715D01*
X168477488Y-60059357D01*
X168533465Y-59863726D01*
X168544079Y-59744345D01*
X168544078Y-58628272D01*
X168533465Y-58508890D01*
X168477488Y-58313259D01*
X168383277Y-58132901D01*
X168270562Y-57994667D01*
X168243454Y-57930273D01*
X168255463Y-57861443D01*
X168270560Y-57837950D01*
X168383277Y-57699715D01*
X168477488Y-57519357D01*
X168533465Y-57323726D01*
X168544079Y-57204345D01*
X168544078Y-56088272D01*
X168533465Y-55968890D01*
X168477488Y-55773259D01*
X168383277Y-55592901D01*
X168270562Y-55454667D01*
X168243454Y-55390273D01*
X168255463Y-55321443D01*
X168270560Y-55297950D01*
X168383277Y-55159715D01*
X168477488Y-54979357D01*
X168533465Y-54783726D01*
X168536513Y-54749438D01*
X168562056Y-54684407D01*
X168618705Y-54643507D01*
X168688472Y-54639727D01*
X168749208Y-54674265D01*
X168781629Y-54736158D01*
X168784026Y-54760420D01*
X168784026Y-55924483D01*
X168784027Y-55924489D01*
X168790434Y-55984096D01*
X168840728Y-56118941D01*
X168840732Y-56118948D01*
X168926978Y-56234157D01*
X168926979Y-56234157D01*
X168926980Y-56234159D01*
X168970469Y-56266715D01*
X169045125Y-56322603D01*
X169086995Y-56378537D01*
X169091979Y-56448228D01*
X169071131Y-56494754D01*
X169001613Y-56590437D01*
X168894423Y-56800810D01*
X168821460Y-57025365D01*
X168791295Y-57215814D01*
X168784526Y-57299788D01*
X168784526Y-57494665D01*
X168821460Y-57727860D01*
X168894423Y-57952415D01*
X169001613Y-58162787D01*
X169061864Y-58245717D01*
X169061866Y-58245718D01*
X169801563Y-57506021D01*
X169818601Y-57569606D01*
X169884427Y-57683620D01*
X169977519Y-57776712D01*
X170091533Y-57842538D01*
X170155116Y-57859575D01*
X169408806Y-58605884D01*
X169399631Y-58649560D01*
X169363265Y-58691228D01*
X169307016Y-58732095D01*
X169140011Y-58899100D01*
X169140011Y-58899101D01*
X169140009Y-58899103D01*
X169080388Y-58981163D01*
X169001183Y-59090179D01*
X168893959Y-59300616D01*
X168820973Y-59525243D01*
X168791818Y-59709313D01*
X168791817Y-59709326D01*
X168784026Y-59758521D01*
X168784026Y-59994705D01*
X168784175Y-59995646D01*
X168784175Y-59995651D01*
X168820972Y-60227981D01*
X168893959Y-60452609D01*
X168939678Y-60542336D01*
X169001183Y-60663046D01*
X169140009Y-60854123D01*
X169307016Y-61021130D01*
X169498093Y-61159956D01*
X169568178Y-61195666D01*
X169708529Y-61267179D01*
X169708531Y-61267179D01*
X169708534Y-61267181D01*
X169824027Y-61304707D01*
X169933157Y-61340166D01*
X170166429Y-61377113D01*
X170166434Y-61377113D01*
X170402623Y-61377113D01*
X170635894Y-61340166D01*
X170681431Y-61325370D01*
X170860518Y-61267181D01*
X171070959Y-61159956D01*
X171262036Y-61021130D01*
X171429043Y-60854123D01*
X171567869Y-60663046D01*
X171675094Y-60452605D01*
X171748079Y-60227981D01*
X171749006Y-60222128D01*
X171785026Y-59994710D01*
X171785026Y-59758515D01*
X183284026Y-59758515D01*
X183284026Y-59994710D01*
X183320972Y-60227981D01*
X183393959Y-60452609D01*
X183439678Y-60542336D01*
X183501183Y-60663046D01*
X183640009Y-60854123D01*
X183807016Y-61021130D01*
X183998093Y-61159956D01*
X184068178Y-61195666D01*
X184208529Y-61267179D01*
X184208531Y-61267179D01*
X184208534Y-61267181D01*
X184324027Y-61304707D01*
X184433157Y-61340166D01*
X184666429Y-61377113D01*
X184666434Y-61377113D01*
X184902623Y-61377113D01*
X185135894Y-61340166D01*
X185181431Y-61325370D01*
X185360518Y-61267181D01*
X185570959Y-61159956D01*
X185762036Y-61021130D01*
X185929043Y-60854123D01*
X186067869Y-60663046D01*
X186175094Y-60452605D01*
X186248079Y-60227981D01*
X186249006Y-60222128D01*
X186285026Y-59994710D01*
X186285026Y-59758515D01*
X186248079Y-59525244D01*
X186175092Y-59300616D01*
X186067868Y-59090179D01*
X185929043Y-58899103D01*
X185762036Y-58732096D01*
X185570959Y-58593270D01*
X185360522Y-58486046D01*
X185135894Y-58413059D01*
X184902623Y-58376113D01*
X184902618Y-58376113D01*
X184666434Y-58376113D01*
X184666429Y-58376113D01*
X184433157Y-58413059D01*
X184208529Y-58486046D01*
X183998092Y-58593270D01*
X183889076Y-58672475D01*
X183807016Y-58732096D01*
X183807014Y-58732098D01*
X183807013Y-58732098D01*
X183640011Y-58899100D01*
X183640011Y-58899101D01*
X183640009Y-58899103D01*
X183580388Y-58981163D01*
X183501183Y-59090179D01*
X183393959Y-59300616D01*
X183320972Y-59525244D01*
X183284026Y-59758515D01*
X171785026Y-59758515D01*
X171748079Y-59525244D01*
X171675092Y-59300616D01*
X171567868Y-59090179D01*
X171429043Y-58899103D01*
X171262036Y-58732096D01*
X171205785Y-58691227D01*
X171163121Y-58635897D01*
X171158428Y-58604068D01*
X170413934Y-57859575D01*
X170477519Y-57842538D01*
X170591533Y-57776712D01*
X170684625Y-57683620D01*
X170750451Y-57569606D01*
X170767488Y-57506022D01*
X171507184Y-58245718D01*
X171507184Y-58245717D01*
X171567440Y-58162782D01*
X171567444Y-58162776D01*
X171674628Y-57952415D01*
X171747591Y-57727860D01*
X171784526Y-57494665D01*
X171784526Y-57258560D01*
X171747591Y-57025365D01*
X171674628Y-56800810D01*
X171567440Y-56590441D01*
X171497920Y-56494755D01*
X171474440Y-56428948D01*
X171490265Y-56360894D01*
X171523927Y-56322602D01*
X171526855Y-56320409D01*
X171526857Y-56320409D01*
X171642072Y-56234159D01*
X171728322Y-56118944D01*
X171778617Y-55984096D01*
X171785026Y-55924486D01*
X171785025Y-54758560D01*
X183284526Y-54758560D01*
X183284526Y-54994665D01*
X183321460Y-55227860D01*
X183394423Y-55452415D01*
X183501613Y-55662787D01*
X183561864Y-55745717D01*
X183561866Y-55745718D01*
X184301563Y-55006021D01*
X184318601Y-55069606D01*
X184384427Y-55183620D01*
X184477519Y-55276712D01*
X184591533Y-55342538D01*
X184655116Y-55359575D01*
X183915419Y-56099271D01*
X183998354Y-56159527D01*
X184208723Y-56266715D01*
X184433278Y-56339678D01*
X184433277Y-56339678D01*
X184666474Y-56376613D01*
X184902578Y-56376613D01*
X185135773Y-56339678D01*
X185360328Y-56266715D01*
X185570689Y-56159531D01*
X185570695Y-56159527D01*
X185653630Y-56099271D01*
X185653631Y-56099271D01*
X184913934Y-55359575D01*
X184977519Y-55342538D01*
X185091533Y-55276712D01*
X185184625Y-55183620D01*
X185250451Y-55069606D01*
X185267488Y-55006021D01*
X186007184Y-55745718D01*
X186007184Y-55745717D01*
X186067440Y-55662782D01*
X186067444Y-55662776D01*
X186174628Y-55452415D01*
X186247591Y-55227860D01*
X186284526Y-54994665D01*
X186284526Y-54758560D01*
X186247591Y-54525365D01*
X186174628Y-54300810D01*
X186067440Y-54090441D01*
X186007184Y-54007507D01*
X186007184Y-54007506D01*
X185267488Y-54747203D01*
X185250451Y-54683620D01*
X185184625Y-54569606D01*
X185091533Y-54476514D01*
X184977519Y-54410688D01*
X184913935Y-54393650D01*
X185653631Y-53653953D01*
X185653630Y-53653951D01*
X185570700Y-53593700D01*
X185360328Y-53486510D01*
X185135773Y-53413547D01*
X185135774Y-53413547D01*
X184902578Y-53376613D01*
X184666474Y-53376613D01*
X184433278Y-53413547D01*
X184208723Y-53486510D01*
X183998356Y-53593697D01*
X183915420Y-53653953D01*
X184655117Y-54393650D01*
X184591533Y-54410688D01*
X184477519Y-54476514D01*
X184384427Y-54569606D01*
X184318601Y-54683620D01*
X184301563Y-54747204D01*
X183561866Y-54007507D01*
X183501610Y-54090443D01*
X183394423Y-54300810D01*
X183321460Y-54525365D01*
X183284526Y-54758560D01*
X171785025Y-54758560D01*
X171785025Y-53828741D01*
X171779825Y-53780370D01*
X171778617Y-53769129D01*
X171728323Y-53634284D01*
X171728319Y-53634277D01*
X171667061Y-53552448D01*
X171642072Y-53519067D01*
X171526857Y-53432817D01*
X171526854Y-53432815D01*
X171392008Y-53382521D01*
X171392009Y-53382521D01*
X171332409Y-53376114D01*
X171332407Y-53376113D01*
X171332399Y-53376113D01*
X171332391Y-53376113D01*
X169684623Y-53376113D01*
X169617584Y-53356428D01*
X169596942Y-53339794D01*
X168571765Y-52314617D01*
X168538280Y-52253294D01*
X168535933Y-52215961D01*
X168544079Y-52124345D01*
X168544078Y-51638971D01*
X175684526Y-51638971D01*
X175684526Y-51914254D01*
X175720456Y-52187178D01*
X175791706Y-52453084D01*
X175897046Y-52707400D01*
X175897053Y-52707415D01*
X176034689Y-52945809D01*
X176133284Y-53074299D01*
X176705049Y-52502534D01*
X176792941Y-52623506D01*
X176937633Y-52768198D01*
X177058603Y-52856088D01*
X176486838Y-53427853D01*
X176615330Y-53526449D01*
X176853723Y-53664085D01*
X176853738Y-53664092D01*
X177108054Y-53769432D01*
X177373960Y-53840682D01*
X177646884Y-53876613D01*
X177922168Y-53876613D01*
X178195091Y-53840682D01*
X178460997Y-53769432D01*
X178715313Y-53664092D01*
X178715328Y-53664085D01*
X178837023Y-53593825D01*
X178953720Y-53526449D01*
X178953737Y-53526438D01*
X179082212Y-53427854D01*
X179082212Y-53427852D01*
X178510448Y-52856088D01*
X178631419Y-52768198D01*
X178776111Y-52623506D01*
X178864001Y-52502535D01*
X179435765Y-53074299D01*
X179435767Y-53074299D01*
X179534351Y-52945824D01*
X179534362Y-52945807D01*
X179671998Y-52707415D01*
X179672005Y-52707400D01*
X179777345Y-52453084D01*
X179848595Y-52187178D01*
X179884526Y-51914254D01*
X179884526Y-51638971D01*
X179848595Y-51366047D01*
X179777345Y-51100141D01*
X179672005Y-50845825D01*
X179671998Y-50845810D01*
X179534362Y-50607417D01*
X179435766Y-50478925D01*
X178864001Y-51050690D01*
X178776111Y-50929720D01*
X178631419Y-50785028D01*
X178510447Y-50697136D01*
X179082212Y-50125371D01*
X178953722Y-50026776D01*
X178715328Y-49889140D01*
X178715313Y-49889133D01*
X178460997Y-49783793D01*
X178195091Y-49712543D01*
X177922168Y-49676613D01*
X177646884Y-49676613D01*
X177373960Y-49712543D01*
X177108054Y-49783793D01*
X176853738Y-49889133D01*
X176853723Y-49889140D01*
X176615325Y-50026779D01*
X176486838Y-50125370D01*
X176486838Y-50125371D01*
X177058604Y-50697137D01*
X176937633Y-50785028D01*
X176792941Y-50929720D01*
X176705050Y-51050691D01*
X176133284Y-50478925D01*
X176133283Y-50478925D01*
X176034692Y-50607412D01*
X175897053Y-50845810D01*
X175897046Y-50845825D01*
X175791706Y-51100141D01*
X175720456Y-51366047D01*
X175684526Y-51638971D01*
X168544078Y-51638971D01*
X168544078Y-51472196D01*
X168544078Y-51008279D01*
X168544078Y-51008272D01*
X168533465Y-50888890D01*
X168477488Y-50693259D01*
X168383277Y-50512901D01*
X168331263Y-50449111D01*
X168254688Y-50355198D01*
X168149496Y-50269426D01*
X168149494Y-50269424D01*
X168096991Y-50226613D01*
X168096987Y-50226611D01*
X168096986Y-50226610D01*
X167916628Y-50132399D01*
X167916627Y-50132398D01*
X167916624Y-50132397D01*
X167799408Y-50098858D01*
X167720997Y-50076422D01*
X167720994Y-50076421D01*
X167720992Y-50076421D01*
X167654681Y-50070525D01*
X167601616Y-50065808D01*
X167601611Y-50065808D01*
X165735550Y-50065808D01*
X165735544Y-50065808D01*
X165735543Y-50065809D01*
X165723895Y-50066844D01*
X165616163Y-50076421D01*
X165420533Y-50132397D01*
X165330351Y-50179504D01*
X165240172Y-50226610D01*
X165240170Y-50226611D01*
X165240169Y-50226612D01*
X165082469Y-50355198D01*
X164953883Y-50512898D01*
X164859668Y-50693262D01*
X164803693Y-50888891D01*
X164803692Y-50888894D01*
X164793079Y-51008274D01*
X164793079Y-52124336D01*
X164793080Y-52124342D01*
X164803692Y-52243723D01*
X164859668Y-52439353D01*
X164859669Y-52439356D01*
X164859670Y-52439357D01*
X164953881Y-52619715D01*
X165015017Y-52694693D01*
X165066594Y-52757947D01*
X165093703Y-52822344D01*
X165081694Y-52891173D01*
X165066594Y-52914669D01*
X165012207Y-52981370D01*
X164953881Y-53052901D01*
X164952161Y-53056194D01*
X164859668Y-53233262D01*
X164814911Y-53389684D01*
X164803990Y-53427854D01*
X164803693Y-53428891D01*
X164803692Y-53428894D01*
X164799223Y-53479167D01*
X164795676Y-53519067D01*
X164793079Y-53548274D01*
X164793079Y-54664336D01*
X164793080Y-54664342D01*
X164803692Y-54783723D01*
X164859668Y-54979353D01*
X164859669Y-54979356D01*
X164859670Y-54979357D01*
X164953881Y-55159715D01*
X164953883Y-55159717D01*
X165066594Y-55297947D01*
X165093703Y-55362344D01*
X165081694Y-55431173D01*
X165066594Y-55454669D01*
X164953886Y-55592895D01*
X164953881Y-55592901D01*
X164917378Y-55662782D01*
X164859668Y-55773262D01*
X164816538Y-55923999D01*
X164804091Y-55967501D01*
X164803693Y-55968891D01*
X164803692Y-55968894D01*
X164796345Y-56051533D01*
X164770800Y-56116566D01*
X164734833Y-56147938D01*
X164703916Y-56165787D01*
X163957120Y-56912583D01*
X163948601Y-56927339D01*
X163942364Y-56938143D01*
X163878063Y-57049515D01*
X163837139Y-57202243D01*
X163837139Y-57202245D01*
X163837139Y-57370346D01*
X163837140Y-57370359D01*
X163837140Y-68500890D01*
X163837139Y-68500908D01*
X163837139Y-68666614D01*
X163837138Y-68666614D01*
X163878063Y-68819345D01*
X163906998Y-68869460D01*
X163906999Y-68869464D01*
X163907000Y-68869464D01*
X163950703Y-68945162D01*
X163957119Y-68956274D01*
X163957121Y-68956277D01*
X164075989Y-69075145D01*
X164075995Y-69075150D01*
X164566850Y-69566005D01*
X164600335Y-69627328D01*
X164595351Y-69697020D01*
X164553479Y-69752953D01*
X164488015Y-69777370D01*
X164479169Y-69777686D01*
X155799010Y-69777686D01*
X155731971Y-69758001D01*
X155686216Y-69705197D01*
X155675010Y-69653686D01*
X155675010Y-65103192D01*
X155675010Y-65103190D01*
X155634087Y-64950463D01*
X155603601Y-64897659D01*
X155555034Y-64813537D01*
X155555031Y-64813533D01*
X155555030Y-64813531D01*
X155443226Y-64701727D01*
X155443225Y-64701726D01*
X155438895Y-64697396D01*
X155438884Y-64697386D01*
X154358825Y-63617327D01*
X154325340Y-63556004D01*
X154322506Y-63529646D01*
X154322506Y-61964749D01*
X154322506Y-61964747D01*
X154281583Y-61812020D01*
X154281583Y-61812019D01*
X154281583Y-61812018D01*
X154252645Y-61761899D01*
X154252643Y-61761896D01*
X154202526Y-61675088D01*
X154090722Y-61563284D01*
X154090721Y-61563283D01*
X154086391Y-61558953D01*
X154086380Y-61558943D01*
X153892100Y-61364663D01*
X153892098Y-61364660D01*
X153773227Y-61245789D01*
X153773226Y-61245788D01*
X153686414Y-61195668D01*
X153686414Y-61195667D01*
X153686410Y-61195666D01*
X153636295Y-61166731D01*
X153483567Y-61125807D01*
X153325453Y-61125807D01*
X153317857Y-61125807D01*
X153317841Y-61125808D01*
X152483969Y-61125808D01*
X152416930Y-61106123D01*
X152371175Y-61053319D01*
X152364755Y-61035925D01*
X152312488Y-60853259D01*
X152218277Y-60672901D01*
X152105562Y-60534667D01*
X152078454Y-60470273D01*
X152090463Y-60401443D01*
X152105560Y-60377950D01*
X152218277Y-60239715D01*
X152312488Y-60059357D01*
X152368465Y-59863726D01*
X152379079Y-59744345D01*
X152379078Y-58628272D01*
X152368465Y-58508890D01*
X152312488Y-58313259D01*
X152218277Y-58132901D01*
X152105562Y-57994667D01*
X152078454Y-57930273D01*
X152090463Y-57861443D01*
X152105560Y-57837950D01*
X152218277Y-57699715D01*
X152312488Y-57519357D01*
X152368465Y-57323726D01*
X152379079Y-57204345D01*
X152379078Y-56088272D01*
X152368465Y-55968890D01*
X152312488Y-55773259D01*
X152218277Y-55592901D01*
X152105240Y-55454272D01*
X152078131Y-55389876D01*
X152090140Y-55321046D01*
X152105241Y-55297549D01*
X152217857Y-55159438D01*
X152312021Y-54979169D01*
X152367969Y-54783636D01*
X152367970Y-54783633D01*
X152378578Y-54664308D01*
X152378579Y-54664306D01*
X152378579Y-54356308D01*
X151416591Y-54356308D01*
X151449504Y-54299301D01*
X151483579Y-54172134D01*
X151483579Y-54040482D01*
X151449504Y-53913315D01*
X151416591Y-53856308D01*
X152378579Y-53856308D01*
X152378579Y-53548310D01*
X152378578Y-53548307D01*
X152367970Y-53428982D01*
X152367969Y-53428979D01*
X152312021Y-53233446D01*
X152217857Y-53053178D01*
X152105240Y-52915065D01*
X152078131Y-52850669D01*
X152090140Y-52781839D01*
X152105237Y-52758347D01*
X152218277Y-52619715D01*
X152312488Y-52439357D01*
X152368465Y-52243726D01*
X152379079Y-52124345D01*
X152379078Y-51008272D01*
X152368465Y-50888890D01*
X152312488Y-50693259D01*
X152218277Y-50512901D01*
X152166263Y-50449111D01*
X152089688Y-50355198D01*
X151974512Y-50261285D01*
X151931986Y-50226610D01*
X151751628Y-50132399D01*
X151751627Y-50132398D01*
X151751624Y-50132397D01*
X151634408Y-50098858D01*
X151555997Y-50076422D01*
X151555994Y-50076421D01*
X151555992Y-50076421D01*
X151489681Y-50070525D01*
X151436616Y-50065808D01*
X151436611Y-50065808D01*
X149570550Y-50065808D01*
X149570544Y-50065808D01*
X149570543Y-50065809D01*
X149558895Y-50066844D01*
X149451163Y-50076421D01*
X149255533Y-50132397D01*
X149165351Y-50179504D01*
X149075172Y-50226610D01*
X149075170Y-50226611D01*
X149075169Y-50226612D01*
X148917469Y-50355198D01*
X148788883Y-50512898D01*
X148694668Y-50693262D01*
X148638693Y-50888891D01*
X148638692Y-50888894D01*
X148628079Y-51008274D01*
X148628079Y-52124336D01*
X148628080Y-52124342D01*
X148638692Y-52243723D01*
X148694668Y-52439353D01*
X148694669Y-52439356D01*
X148694670Y-52439357D01*
X148788881Y-52619715D01*
X148860379Y-52707400D01*
X148901917Y-52758343D01*
X148929026Y-52822740D01*
X148917017Y-52891569D01*
X148901917Y-52915065D01*
X148789300Y-53053178D01*
X148695136Y-53233446D01*
X148639188Y-53428979D01*
X148639187Y-53428982D01*
X148628579Y-53548307D01*
X148628579Y-53856308D01*
X150550567Y-53856308D01*
X150517654Y-53913315D01*
X150483579Y-54040482D01*
X150483579Y-54172134D01*
X150517654Y-54299301D01*
X150550567Y-54356308D01*
X148628579Y-54356308D01*
X148628579Y-54664308D01*
X148639187Y-54783633D01*
X148639188Y-54783636D01*
X148695136Y-54979169D01*
X148789300Y-55159437D01*
X148901917Y-55297550D01*
X148929026Y-55361946D01*
X148917017Y-55430776D01*
X148901917Y-55454271D01*
X148788884Y-55592895D01*
X148694668Y-55773262D01*
X148673500Y-55847244D01*
X148642404Y-55955920D01*
X148605038Y-56014957D01*
X148541684Y-56044421D01*
X148523189Y-56045808D01*
X148482925Y-56045808D01*
X148324811Y-56045808D01*
X148172083Y-56086731D01*
X148172082Y-56086731D01*
X148172080Y-56086732D01*
X148172077Y-56086733D01*
X148121964Y-56115667D01*
X148121963Y-56115668D01*
X148116289Y-56118944D01*
X148035153Y-56165787D01*
X148035150Y-56165789D01*
X147923346Y-56277594D01*
X145175208Y-59025733D01*
X145113885Y-59059218D01*
X145087527Y-59062052D01*
X132385831Y-59062052D01*
X132318792Y-59042367D01*
X132275347Y-58994347D01*
X132255164Y-58954737D01*
X132255163Y-58954736D01*
X132130221Y-58782765D01*
X131979898Y-58632442D01*
X131807932Y-58507503D01*
X131807227Y-58507143D01*
X131799166Y-58503037D01*
X131748371Y-58455064D01*
X131731575Y-58387244D01*
X131754111Y-58321108D01*
X131799166Y-58282067D01*
X131807928Y-58277603D01*
X131851816Y-58245717D01*
X131979898Y-58152661D01*
X131979900Y-58152658D01*
X131979904Y-58152656D01*
X132130216Y-58002344D01*
X132130218Y-58002340D01*
X132130221Y-58002338D01*
X132255160Y-57830372D01*
X132255159Y-57830372D01*
X132255163Y-57830368D01*
X132351669Y-57640964D01*
X132417358Y-57438795D01*
X132450612Y-57228839D01*
X132450612Y-57016265D01*
X132417358Y-56806309D01*
X132351669Y-56604140D01*
X132255163Y-56414736D01*
X132255161Y-56414733D01*
X132255160Y-56414731D01*
X132130221Y-56242765D01*
X131979898Y-56092442D01*
X131807932Y-55967503D01*
X131807227Y-55967143D01*
X131799166Y-55963037D01*
X131748371Y-55915064D01*
X131731575Y-55847244D01*
X131754111Y-55781108D01*
X131799166Y-55742067D01*
X131807928Y-55737603D01*
X131829901Y-55721638D01*
X131979898Y-55612661D01*
X131979900Y-55612658D01*
X131979904Y-55612656D01*
X132130216Y-55462344D01*
X132130218Y-55462340D01*
X132130221Y-55462338D01*
X132255160Y-55290372D01*
X132255159Y-55290372D01*
X132255163Y-55290368D01*
X132351669Y-55100964D01*
X132417358Y-54898795D01*
X132450612Y-54688839D01*
X132450612Y-54476265D01*
X132417358Y-54266309D01*
X132351669Y-54064140D01*
X132255163Y-53874736D01*
X132255161Y-53874733D01*
X132255160Y-53874731D01*
X132130221Y-53702765D01*
X131979898Y-53552442D01*
X131807932Y-53427503D01*
X131618526Y-53330996D01*
X131618525Y-53330995D01*
X131618524Y-53330995D01*
X131416355Y-53265306D01*
X131416353Y-53265305D01*
X131416352Y-53265305D01*
X131255069Y-53239760D01*
X131206399Y-53232052D01*
X130993825Y-53232052D01*
X130945154Y-53239760D01*
X130783872Y-53265305D01*
X130581697Y-53330996D01*
X130392291Y-53427503D01*
X130220325Y-53552442D01*
X130070002Y-53702765D01*
X129945063Y-53874731D01*
X129848556Y-54064137D01*
X129782865Y-54266312D01*
X129749612Y-54476265D01*
X128159986Y-54476265D01*
X128159986Y-48312060D01*
X128179671Y-48245021D01*
X128232475Y-48199266D01*
X128283986Y-48188060D01*
X159843594Y-48188060D01*
X188684986Y-48188060D01*
X188752025Y-48207745D01*
G37*
G04 #@! TD.AperFunction*
G04 #@! TD*
M02*
