%TF.GenerationSoftware,KiCad,Pcbnew,10.0.0*%
%TF.CreationDate,2026-07-06T03:27:28+02:00*%
%TF.ProjectId,Stardance macropad,53746172-6461-46e6-9365-206d6163726f,rev?*%
%TF.SameCoordinates,Original*%
%TF.FileFunction,Drillmap*%
%TF.FilePolarity,Positive*%
%FSLAX45Y45*%
G04 Gerber Fmt 4.5, Leading zero omitted, Abs format (unit mm)*
G04 Created by KiCad (PCBNEW 10.0.0) date 2026-07-06 03:27:28*
%MOMM*%
%LPD*%
G01*
G04 APERTURE LIST*
%ADD10C,0.050000*%
%ADD11C,0.200000*%
%ADD12C,0.100000*%
%ADD13C,0.150000*%
%ADD14C,0.260000*%
G04 APERTURE END LIST*
D10*
X12765949Y-7289756D02*
X12765949Y-4768756D01*
X12765949Y-7289756D02*
X12765949Y-10828756D01*
X15990949Y-4768756D02*
X12765949Y-4768756D01*
X15990949Y-4768756D02*
X18930949Y-4768756D01*
X15990949Y-10828756D02*
X12765949Y-10828756D01*
X15990949Y-10828756D02*
X18930949Y-10828756D01*
X18930949Y-7290756D02*
X18930949Y-4768756D01*
X18930949Y-7290756D02*
X18930949Y-10828756D01*
D11*
D12*
X16547827Y-6962819D02*
X16577827Y-6992819D01*
X16577827Y-6962819D02*
X16547827Y-6992819D01*
X16547827Y-7141881D02*
X16577827Y-7171881D01*
X16577827Y-7141881D02*
X16547827Y-7171881D01*
X16964546Y-7082819D02*
X16994546Y-7112819D01*
X16994546Y-7082819D02*
X16964546Y-7112819D01*
X16964546Y-8213445D02*
X16994546Y-8243445D01*
X16994546Y-8213445D02*
X16964546Y-8243445D01*
X14935950Y-7395006D02*
G75*
G02*
X14855950Y-7395006I-40000J0D01*
G01*
X14855950Y-7395006D02*
G75*
G02*
X14935950Y-7395006I40000J0D01*
G01*
X14935950Y-8157006D02*
G75*
G02*
X14855950Y-8157006I-40000J0D01*
G01*
X14855950Y-8157006D02*
G75*
G02*
X14935950Y-8157006I40000J0D01*
G01*
X14935950Y-9300008D02*
G75*
G02*
X14855950Y-9300008I-40000J0D01*
G01*
X14855950Y-9300008D02*
G75*
G02*
X14935950Y-9300008I40000J0D01*
G01*
X14935950Y-10062008D02*
G75*
G02*
X14855950Y-10062008I-40000J0D01*
G01*
X14855950Y-10062008D02*
G75*
G02*
X14935950Y-10062008I40000J0D01*
G01*
X16840952Y-7395006D02*
G75*
G02*
X16760952Y-7395006I-40000J0D01*
G01*
X16760952Y-7395006D02*
G75*
G02*
X16840952Y-7395006I40000J0D01*
G01*
X16840952Y-8157006D02*
G75*
G02*
X16760952Y-8157006I-40000J0D01*
G01*
X16760952Y-8157006D02*
G75*
G02*
X16840952Y-8157006I40000J0D01*
G01*
X16840952Y-9300008D02*
G75*
G02*
X16760952Y-9300008I-40000J0D01*
G01*
X16760952Y-9300008D02*
G75*
G02*
X16840952Y-9300008I40000J0D01*
G01*
X16840952Y-10062008D02*
G75*
G02*
X16760952Y-10062008I-40000J0D01*
G01*
X16760952Y-10062008D02*
G75*
G02*
X16840952Y-10062008I40000J0D01*
G01*
X18745953Y-7395006D02*
G75*
G02*
X18665953Y-7395006I-40000J0D01*
G01*
X18665953Y-7395006D02*
G75*
G02*
X18745953Y-7395006I40000J0D01*
G01*
X18745953Y-8157006D02*
G75*
G02*
X18665953Y-8157006I-40000J0D01*
G01*
X18665953Y-8157006D02*
G75*
G02*
X18745953Y-8157006I40000J0D01*
G01*
X18745953Y-9300008D02*
G75*
G02*
X18665953Y-9300008I-40000J0D01*
G01*
X18665953Y-9300008D02*
G75*
G02*
X18745953Y-9300008I40000J0D01*
G01*
X18745953Y-10062008D02*
G75*
G02*
X18665953Y-10062008I-40000J0D01*
G01*
X18665953Y-10062008D02*
G75*
G02*
X18745953Y-10062008I40000J0D01*
G01*
X13110011Y-5408255D02*
X13110011Y-5508255D01*
X13060011Y-5458255D02*
X13160011Y-5458255D01*
X13110011Y-5662255D02*
X13110011Y-5762255D01*
X13060011Y-5712255D02*
X13160011Y-5712255D01*
X13110011Y-5916255D02*
X13110011Y-6016255D01*
X13060011Y-5966255D02*
X13160011Y-5966255D01*
X13110011Y-6170255D02*
X13110011Y-6270255D01*
X13060011Y-6220255D02*
X13160011Y-6220255D01*
X15098358Y-5106631D02*
X15098358Y-5206631D01*
X15048358Y-5156631D02*
X15148358Y-5156631D01*
X15098358Y-5360631D02*
X15098358Y-5460631D01*
X15048358Y-5410631D02*
X15148358Y-5410631D01*
X15098358Y-5614631D02*
X15098358Y-5714631D01*
X15048358Y-5664631D02*
X15148358Y-5664631D01*
X15098358Y-5868631D02*
X15098358Y-5968631D01*
X15048358Y-5918631D02*
X15148358Y-5918631D01*
X15098358Y-6122631D02*
X15098358Y-6222631D01*
X15048358Y-6172631D02*
X15148358Y-6172631D01*
X15098358Y-6376631D02*
X15098358Y-6476631D01*
X15048358Y-6426631D02*
X15148358Y-6426631D01*
X15098358Y-6630631D02*
X15098358Y-6730631D01*
X15048358Y-6680631D02*
X15148358Y-6680631D01*
X16622358Y-5106631D02*
X16622358Y-5206631D01*
X16572358Y-5156631D02*
X16672358Y-5156631D01*
X16622358Y-5360631D02*
X16622358Y-5460631D01*
X16572358Y-5410631D02*
X16672358Y-5410631D01*
X16622358Y-5614631D02*
X16622358Y-5714631D01*
X16572358Y-5664631D02*
X16672358Y-5664631D01*
X16622358Y-5868631D02*
X16622358Y-5968631D01*
X16572358Y-5918631D02*
X16672358Y-5918631D01*
X16622358Y-6122631D02*
X16622358Y-6222631D01*
X16572358Y-6172631D02*
X16672358Y-6172631D01*
X16622358Y-6376631D02*
X16622358Y-6476631D01*
X16572358Y-6426631D02*
X16672358Y-6426631D01*
X16622358Y-6630631D02*
X16622358Y-6730631D01*
X16572358Y-6680631D02*
X16672358Y-6680631D01*
X17028453Y-5437661D02*
X17028453Y-5537661D01*
X16978453Y-5487661D02*
X17078453Y-5487661D01*
X17028453Y-5687661D02*
X17028453Y-5787661D01*
X16978453Y-5737661D02*
X17078453Y-5737661D01*
X17028453Y-5937661D02*
X17028453Y-6037661D01*
X16978453Y-5987661D02*
X17078453Y-5987661D01*
X18478453Y-5437661D02*
X18478453Y-5537661D01*
X18428453Y-5487661D02*
X18528453Y-5487661D01*
X18478453Y-5937661D02*
X18478453Y-6037661D01*
X18428453Y-5987661D02*
X18528453Y-5987661D01*
D13*
X13615482Y-7670289D02*
X13615482Y-7564222D01*
X13509415Y-7564222D01*
X13509415Y-7670289D01*
X13615482Y-7670289D01*
X13615483Y-9575292D02*
X13615483Y-9469225D01*
X13509416Y-9469225D01*
X13509416Y-9575292D01*
X13615483Y-9575292D01*
X14250482Y-7416289D02*
X14250482Y-7310222D01*
X14144415Y-7310222D01*
X14144415Y-7416289D01*
X14250482Y-7416289D01*
X14250483Y-9321292D02*
X14250483Y-9215225D01*
X14144416Y-9215225D01*
X14144416Y-9321292D01*
X14250483Y-9321292D01*
X15520484Y-7670290D02*
X15520484Y-7564223D01*
X15414417Y-7564223D01*
X15414417Y-7670290D01*
X15520484Y-7670290D01*
X15520484Y-9575292D02*
X15520484Y-9469225D01*
X15414417Y-9469225D01*
X15414417Y-9575292D01*
X15520484Y-9575292D01*
X16155484Y-7416290D02*
X16155484Y-7310223D01*
X16049417Y-7310223D01*
X16049417Y-7416290D01*
X16155484Y-7416290D01*
X16155484Y-9321292D02*
X16155484Y-9215225D01*
X16049417Y-9215225D01*
X16049417Y-9321292D01*
X16155484Y-9321292D01*
X17425486Y-7670290D02*
X17425486Y-7564223D01*
X17319419Y-7564223D01*
X17319419Y-7670290D01*
X17425486Y-7670290D01*
X17425486Y-9575292D02*
X17425486Y-9469225D01*
X17319419Y-9469225D01*
X17319419Y-9575292D01*
X17425486Y-9575292D01*
X18060486Y-7416290D02*
X18060486Y-7310223D01*
X17954419Y-7310223D01*
X17954419Y-7416290D01*
X18060486Y-7416290D01*
X18060486Y-9321292D02*
X18060486Y-9215225D01*
X17954419Y-9215225D01*
X17954419Y-9321292D01*
X18060486Y-9321292D01*
D14*
X17778453Y-5307661D02*
X17908453Y-5177661D01*
X17778453Y-5047661D01*
X17648453Y-5177661D01*
X17778453Y-5307661D01*
X17778453Y-6427661D02*
X17908453Y-6297661D01*
X17778453Y-6167661D01*
X17648453Y-6297661D01*
X17778453Y-6427661D01*
D11*
X13024225Y-11142740D02*
X13024225Y-10942740D01*
X13024225Y-10942740D02*
X13071844Y-10942740D01*
X13071844Y-10942740D02*
X13100416Y-10952264D01*
X13100416Y-10952264D02*
X13119463Y-10971311D01*
X13119463Y-10971311D02*
X13128987Y-10990359D01*
X13128987Y-10990359D02*
X13138511Y-11028454D01*
X13138511Y-11028454D02*
X13138511Y-11057026D01*
X13138511Y-11057026D02*
X13128987Y-11095121D01*
X13128987Y-11095121D02*
X13119463Y-11114168D01*
X13119463Y-11114168D02*
X13100416Y-11133216D01*
X13100416Y-11133216D02*
X13071844Y-11142740D01*
X13071844Y-11142740D02*
X13024225Y-11142740D01*
X13224225Y-11142740D02*
X13224225Y-11009406D01*
X13224225Y-11047502D02*
X13233749Y-11028454D01*
X13233749Y-11028454D02*
X13243273Y-11018930D01*
X13243273Y-11018930D02*
X13262321Y-11009406D01*
X13262321Y-11009406D02*
X13281368Y-11009406D01*
X13348035Y-11142740D02*
X13348035Y-11009406D01*
X13348035Y-10942740D02*
X13338511Y-10952264D01*
X13338511Y-10952264D02*
X13348035Y-10961787D01*
X13348035Y-10961787D02*
X13357559Y-10952264D01*
X13357559Y-10952264D02*
X13348035Y-10942740D01*
X13348035Y-10942740D02*
X13348035Y-10961787D01*
X13471844Y-11142740D02*
X13452797Y-11133216D01*
X13452797Y-11133216D02*
X13443273Y-11114168D01*
X13443273Y-11114168D02*
X13443273Y-10942740D01*
X13576606Y-11142740D02*
X13557559Y-11133216D01*
X13557559Y-11133216D02*
X13548035Y-11114168D01*
X13548035Y-11114168D02*
X13548035Y-10942740D01*
X13805178Y-11142740D02*
X13805178Y-10942740D01*
X13805178Y-10942740D02*
X13871844Y-11085597D01*
X13871844Y-11085597D02*
X13938511Y-10942740D01*
X13938511Y-10942740D02*
X13938511Y-11142740D01*
X14119463Y-11142740D02*
X14119463Y-11037978D01*
X14119463Y-11037978D02*
X14109940Y-11018930D01*
X14109940Y-11018930D02*
X14090892Y-11009406D01*
X14090892Y-11009406D02*
X14052797Y-11009406D01*
X14052797Y-11009406D02*
X14033749Y-11018930D01*
X14119463Y-11133216D02*
X14100416Y-11142740D01*
X14100416Y-11142740D02*
X14052797Y-11142740D01*
X14052797Y-11142740D02*
X14033749Y-11133216D01*
X14033749Y-11133216D02*
X14024225Y-11114168D01*
X14024225Y-11114168D02*
X14024225Y-11095121D01*
X14024225Y-11095121D02*
X14033749Y-11076073D01*
X14033749Y-11076073D02*
X14052797Y-11066549D01*
X14052797Y-11066549D02*
X14100416Y-11066549D01*
X14100416Y-11066549D02*
X14119463Y-11057026D01*
X14214702Y-11009406D02*
X14214702Y-11209406D01*
X14214702Y-11018930D02*
X14233749Y-11009406D01*
X14233749Y-11009406D02*
X14271844Y-11009406D01*
X14271844Y-11009406D02*
X14290892Y-11018930D01*
X14290892Y-11018930D02*
X14300416Y-11028454D01*
X14300416Y-11028454D02*
X14309940Y-11047502D01*
X14309940Y-11047502D02*
X14309940Y-11104645D01*
X14309940Y-11104645D02*
X14300416Y-11123692D01*
X14300416Y-11123692D02*
X14290892Y-11133216D01*
X14290892Y-11133216D02*
X14271844Y-11142740D01*
X14271844Y-11142740D02*
X14233749Y-11142740D01*
X14233749Y-11142740D02*
X14214702Y-11133216D01*
X14395654Y-11123692D02*
X14405178Y-11133216D01*
X14405178Y-11133216D02*
X14395654Y-11142740D01*
X14395654Y-11142740D02*
X14386130Y-11133216D01*
X14386130Y-11133216D02*
X14395654Y-11123692D01*
X14395654Y-11123692D02*
X14395654Y-11142740D01*
X14395654Y-11018930D02*
X14405178Y-11028454D01*
X14405178Y-11028454D02*
X14395654Y-11037978D01*
X14395654Y-11037978D02*
X14386130Y-11028454D01*
X14386130Y-11028454D02*
X14395654Y-11018930D01*
X14395654Y-11018930D02*
X14395654Y-11037978D01*
D12*
X12733449Y-11456256D02*
X12763449Y-11486256D01*
X12763449Y-11456256D02*
X12733449Y-11486256D01*
D11*
X13062321Y-11362740D02*
X13081368Y-11362740D01*
X13081368Y-11362740D02*
X13100416Y-11372264D01*
X13100416Y-11372264D02*
X13109940Y-11381787D01*
X13109940Y-11381787D02*
X13119463Y-11400835D01*
X13119463Y-11400835D02*
X13128987Y-11438930D01*
X13128987Y-11438930D02*
X13128987Y-11486549D01*
X13128987Y-11486549D02*
X13119463Y-11524644D01*
X13119463Y-11524644D02*
X13109940Y-11543692D01*
X13109940Y-11543692D02*
X13100416Y-11553216D01*
X13100416Y-11553216D02*
X13081368Y-11562740D01*
X13081368Y-11562740D02*
X13062321Y-11562740D01*
X13062321Y-11562740D02*
X13043273Y-11553216D01*
X13043273Y-11553216D02*
X13033749Y-11543692D01*
X13033749Y-11543692D02*
X13024225Y-11524644D01*
X13024225Y-11524644D02*
X13014702Y-11486549D01*
X13014702Y-11486549D02*
X13014702Y-11438930D01*
X13014702Y-11438930D02*
X13024225Y-11400835D01*
X13024225Y-11400835D02*
X13033749Y-11381787D01*
X13033749Y-11381787D02*
X13043273Y-11372264D01*
X13043273Y-11372264D02*
X13062321Y-11362740D01*
X13224225Y-11553216D02*
X13224225Y-11562740D01*
X13224225Y-11562740D02*
X13214702Y-11581787D01*
X13214702Y-11581787D02*
X13205178Y-11591311D01*
X13290892Y-11362740D02*
X13414702Y-11362740D01*
X13414702Y-11362740D02*
X13348035Y-11438930D01*
X13348035Y-11438930D02*
X13376606Y-11438930D01*
X13376606Y-11438930D02*
X13395654Y-11448454D01*
X13395654Y-11448454D02*
X13405178Y-11457978D01*
X13405178Y-11457978D02*
X13414702Y-11477025D01*
X13414702Y-11477025D02*
X13414702Y-11524644D01*
X13414702Y-11524644D02*
X13405178Y-11543692D01*
X13405178Y-11543692D02*
X13395654Y-11553216D01*
X13395654Y-11553216D02*
X13376606Y-11562740D01*
X13376606Y-11562740D02*
X13319463Y-11562740D01*
X13319463Y-11562740D02*
X13300416Y-11553216D01*
X13300416Y-11553216D02*
X13290892Y-11543692D01*
X13538511Y-11362740D02*
X13557559Y-11362740D01*
X13557559Y-11362740D02*
X13576606Y-11372264D01*
X13576606Y-11372264D02*
X13586130Y-11381787D01*
X13586130Y-11381787D02*
X13595654Y-11400835D01*
X13595654Y-11400835D02*
X13605178Y-11438930D01*
X13605178Y-11438930D02*
X13605178Y-11486549D01*
X13605178Y-11486549D02*
X13595654Y-11524644D01*
X13595654Y-11524644D02*
X13586130Y-11543692D01*
X13586130Y-11543692D02*
X13576606Y-11553216D01*
X13576606Y-11553216D02*
X13557559Y-11562740D01*
X13557559Y-11562740D02*
X13538511Y-11562740D01*
X13538511Y-11562740D02*
X13519463Y-11553216D01*
X13519463Y-11553216D02*
X13509940Y-11543692D01*
X13509940Y-11543692D02*
X13500416Y-11524644D01*
X13500416Y-11524644D02*
X13490892Y-11486549D01*
X13490892Y-11486549D02*
X13490892Y-11438930D01*
X13490892Y-11438930D02*
X13500416Y-11400835D01*
X13500416Y-11400835D02*
X13509940Y-11381787D01*
X13509940Y-11381787D02*
X13519463Y-11372264D01*
X13519463Y-11372264D02*
X13538511Y-11362740D01*
X13728987Y-11362740D02*
X13748035Y-11362740D01*
X13748035Y-11362740D02*
X13767083Y-11372264D01*
X13767083Y-11372264D02*
X13776606Y-11381787D01*
X13776606Y-11381787D02*
X13786130Y-11400835D01*
X13786130Y-11400835D02*
X13795654Y-11438930D01*
X13795654Y-11438930D02*
X13795654Y-11486549D01*
X13795654Y-11486549D02*
X13786130Y-11524644D01*
X13786130Y-11524644D02*
X13776606Y-11543692D01*
X13776606Y-11543692D02*
X13767083Y-11553216D01*
X13767083Y-11553216D02*
X13748035Y-11562740D01*
X13748035Y-11562740D02*
X13728987Y-11562740D01*
X13728987Y-11562740D02*
X13709940Y-11553216D01*
X13709940Y-11553216D02*
X13700416Y-11543692D01*
X13700416Y-11543692D02*
X13690892Y-11524644D01*
X13690892Y-11524644D02*
X13681368Y-11486549D01*
X13681368Y-11486549D02*
X13681368Y-11438930D01*
X13681368Y-11438930D02*
X13690892Y-11400835D01*
X13690892Y-11400835D02*
X13700416Y-11381787D01*
X13700416Y-11381787D02*
X13709940Y-11372264D01*
X13709940Y-11372264D02*
X13728987Y-11362740D01*
X13881368Y-11562740D02*
X13881368Y-11429406D01*
X13881368Y-11448454D02*
X13890892Y-11438930D01*
X13890892Y-11438930D02*
X13909940Y-11429406D01*
X13909940Y-11429406D02*
X13938511Y-11429406D01*
X13938511Y-11429406D02*
X13957559Y-11438930D01*
X13957559Y-11438930D02*
X13967083Y-11457978D01*
X13967083Y-11457978D02*
X13967083Y-11562740D01*
X13967083Y-11457978D02*
X13976606Y-11438930D01*
X13976606Y-11438930D02*
X13995654Y-11429406D01*
X13995654Y-11429406D02*
X14024225Y-11429406D01*
X14024225Y-11429406D02*
X14043273Y-11438930D01*
X14043273Y-11438930D02*
X14052797Y-11457978D01*
X14052797Y-11457978D02*
X14052797Y-11562740D01*
X14148035Y-11562740D02*
X14148035Y-11429406D01*
X14148035Y-11448454D02*
X14157559Y-11438930D01*
X14157559Y-11438930D02*
X14176606Y-11429406D01*
X14176606Y-11429406D02*
X14205178Y-11429406D01*
X14205178Y-11429406D02*
X14224225Y-11438930D01*
X14224225Y-11438930D02*
X14233749Y-11457978D01*
X14233749Y-11457978D02*
X14233749Y-11562740D01*
X14233749Y-11457978D02*
X14243273Y-11438930D01*
X14243273Y-11438930D02*
X14262321Y-11429406D01*
X14262321Y-11429406D02*
X14290892Y-11429406D01*
X14290892Y-11429406D02*
X14309940Y-11438930D01*
X14309940Y-11438930D02*
X14319464Y-11457978D01*
X14319464Y-11457978D02*
X14319464Y-11562740D01*
X14709940Y-11353216D02*
X14538511Y-11610359D01*
X14967083Y-11362740D02*
X14986130Y-11362740D01*
X14986130Y-11362740D02*
X15005178Y-11372264D01*
X15005178Y-11372264D02*
X15014702Y-11381787D01*
X15014702Y-11381787D02*
X15024226Y-11400835D01*
X15024226Y-11400835D02*
X15033749Y-11438930D01*
X15033749Y-11438930D02*
X15033749Y-11486549D01*
X15033749Y-11486549D02*
X15024226Y-11524644D01*
X15024226Y-11524644D02*
X15014702Y-11543692D01*
X15014702Y-11543692D02*
X15005178Y-11553216D01*
X15005178Y-11553216D02*
X14986130Y-11562740D01*
X14986130Y-11562740D02*
X14967083Y-11562740D01*
X14967083Y-11562740D02*
X14948035Y-11553216D01*
X14948035Y-11553216D02*
X14938511Y-11543692D01*
X14938511Y-11543692D02*
X14928987Y-11524644D01*
X14928987Y-11524644D02*
X14919464Y-11486549D01*
X14919464Y-11486549D02*
X14919464Y-11438930D01*
X14919464Y-11438930D02*
X14928987Y-11400835D01*
X14928987Y-11400835D02*
X14938511Y-11381787D01*
X14938511Y-11381787D02*
X14948035Y-11372264D01*
X14948035Y-11372264D02*
X14967083Y-11362740D01*
X15128987Y-11553216D02*
X15128987Y-11562740D01*
X15128987Y-11562740D02*
X15119464Y-11581787D01*
X15119464Y-11581787D02*
X15109940Y-11591311D01*
X15252797Y-11362740D02*
X15271845Y-11362740D01*
X15271845Y-11362740D02*
X15290892Y-11372264D01*
X15290892Y-11372264D02*
X15300416Y-11381787D01*
X15300416Y-11381787D02*
X15309940Y-11400835D01*
X15309940Y-11400835D02*
X15319464Y-11438930D01*
X15319464Y-11438930D02*
X15319464Y-11486549D01*
X15319464Y-11486549D02*
X15309940Y-11524644D01*
X15309940Y-11524644D02*
X15300416Y-11543692D01*
X15300416Y-11543692D02*
X15290892Y-11553216D01*
X15290892Y-11553216D02*
X15271845Y-11562740D01*
X15271845Y-11562740D02*
X15252797Y-11562740D01*
X15252797Y-11562740D02*
X15233749Y-11553216D01*
X15233749Y-11553216D02*
X15224226Y-11543692D01*
X15224226Y-11543692D02*
X15214702Y-11524644D01*
X15214702Y-11524644D02*
X15205178Y-11486549D01*
X15205178Y-11486549D02*
X15205178Y-11438930D01*
X15205178Y-11438930D02*
X15214702Y-11400835D01*
X15214702Y-11400835D02*
X15224226Y-11381787D01*
X15224226Y-11381787D02*
X15233749Y-11372264D01*
X15233749Y-11372264D02*
X15252797Y-11362740D01*
X15509940Y-11562740D02*
X15395654Y-11562740D01*
X15452797Y-11562740D02*
X15452797Y-11362740D01*
X15452797Y-11362740D02*
X15433749Y-11391311D01*
X15433749Y-11391311D02*
X15414702Y-11410359D01*
X15414702Y-11410359D02*
X15395654Y-11419883D01*
X15700416Y-11562740D02*
X15586130Y-11562740D01*
X15643273Y-11562740D02*
X15643273Y-11362740D01*
X15643273Y-11362740D02*
X15624226Y-11391311D01*
X15624226Y-11391311D02*
X15605178Y-11410359D01*
X15605178Y-11410359D02*
X15586130Y-11419883D01*
X15814702Y-11448454D02*
X15795654Y-11438930D01*
X15795654Y-11438930D02*
X15786130Y-11429406D01*
X15786130Y-11429406D02*
X15776607Y-11410359D01*
X15776607Y-11410359D02*
X15776607Y-11400835D01*
X15776607Y-11400835D02*
X15786130Y-11381787D01*
X15786130Y-11381787D02*
X15795654Y-11372264D01*
X15795654Y-11372264D02*
X15814702Y-11362740D01*
X15814702Y-11362740D02*
X15852797Y-11362740D01*
X15852797Y-11362740D02*
X15871845Y-11372264D01*
X15871845Y-11372264D02*
X15881368Y-11381787D01*
X15881368Y-11381787D02*
X15890892Y-11400835D01*
X15890892Y-11400835D02*
X15890892Y-11410359D01*
X15890892Y-11410359D02*
X15881368Y-11429406D01*
X15881368Y-11429406D02*
X15871845Y-11438930D01*
X15871845Y-11438930D02*
X15852797Y-11448454D01*
X15852797Y-11448454D02*
X15814702Y-11448454D01*
X15814702Y-11448454D02*
X15795654Y-11457978D01*
X15795654Y-11457978D02*
X15786130Y-11467502D01*
X15786130Y-11467502D02*
X15776607Y-11486549D01*
X15776607Y-11486549D02*
X15776607Y-11524644D01*
X15776607Y-11524644D02*
X15786130Y-11543692D01*
X15786130Y-11543692D02*
X15795654Y-11553216D01*
X15795654Y-11553216D02*
X15814702Y-11562740D01*
X15814702Y-11562740D02*
X15852797Y-11562740D01*
X15852797Y-11562740D02*
X15871845Y-11553216D01*
X15871845Y-11553216D02*
X15881368Y-11543692D01*
X15881368Y-11543692D02*
X15890892Y-11524644D01*
X15890892Y-11524644D02*
X15890892Y-11486549D01*
X15890892Y-11486549D02*
X15881368Y-11467502D01*
X15881368Y-11467502D02*
X15871845Y-11457978D01*
X15871845Y-11457978D02*
X15852797Y-11448454D01*
X15967083Y-11362740D02*
X15967083Y-11400835D01*
X16043273Y-11362740D02*
X16043273Y-11400835D01*
X16338511Y-11638930D02*
X16328988Y-11629406D01*
X16328988Y-11629406D02*
X16309940Y-11600835D01*
X16309940Y-11600835D02*
X16300416Y-11581787D01*
X16300416Y-11581787D02*
X16290892Y-11553216D01*
X16290892Y-11553216D02*
X16281369Y-11505597D01*
X16281369Y-11505597D02*
X16281369Y-11467502D01*
X16281369Y-11467502D02*
X16290892Y-11419883D01*
X16290892Y-11419883D02*
X16300416Y-11391311D01*
X16300416Y-11391311D02*
X16309940Y-11372264D01*
X16309940Y-11372264D02*
X16328988Y-11343692D01*
X16328988Y-11343692D02*
X16338511Y-11334168D01*
X16500416Y-11429406D02*
X16500416Y-11562740D01*
X16452797Y-11353216D02*
X16405178Y-11496073D01*
X16405178Y-11496073D02*
X16528988Y-11496073D01*
X16757559Y-11562740D02*
X16757559Y-11362740D01*
X16843273Y-11562740D02*
X16843273Y-11457978D01*
X16843273Y-11457978D02*
X16833750Y-11438930D01*
X16833750Y-11438930D02*
X16814702Y-11429406D01*
X16814702Y-11429406D02*
X16786131Y-11429406D01*
X16786131Y-11429406D02*
X16767083Y-11438930D01*
X16767083Y-11438930D02*
X16757559Y-11448454D01*
X16967083Y-11562740D02*
X16948035Y-11553216D01*
X16948035Y-11553216D02*
X16938512Y-11543692D01*
X16938512Y-11543692D02*
X16928988Y-11524644D01*
X16928988Y-11524644D02*
X16928988Y-11467502D01*
X16928988Y-11467502D02*
X16938512Y-11448454D01*
X16938512Y-11448454D02*
X16948035Y-11438930D01*
X16948035Y-11438930D02*
X16967083Y-11429406D01*
X16967083Y-11429406D02*
X16995654Y-11429406D01*
X16995654Y-11429406D02*
X17014702Y-11438930D01*
X17014702Y-11438930D02*
X17024226Y-11448454D01*
X17024226Y-11448454D02*
X17033750Y-11467502D01*
X17033750Y-11467502D02*
X17033750Y-11524644D01*
X17033750Y-11524644D02*
X17024226Y-11543692D01*
X17024226Y-11543692D02*
X17014702Y-11553216D01*
X17014702Y-11553216D02*
X16995654Y-11562740D01*
X16995654Y-11562740D02*
X16967083Y-11562740D01*
X17148035Y-11562740D02*
X17128988Y-11553216D01*
X17128988Y-11553216D02*
X17119464Y-11534168D01*
X17119464Y-11534168D02*
X17119464Y-11362740D01*
X17300416Y-11553216D02*
X17281369Y-11562740D01*
X17281369Y-11562740D02*
X17243273Y-11562740D01*
X17243273Y-11562740D02*
X17224226Y-11553216D01*
X17224226Y-11553216D02*
X17214702Y-11534168D01*
X17214702Y-11534168D02*
X17214702Y-11457978D01*
X17214702Y-11457978D02*
X17224226Y-11438930D01*
X17224226Y-11438930D02*
X17243273Y-11429406D01*
X17243273Y-11429406D02*
X17281369Y-11429406D01*
X17281369Y-11429406D02*
X17300416Y-11438930D01*
X17300416Y-11438930D02*
X17309940Y-11457978D01*
X17309940Y-11457978D02*
X17309940Y-11477025D01*
X17309940Y-11477025D02*
X17214702Y-11496073D01*
X17386131Y-11553216D02*
X17405178Y-11562740D01*
X17405178Y-11562740D02*
X17443273Y-11562740D01*
X17443273Y-11562740D02*
X17462321Y-11553216D01*
X17462321Y-11553216D02*
X17471845Y-11534168D01*
X17471845Y-11534168D02*
X17471845Y-11524644D01*
X17471845Y-11524644D02*
X17462321Y-11505597D01*
X17462321Y-11505597D02*
X17443273Y-11496073D01*
X17443273Y-11496073D02*
X17414702Y-11496073D01*
X17414702Y-11496073D02*
X17395654Y-11486549D01*
X17395654Y-11486549D02*
X17386131Y-11467502D01*
X17386131Y-11467502D02*
X17386131Y-11457978D01*
X17386131Y-11457978D02*
X17395654Y-11438930D01*
X17395654Y-11438930D02*
X17414702Y-11429406D01*
X17414702Y-11429406D02*
X17443273Y-11429406D01*
X17443273Y-11429406D02*
X17462321Y-11438930D01*
X17538512Y-11638930D02*
X17548035Y-11629406D01*
X17548035Y-11629406D02*
X17567083Y-11600835D01*
X17567083Y-11600835D02*
X17576607Y-11581787D01*
X17576607Y-11581787D02*
X17586131Y-11553216D01*
X17586131Y-11553216D02*
X17595654Y-11505597D01*
X17595654Y-11505597D02*
X17595654Y-11467502D01*
X17595654Y-11467502D02*
X17586131Y-11419883D01*
X17586131Y-11419883D02*
X17576607Y-11391311D01*
X17576607Y-11391311D02*
X17567083Y-11372264D01*
X17567083Y-11372264D02*
X17548035Y-11343692D01*
X17548035Y-11343692D02*
X17538512Y-11334168D01*
D12*
X12763449Y-11735256D02*
G75*
G02*
X12683449Y-11735256I-40000J0D01*
G01*
X12683449Y-11735256D02*
G75*
G02*
X12763449Y-11735256I40000J0D01*
G01*
D11*
X13062321Y-11626740D02*
X13081368Y-11626740D01*
X13081368Y-11626740D02*
X13100416Y-11636264D01*
X13100416Y-11636264D02*
X13109940Y-11645787D01*
X13109940Y-11645787D02*
X13119463Y-11664835D01*
X13119463Y-11664835D02*
X13128987Y-11702930D01*
X13128987Y-11702930D02*
X13128987Y-11750549D01*
X13128987Y-11750549D02*
X13119463Y-11788644D01*
X13119463Y-11788644D02*
X13109940Y-11807692D01*
X13109940Y-11807692D02*
X13100416Y-11817216D01*
X13100416Y-11817216D02*
X13081368Y-11826740D01*
X13081368Y-11826740D02*
X13062321Y-11826740D01*
X13062321Y-11826740D02*
X13043273Y-11817216D01*
X13043273Y-11817216D02*
X13033749Y-11807692D01*
X13033749Y-11807692D02*
X13024225Y-11788644D01*
X13024225Y-11788644D02*
X13014702Y-11750549D01*
X13014702Y-11750549D02*
X13014702Y-11702930D01*
X13014702Y-11702930D02*
X13024225Y-11664835D01*
X13024225Y-11664835D02*
X13033749Y-11645787D01*
X13033749Y-11645787D02*
X13043273Y-11636264D01*
X13043273Y-11636264D02*
X13062321Y-11626740D01*
X13224225Y-11817216D02*
X13224225Y-11826740D01*
X13224225Y-11826740D02*
X13214702Y-11845787D01*
X13214702Y-11845787D02*
X13205178Y-11855311D01*
X13338511Y-11712454D02*
X13319463Y-11702930D01*
X13319463Y-11702930D02*
X13309940Y-11693406D01*
X13309940Y-11693406D02*
X13300416Y-11674359D01*
X13300416Y-11674359D02*
X13300416Y-11664835D01*
X13300416Y-11664835D02*
X13309940Y-11645787D01*
X13309940Y-11645787D02*
X13319463Y-11636264D01*
X13319463Y-11636264D02*
X13338511Y-11626740D01*
X13338511Y-11626740D02*
X13376606Y-11626740D01*
X13376606Y-11626740D02*
X13395654Y-11636264D01*
X13395654Y-11636264D02*
X13405178Y-11645787D01*
X13405178Y-11645787D02*
X13414702Y-11664835D01*
X13414702Y-11664835D02*
X13414702Y-11674359D01*
X13414702Y-11674359D02*
X13405178Y-11693406D01*
X13405178Y-11693406D02*
X13395654Y-11702930D01*
X13395654Y-11702930D02*
X13376606Y-11712454D01*
X13376606Y-11712454D02*
X13338511Y-11712454D01*
X13338511Y-11712454D02*
X13319463Y-11721978D01*
X13319463Y-11721978D02*
X13309940Y-11731502D01*
X13309940Y-11731502D02*
X13300416Y-11750549D01*
X13300416Y-11750549D02*
X13300416Y-11788644D01*
X13300416Y-11788644D02*
X13309940Y-11807692D01*
X13309940Y-11807692D02*
X13319463Y-11817216D01*
X13319463Y-11817216D02*
X13338511Y-11826740D01*
X13338511Y-11826740D02*
X13376606Y-11826740D01*
X13376606Y-11826740D02*
X13395654Y-11817216D01*
X13395654Y-11817216D02*
X13405178Y-11807692D01*
X13405178Y-11807692D02*
X13414702Y-11788644D01*
X13414702Y-11788644D02*
X13414702Y-11750549D01*
X13414702Y-11750549D02*
X13405178Y-11731502D01*
X13405178Y-11731502D02*
X13395654Y-11721978D01*
X13395654Y-11721978D02*
X13376606Y-11712454D01*
X13538511Y-11626740D02*
X13557559Y-11626740D01*
X13557559Y-11626740D02*
X13576606Y-11636264D01*
X13576606Y-11636264D02*
X13586130Y-11645787D01*
X13586130Y-11645787D02*
X13595654Y-11664835D01*
X13595654Y-11664835D02*
X13605178Y-11702930D01*
X13605178Y-11702930D02*
X13605178Y-11750549D01*
X13605178Y-11750549D02*
X13595654Y-11788644D01*
X13595654Y-11788644D02*
X13586130Y-11807692D01*
X13586130Y-11807692D02*
X13576606Y-11817216D01*
X13576606Y-11817216D02*
X13557559Y-11826740D01*
X13557559Y-11826740D02*
X13538511Y-11826740D01*
X13538511Y-11826740D02*
X13519463Y-11817216D01*
X13519463Y-11817216D02*
X13509940Y-11807692D01*
X13509940Y-11807692D02*
X13500416Y-11788644D01*
X13500416Y-11788644D02*
X13490892Y-11750549D01*
X13490892Y-11750549D02*
X13490892Y-11702930D01*
X13490892Y-11702930D02*
X13500416Y-11664835D01*
X13500416Y-11664835D02*
X13509940Y-11645787D01*
X13509940Y-11645787D02*
X13519463Y-11636264D01*
X13519463Y-11636264D02*
X13538511Y-11626740D01*
X13728987Y-11626740D02*
X13748035Y-11626740D01*
X13748035Y-11626740D02*
X13767083Y-11636264D01*
X13767083Y-11636264D02*
X13776606Y-11645787D01*
X13776606Y-11645787D02*
X13786130Y-11664835D01*
X13786130Y-11664835D02*
X13795654Y-11702930D01*
X13795654Y-11702930D02*
X13795654Y-11750549D01*
X13795654Y-11750549D02*
X13786130Y-11788644D01*
X13786130Y-11788644D02*
X13776606Y-11807692D01*
X13776606Y-11807692D02*
X13767083Y-11817216D01*
X13767083Y-11817216D02*
X13748035Y-11826740D01*
X13748035Y-11826740D02*
X13728987Y-11826740D01*
X13728987Y-11826740D02*
X13709940Y-11817216D01*
X13709940Y-11817216D02*
X13700416Y-11807692D01*
X13700416Y-11807692D02*
X13690892Y-11788644D01*
X13690892Y-11788644D02*
X13681368Y-11750549D01*
X13681368Y-11750549D02*
X13681368Y-11702930D01*
X13681368Y-11702930D02*
X13690892Y-11664835D01*
X13690892Y-11664835D02*
X13700416Y-11645787D01*
X13700416Y-11645787D02*
X13709940Y-11636264D01*
X13709940Y-11636264D02*
X13728987Y-11626740D01*
X13881368Y-11826740D02*
X13881368Y-11693406D01*
X13881368Y-11712454D02*
X13890892Y-11702930D01*
X13890892Y-11702930D02*
X13909940Y-11693406D01*
X13909940Y-11693406D02*
X13938511Y-11693406D01*
X13938511Y-11693406D02*
X13957559Y-11702930D01*
X13957559Y-11702930D02*
X13967083Y-11721978D01*
X13967083Y-11721978D02*
X13967083Y-11826740D01*
X13967083Y-11721978D02*
X13976606Y-11702930D01*
X13976606Y-11702930D02*
X13995654Y-11693406D01*
X13995654Y-11693406D02*
X14024225Y-11693406D01*
X14024225Y-11693406D02*
X14043273Y-11702930D01*
X14043273Y-11702930D02*
X14052797Y-11721978D01*
X14052797Y-11721978D02*
X14052797Y-11826740D01*
X14148035Y-11826740D02*
X14148035Y-11693406D01*
X14148035Y-11712454D02*
X14157559Y-11702930D01*
X14157559Y-11702930D02*
X14176606Y-11693406D01*
X14176606Y-11693406D02*
X14205178Y-11693406D01*
X14205178Y-11693406D02*
X14224225Y-11702930D01*
X14224225Y-11702930D02*
X14233749Y-11721978D01*
X14233749Y-11721978D02*
X14233749Y-11826740D01*
X14233749Y-11721978D02*
X14243273Y-11702930D01*
X14243273Y-11702930D02*
X14262321Y-11693406D01*
X14262321Y-11693406D02*
X14290892Y-11693406D01*
X14290892Y-11693406D02*
X14309940Y-11702930D01*
X14309940Y-11702930D02*
X14319464Y-11721978D01*
X14319464Y-11721978D02*
X14319464Y-11826740D01*
X14709940Y-11617216D02*
X14538511Y-11874359D01*
X14967083Y-11626740D02*
X14986130Y-11626740D01*
X14986130Y-11626740D02*
X15005178Y-11636264D01*
X15005178Y-11636264D02*
X15014702Y-11645787D01*
X15014702Y-11645787D02*
X15024226Y-11664835D01*
X15024226Y-11664835D02*
X15033749Y-11702930D01*
X15033749Y-11702930D02*
X15033749Y-11750549D01*
X15033749Y-11750549D02*
X15024226Y-11788644D01*
X15024226Y-11788644D02*
X15014702Y-11807692D01*
X15014702Y-11807692D02*
X15005178Y-11817216D01*
X15005178Y-11817216D02*
X14986130Y-11826740D01*
X14986130Y-11826740D02*
X14967083Y-11826740D01*
X14967083Y-11826740D02*
X14948035Y-11817216D01*
X14948035Y-11817216D02*
X14938511Y-11807692D01*
X14938511Y-11807692D02*
X14928987Y-11788644D01*
X14928987Y-11788644D02*
X14919464Y-11750549D01*
X14919464Y-11750549D02*
X14919464Y-11702930D01*
X14919464Y-11702930D02*
X14928987Y-11664835D01*
X14928987Y-11664835D02*
X14938511Y-11645787D01*
X14938511Y-11645787D02*
X14948035Y-11636264D01*
X14948035Y-11636264D02*
X14967083Y-11626740D01*
X15128987Y-11817216D02*
X15128987Y-11826740D01*
X15128987Y-11826740D02*
X15119464Y-11845787D01*
X15119464Y-11845787D02*
X15109940Y-11855311D01*
X15252797Y-11626740D02*
X15271845Y-11626740D01*
X15271845Y-11626740D02*
X15290892Y-11636264D01*
X15290892Y-11636264D02*
X15300416Y-11645787D01*
X15300416Y-11645787D02*
X15309940Y-11664835D01*
X15309940Y-11664835D02*
X15319464Y-11702930D01*
X15319464Y-11702930D02*
X15319464Y-11750549D01*
X15319464Y-11750549D02*
X15309940Y-11788644D01*
X15309940Y-11788644D02*
X15300416Y-11807692D01*
X15300416Y-11807692D02*
X15290892Y-11817216D01*
X15290892Y-11817216D02*
X15271845Y-11826740D01*
X15271845Y-11826740D02*
X15252797Y-11826740D01*
X15252797Y-11826740D02*
X15233749Y-11817216D01*
X15233749Y-11817216D02*
X15224226Y-11807692D01*
X15224226Y-11807692D02*
X15214702Y-11788644D01*
X15214702Y-11788644D02*
X15205178Y-11750549D01*
X15205178Y-11750549D02*
X15205178Y-11702930D01*
X15205178Y-11702930D02*
X15214702Y-11664835D01*
X15214702Y-11664835D02*
X15224226Y-11645787D01*
X15224226Y-11645787D02*
X15233749Y-11636264D01*
X15233749Y-11636264D02*
X15252797Y-11626740D01*
X15386130Y-11626740D02*
X15509940Y-11626740D01*
X15509940Y-11626740D02*
X15443273Y-11702930D01*
X15443273Y-11702930D02*
X15471845Y-11702930D01*
X15471845Y-11702930D02*
X15490892Y-11712454D01*
X15490892Y-11712454D02*
X15500416Y-11721978D01*
X15500416Y-11721978D02*
X15509940Y-11741025D01*
X15509940Y-11741025D02*
X15509940Y-11788644D01*
X15509940Y-11788644D02*
X15500416Y-11807692D01*
X15500416Y-11807692D02*
X15490892Y-11817216D01*
X15490892Y-11817216D02*
X15471845Y-11826740D01*
X15471845Y-11826740D02*
X15414702Y-11826740D01*
X15414702Y-11826740D02*
X15395654Y-11817216D01*
X15395654Y-11817216D02*
X15386130Y-11807692D01*
X15700416Y-11826740D02*
X15586130Y-11826740D01*
X15643273Y-11826740D02*
X15643273Y-11626740D01*
X15643273Y-11626740D02*
X15624226Y-11655311D01*
X15624226Y-11655311D02*
X15605178Y-11674359D01*
X15605178Y-11674359D02*
X15586130Y-11683883D01*
X15881368Y-11626740D02*
X15786130Y-11626740D01*
X15786130Y-11626740D02*
X15776607Y-11721978D01*
X15776607Y-11721978D02*
X15786130Y-11712454D01*
X15786130Y-11712454D02*
X15805178Y-11702930D01*
X15805178Y-11702930D02*
X15852797Y-11702930D01*
X15852797Y-11702930D02*
X15871845Y-11712454D01*
X15871845Y-11712454D02*
X15881368Y-11721978D01*
X15881368Y-11721978D02*
X15890892Y-11741025D01*
X15890892Y-11741025D02*
X15890892Y-11788644D01*
X15890892Y-11788644D02*
X15881368Y-11807692D01*
X15881368Y-11807692D02*
X15871845Y-11817216D01*
X15871845Y-11817216D02*
X15852797Y-11826740D01*
X15852797Y-11826740D02*
X15805178Y-11826740D01*
X15805178Y-11826740D02*
X15786130Y-11817216D01*
X15786130Y-11817216D02*
X15776607Y-11807692D01*
X15967083Y-11626740D02*
X15967083Y-11664835D01*
X16043273Y-11626740D02*
X16043273Y-11664835D01*
X16338511Y-11902930D02*
X16328988Y-11893406D01*
X16328988Y-11893406D02*
X16309940Y-11864835D01*
X16309940Y-11864835D02*
X16300416Y-11845787D01*
X16300416Y-11845787D02*
X16290892Y-11817216D01*
X16290892Y-11817216D02*
X16281369Y-11769597D01*
X16281369Y-11769597D02*
X16281369Y-11731502D01*
X16281369Y-11731502D02*
X16290892Y-11683883D01*
X16290892Y-11683883D02*
X16300416Y-11655311D01*
X16300416Y-11655311D02*
X16309940Y-11636264D01*
X16309940Y-11636264D02*
X16328988Y-11607692D01*
X16328988Y-11607692D02*
X16338511Y-11598168D01*
X16519464Y-11826740D02*
X16405178Y-11826740D01*
X16462321Y-11826740D02*
X16462321Y-11626740D01*
X16462321Y-11626740D02*
X16443273Y-11655311D01*
X16443273Y-11655311D02*
X16424226Y-11674359D01*
X16424226Y-11674359D02*
X16405178Y-11683883D01*
X16595654Y-11645787D02*
X16605178Y-11636264D01*
X16605178Y-11636264D02*
X16624226Y-11626740D01*
X16624226Y-11626740D02*
X16671845Y-11626740D01*
X16671845Y-11626740D02*
X16690892Y-11636264D01*
X16690892Y-11636264D02*
X16700416Y-11645787D01*
X16700416Y-11645787D02*
X16709940Y-11664835D01*
X16709940Y-11664835D02*
X16709940Y-11683883D01*
X16709940Y-11683883D02*
X16700416Y-11712454D01*
X16700416Y-11712454D02*
X16586130Y-11826740D01*
X16586130Y-11826740D02*
X16709940Y-11826740D01*
X16948035Y-11826740D02*
X16948035Y-11626740D01*
X17033750Y-11826740D02*
X17033750Y-11721978D01*
X17033750Y-11721978D02*
X17024226Y-11702930D01*
X17024226Y-11702930D02*
X17005178Y-11693406D01*
X17005178Y-11693406D02*
X16976607Y-11693406D01*
X16976607Y-11693406D02*
X16957559Y-11702930D01*
X16957559Y-11702930D02*
X16948035Y-11712454D01*
X17157559Y-11826740D02*
X17138512Y-11817216D01*
X17138512Y-11817216D02*
X17128988Y-11807692D01*
X17128988Y-11807692D02*
X17119464Y-11788644D01*
X17119464Y-11788644D02*
X17119464Y-11731502D01*
X17119464Y-11731502D02*
X17128988Y-11712454D01*
X17128988Y-11712454D02*
X17138512Y-11702930D01*
X17138512Y-11702930D02*
X17157559Y-11693406D01*
X17157559Y-11693406D02*
X17186131Y-11693406D01*
X17186131Y-11693406D02*
X17205178Y-11702930D01*
X17205178Y-11702930D02*
X17214702Y-11712454D01*
X17214702Y-11712454D02*
X17224226Y-11731502D01*
X17224226Y-11731502D02*
X17224226Y-11788644D01*
X17224226Y-11788644D02*
X17214702Y-11807692D01*
X17214702Y-11807692D02*
X17205178Y-11817216D01*
X17205178Y-11817216D02*
X17186131Y-11826740D01*
X17186131Y-11826740D02*
X17157559Y-11826740D01*
X17338512Y-11826740D02*
X17319464Y-11817216D01*
X17319464Y-11817216D02*
X17309940Y-11798168D01*
X17309940Y-11798168D02*
X17309940Y-11626740D01*
X17490893Y-11817216D02*
X17471845Y-11826740D01*
X17471845Y-11826740D02*
X17433750Y-11826740D01*
X17433750Y-11826740D02*
X17414702Y-11817216D01*
X17414702Y-11817216D02*
X17405178Y-11798168D01*
X17405178Y-11798168D02*
X17405178Y-11721978D01*
X17405178Y-11721978D02*
X17414702Y-11702930D01*
X17414702Y-11702930D02*
X17433750Y-11693406D01*
X17433750Y-11693406D02*
X17471845Y-11693406D01*
X17471845Y-11693406D02*
X17490893Y-11702930D01*
X17490893Y-11702930D02*
X17500416Y-11721978D01*
X17500416Y-11721978D02*
X17500416Y-11741025D01*
X17500416Y-11741025D02*
X17405178Y-11760073D01*
X17576607Y-11817216D02*
X17595654Y-11826740D01*
X17595654Y-11826740D02*
X17633750Y-11826740D01*
X17633750Y-11826740D02*
X17652797Y-11817216D01*
X17652797Y-11817216D02*
X17662321Y-11798168D01*
X17662321Y-11798168D02*
X17662321Y-11788644D01*
X17662321Y-11788644D02*
X17652797Y-11769597D01*
X17652797Y-11769597D02*
X17633750Y-11760073D01*
X17633750Y-11760073D02*
X17605178Y-11760073D01*
X17605178Y-11760073D02*
X17586131Y-11750549D01*
X17586131Y-11750549D02*
X17576607Y-11731502D01*
X17576607Y-11731502D02*
X17576607Y-11721978D01*
X17576607Y-11721978D02*
X17586131Y-11702930D01*
X17586131Y-11702930D02*
X17605178Y-11693406D01*
X17605178Y-11693406D02*
X17633750Y-11693406D01*
X17633750Y-11693406D02*
X17652797Y-11702930D01*
X17728988Y-11902930D02*
X17738512Y-11893406D01*
X17738512Y-11893406D02*
X17757559Y-11864835D01*
X17757559Y-11864835D02*
X17767083Y-11845787D01*
X17767083Y-11845787D02*
X17776607Y-11817216D01*
X17776607Y-11817216D02*
X17786131Y-11769597D01*
X17786131Y-11769597D02*
X17786131Y-11731502D01*
X17786131Y-11731502D02*
X17776607Y-11683883D01*
X17776607Y-11683883D02*
X17767083Y-11655311D01*
X17767083Y-11655311D02*
X17757559Y-11636264D01*
X17757559Y-11636264D02*
X17738512Y-11607692D01*
X17738512Y-11607692D02*
X17728988Y-11598168D01*
D12*
X12713449Y-11949256D02*
X12713449Y-12049256D01*
X12663449Y-11999256D02*
X12763449Y-11999256D01*
D11*
X13128987Y-12090740D02*
X13014702Y-12090740D01*
X13071844Y-12090740D02*
X13071844Y-11890740D01*
X13071844Y-11890740D02*
X13052797Y-11919311D01*
X13052797Y-11919311D02*
X13033749Y-11938359D01*
X13033749Y-11938359D02*
X13014702Y-11947883D01*
X13224225Y-12081216D02*
X13224225Y-12090740D01*
X13224225Y-12090740D02*
X13214702Y-12109787D01*
X13214702Y-12109787D02*
X13205178Y-12119311D01*
X13348035Y-11890740D02*
X13367083Y-11890740D01*
X13367083Y-11890740D02*
X13386130Y-11900264D01*
X13386130Y-11900264D02*
X13395654Y-11909787D01*
X13395654Y-11909787D02*
X13405178Y-11928835D01*
X13405178Y-11928835D02*
X13414702Y-11966930D01*
X13414702Y-11966930D02*
X13414702Y-12014549D01*
X13414702Y-12014549D02*
X13405178Y-12052644D01*
X13405178Y-12052644D02*
X13395654Y-12071692D01*
X13395654Y-12071692D02*
X13386130Y-12081216D01*
X13386130Y-12081216D02*
X13367083Y-12090740D01*
X13367083Y-12090740D02*
X13348035Y-12090740D01*
X13348035Y-12090740D02*
X13328987Y-12081216D01*
X13328987Y-12081216D02*
X13319463Y-12071692D01*
X13319463Y-12071692D02*
X13309940Y-12052644D01*
X13309940Y-12052644D02*
X13300416Y-12014549D01*
X13300416Y-12014549D02*
X13300416Y-11966930D01*
X13300416Y-11966930D02*
X13309940Y-11928835D01*
X13309940Y-11928835D02*
X13319463Y-11909787D01*
X13319463Y-11909787D02*
X13328987Y-11900264D01*
X13328987Y-11900264D02*
X13348035Y-11890740D01*
X13538511Y-11890740D02*
X13557559Y-11890740D01*
X13557559Y-11890740D02*
X13576606Y-11900264D01*
X13576606Y-11900264D02*
X13586130Y-11909787D01*
X13586130Y-11909787D02*
X13595654Y-11928835D01*
X13595654Y-11928835D02*
X13605178Y-11966930D01*
X13605178Y-11966930D02*
X13605178Y-12014549D01*
X13605178Y-12014549D02*
X13595654Y-12052644D01*
X13595654Y-12052644D02*
X13586130Y-12071692D01*
X13586130Y-12071692D02*
X13576606Y-12081216D01*
X13576606Y-12081216D02*
X13557559Y-12090740D01*
X13557559Y-12090740D02*
X13538511Y-12090740D01*
X13538511Y-12090740D02*
X13519463Y-12081216D01*
X13519463Y-12081216D02*
X13509940Y-12071692D01*
X13509940Y-12071692D02*
X13500416Y-12052644D01*
X13500416Y-12052644D02*
X13490892Y-12014549D01*
X13490892Y-12014549D02*
X13490892Y-11966930D01*
X13490892Y-11966930D02*
X13500416Y-11928835D01*
X13500416Y-11928835D02*
X13509940Y-11909787D01*
X13509940Y-11909787D02*
X13519463Y-11900264D01*
X13519463Y-11900264D02*
X13538511Y-11890740D01*
X13728987Y-11890740D02*
X13748035Y-11890740D01*
X13748035Y-11890740D02*
X13767083Y-11900264D01*
X13767083Y-11900264D02*
X13776606Y-11909787D01*
X13776606Y-11909787D02*
X13786130Y-11928835D01*
X13786130Y-11928835D02*
X13795654Y-11966930D01*
X13795654Y-11966930D02*
X13795654Y-12014549D01*
X13795654Y-12014549D02*
X13786130Y-12052644D01*
X13786130Y-12052644D02*
X13776606Y-12071692D01*
X13776606Y-12071692D02*
X13767083Y-12081216D01*
X13767083Y-12081216D02*
X13748035Y-12090740D01*
X13748035Y-12090740D02*
X13728987Y-12090740D01*
X13728987Y-12090740D02*
X13709940Y-12081216D01*
X13709940Y-12081216D02*
X13700416Y-12071692D01*
X13700416Y-12071692D02*
X13690892Y-12052644D01*
X13690892Y-12052644D02*
X13681368Y-12014549D01*
X13681368Y-12014549D02*
X13681368Y-11966930D01*
X13681368Y-11966930D02*
X13690892Y-11928835D01*
X13690892Y-11928835D02*
X13700416Y-11909787D01*
X13700416Y-11909787D02*
X13709940Y-11900264D01*
X13709940Y-11900264D02*
X13728987Y-11890740D01*
X13881368Y-12090740D02*
X13881368Y-11957406D01*
X13881368Y-11976454D02*
X13890892Y-11966930D01*
X13890892Y-11966930D02*
X13909940Y-11957406D01*
X13909940Y-11957406D02*
X13938511Y-11957406D01*
X13938511Y-11957406D02*
X13957559Y-11966930D01*
X13957559Y-11966930D02*
X13967083Y-11985978D01*
X13967083Y-11985978D02*
X13967083Y-12090740D01*
X13967083Y-11985978D02*
X13976606Y-11966930D01*
X13976606Y-11966930D02*
X13995654Y-11957406D01*
X13995654Y-11957406D02*
X14024225Y-11957406D01*
X14024225Y-11957406D02*
X14043273Y-11966930D01*
X14043273Y-11966930D02*
X14052797Y-11985978D01*
X14052797Y-11985978D02*
X14052797Y-12090740D01*
X14148035Y-12090740D02*
X14148035Y-11957406D01*
X14148035Y-11976454D02*
X14157559Y-11966930D01*
X14157559Y-11966930D02*
X14176606Y-11957406D01*
X14176606Y-11957406D02*
X14205178Y-11957406D01*
X14205178Y-11957406D02*
X14224225Y-11966930D01*
X14224225Y-11966930D02*
X14233749Y-11985978D01*
X14233749Y-11985978D02*
X14233749Y-12090740D01*
X14233749Y-11985978D02*
X14243273Y-11966930D01*
X14243273Y-11966930D02*
X14262321Y-11957406D01*
X14262321Y-11957406D02*
X14290892Y-11957406D01*
X14290892Y-11957406D02*
X14309940Y-11966930D01*
X14309940Y-11966930D02*
X14319464Y-11985978D01*
X14319464Y-11985978D02*
X14319464Y-12090740D01*
X14709940Y-11881216D02*
X14538511Y-12138359D01*
X14967083Y-11890740D02*
X14986130Y-11890740D01*
X14986130Y-11890740D02*
X15005178Y-11900264D01*
X15005178Y-11900264D02*
X15014702Y-11909787D01*
X15014702Y-11909787D02*
X15024226Y-11928835D01*
X15024226Y-11928835D02*
X15033749Y-11966930D01*
X15033749Y-11966930D02*
X15033749Y-12014549D01*
X15033749Y-12014549D02*
X15024226Y-12052644D01*
X15024226Y-12052644D02*
X15014702Y-12071692D01*
X15014702Y-12071692D02*
X15005178Y-12081216D01*
X15005178Y-12081216D02*
X14986130Y-12090740D01*
X14986130Y-12090740D02*
X14967083Y-12090740D01*
X14967083Y-12090740D02*
X14948035Y-12081216D01*
X14948035Y-12081216D02*
X14938511Y-12071692D01*
X14938511Y-12071692D02*
X14928987Y-12052644D01*
X14928987Y-12052644D02*
X14919464Y-12014549D01*
X14919464Y-12014549D02*
X14919464Y-11966930D01*
X14919464Y-11966930D02*
X14928987Y-11928835D01*
X14928987Y-11928835D02*
X14938511Y-11909787D01*
X14938511Y-11909787D02*
X14948035Y-11900264D01*
X14948035Y-11900264D02*
X14967083Y-11890740D01*
X15128987Y-12081216D02*
X15128987Y-12090740D01*
X15128987Y-12090740D02*
X15119464Y-12109787D01*
X15119464Y-12109787D02*
X15109940Y-12119311D01*
X15252797Y-11890740D02*
X15271845Y-11890740D01*
X15271845Y-11890740D02*
X15290892Y-11900264D01*
X15290892Y-11900264D02*
X15300416Y-11909787D01*
X15300416Y-11909787D02*
X15309940Y-11928835D01*
X15309940Y-11928835D02*
X15319464Y-11966930D01*
X15319464Y-11966930D02*
X15319464Y-12014549D01*
X15319464Y-12014549D02*
X15309940Y-12052644D01*
X15309940Y-12052644D02*
X15300416Y-12071692D01*
X15300416Y-12071692D02*
X15290892Y-12081216D01*
X15290892Y-12081216D02*
X15271845Y-12090740D01*
X15271845Y-12090740D02*
X15252797Y-12090740D01*
X15252797Y-12090740D02*
X15233749Y-12081216D01*
X15233749Y-12081216D02*
X15224226Y-12071692D01*
X15224226Y-12071692D02*
X15214702Y-12052644D01*
X15214702Y-12052644D02*
X15205178Y-12014549D01*
X15205178Y-12014549D02*
X15205178Y-11966930D01*
X15205178Y-11966930D02*
X15214702Y-11928835D01*
X15214702Y-11928835D02*
X15224226Y-11909787D01*
X15224226Y-11909787D02*
X15233749Y-11900264D01*
X15233749Y-11900264D02*
X15252797Y-11890740D01*
X15386130Y-11890740D02*
X15509940Y-11890740D01*
X15509940Y-11890740D02*
X15443273Y-11966930D01*
X15443273Y-11966930D02*
X15471845Y-11966930D01*
X15471845Y-11966930D02*
X15490892Y-11976454D01*
X15490892Y-11976454D02*
X15500416Y-11985978D01*
X15500416Y-11985978D02*
X15509940Y-12005025D01*
X15509940Y-12005025D02*
X15509940Y-12052644D01*
X15509940Y-12052644D02*
X15500416Y-12071692D01*
X15500416Y-12071692D02*
X15490892Y-12081216D01*
X15490892Y-12081216D02*
X15471845Y-12090740D01*
X15471845Y-12090740D02*
X15414702Y-12090740D01*
X15414702Y-12090740D02*
X15395654Y-12081216D01*
X15395654Y-12081216D02*
X15386130Y-12071692D01*
X15605178Y-12090740D02*
X15643273Y-12090740D01*
X15643273Y-12090740D02*
X15662321Y-12081216D01*
X15662321Y-12081216D02*
X15671845Y-12071692D01*
X15671845Y-12071692D02*
X15690892Y-12043121D01*
X15690892Y-12043121D02*
X15700416Y-12005025D01*
X15700416Y-12005025D02*
X15700416Y-11928835D01*
X15700416Y-11928835D02*
X15690892Y-11909787D01*
X15690892Y-11909787D02*
X15681368Y-11900264D01*
X15681368Y-11900264D02*
X15662321Y-11890740D01*
X15662321Y-11890740D02*
X15624226Y-11890740D01*
X15624226Y-11890740D02*
X15605178Y-11900264D01*
X15605178Y-11900264D02*
X15595654Y-11909787D01*
X15595654Y-11909787D02*
X15586130Y-11928835D01*
X15586130Y-11928835D02*
X15586130Y-11976454D01*
X15586130Y-11976454D02*
X15595654Y-11995502D01*
X15595654Y-11995502D02*
X15605178Y-12005025D01*
X15605178Y-12005025D02*
X15624226Y-12014549D01*
X15624226Y-12014549D02*
X15662321Y-12014549D01*
X15662321Y-12014549D02*
X15681368Y-12005025D01*
X15681368Y-12005025D02*
X15690892Y-11995502D01*
X15690892Y-11995502D02*
X15700416Y-11976454D01*
X15871845Y-11957406D02*
X15871845Y-12090740D01*
X15824226Y-11881216D02*
X15776607Y-12024073D01*
X15776607Y-12024073D02*
X15900416Y-12024073D01*
X15967083Y-11890740D02*
X15967083Y-11928835D01*
X16043273Y-11890740D02*
X16043273Y-11928835D01*
X16338511Y-12166930D02*
X16328988Y-12157406D01*
X16328988Y-12157406D02*
X16309940Y-12128835D01*
X16309940Y-12128835D02*
X16300416Y-12109787D01*
X16300416Y-12109787D02*
X16290892Y-12081216D01*
X16290892Y-12081216D02*
X16281369Y-12033597D01*
X16281369Y-12033597D02*
X16281369Y-11995502D01*
X16281369Y-11995502D02*
X16290892Y-11947883D01*
X16290892Y-11947883D02*
X16300416Y-11919311D01*
X16300416Y-11919311D02*
X16309940Y-11900264D01*
X16309940Y-11900264D02*
X16328988Y-11871692D01*
X16328988Y-11871692D02*
X16338511Y-11862168D01*
X16405178Y-11909787D02*
X16414702Y-11900264D01*
X16414702Y-11900264D02*
X16433749Y-11890740D01*
X16433749Y-11890740D02*
X16481369Y-11890740D01*
X16481369Y-11890740D02*
X16500416Y-11900264D01*
X16500416Y-11900264D02*
X16509940Y-11909787D01*
X16509940Y-11909787D02*
X16519464Y-11928835D01*
X16519464Y-11928835D02*
X16519464Y-11947883D01*
X16519464Y-11947883D02*
X16509940Y-11976454D01*
X16509940Y-11976454D02*
X16395654Y-12090740D01*
X16395654Y-12090740D02*
X16519464Y-12090740D01*
X16586130Y-11890740D02*
X16709940Y-11890740D01*
X16709940Y-11890740D02*
X16643273Y-11966930D01*
X16643273Y-11966930D02*
X16671845Y-11966930D01*
X16671845Y-11966930D02*
X16690892Y-11976454D01*
X16690892Y-11976454D02*
X16700416Y-11985978D01*
X16700416Y-11985978D02*
X16709940Y-12005025D01*
X16709940Y-12005025D02*
X16709940Y-12052644D01*
X16709940Y-12052644D02*
X16700416Y-12071692D01*
X16700416Y-12071692D02*
X16690892Y-12081216D01*
X16690892Y-12081216D02*
X16671845Y-12090740D01*
X16671845Y-12090740D02*
X16614702Y-12090740D01*
X16614702Y-12090740D02*
X16595654Y-12081216D01*
X16595654Y-12081216D02*
X16586130Y-12071692D01*
X16948035Y-12090740D02*
X16948035Y-11890740D01*
X17033750Y-12090740D02*
X17033750Y-11985978D01*
X17033750Y-11985978D02*
X17024226Y-11966930D01*
X17024226Y-11966930D02*
X17005178Y-11957406D01*
X17005178Y-11957406D02*
X16976607Y-11957406D01*
X16976607Y-11957406D02*
X16957559Y-11966930D01*
X16957559Y-11966930D02*
X16948035Y-11976454D01*
X17157559Y-12090740D02*
X17138512Y-12081216D01*
X17138512Y-12081216D02*
X17128988Y-12071692D01*
X17128988Y-12071692D02*
X17119464Y-12052644D01*
X17119464Y-12052644D02*
X17119464Y-11995502D01*
X17119464Y-11995502D02*
X17128988Y-11976454D01*
X17128988Y-11976454D02*
X17138512Y-11966930D01*
X17138512Y-11966930D02*
X17157559Y-11957406D01*
X17157559Y-11957406D02*
X17186131Y-11957406D01*
X17186131Y-11957406D02*
X17205178Y-11966930D01*
X17205178Y-11966930D02*
X17214702Y-11976454D01*
X17214702Y-11976454D02*
X17224226Y-11995502D01*
X17224226Y-11995502D02*
X17224226Y-12052644D01*
X17224226Y-12052644D02*
X17214702Y-12071692D01*
X17214702Y-12071692D02*
X17205178Y-12081216D01*
X17205178Y-12081216D02*
X17186131Y-12090740D01*
X17186131Y-12090740D02*
X17157559Y-12090740D01*
X17338512Y-12090740D02*
X17319464Y-12081216D01*
X17319464Y-12081216D02*
X17309940Y-12062168D01*
X17309940Y-12062168D02*
X17309940Y-11890740D01*
X17490893Y-12081216D02*
X17471845Y-12090740D01*
X17471845Y-12090740D02*
X17433750Y-12090740D01*
X17433750Y-12090740D02*
X17414702Y-12081216D01*
X17414702Y-12081216D02*
X17405178Y-12062168D01*
X17405178Y-12062168D02*
X17405178Y-11985978D01*
X17405178Y-11985978D02*
X17414702Y-11966930D01*
X17414702Y-11966930D02*
X17433750Y-11957406D01*
X17433750Y-11957406D02*
X17471845Y-11957406D01*
X17471845Y-11957406D02*
X17490893Y-11966930D01*
X17490893Y-11966930D02*
X17500416Y-11985978D01*
X17500416Y-11985978D02*
X17500416Y-12005025D01*
X17500416Y-12005025D02*
X17405178Y-12024073D01*
X17576607Y-12081216D02*
X17595654Y-12090740D01*
X17595654Y-12090740D02*
X17633750Y-12090740D01*
X17633750Y-12090740D02*
X17652797Y-12081216D01*
X17652797Y-12081216D02*
X17662321Y-12062168D01*
X17662321Y-12062168D02*
X17662321Y-12052644D01*
X17662321Y-12052644D02*
X17652797Y-12033597D01*
X17652797Y-12033597D02*
X17633750Y-12024073D01*
X17633750Y-12024073D02*
X17605178Y-12024073D01*
X17605178Y-12024073D02*
X17586131Y-12014549D01*
X17586131Y-12014549D02*
X17576607Y-11995502D01*
X17576607Y-11995502D02*
X17576607Y-11985978D01*
X17576607Y-11985978D02*
X17586131Y-11966930D01*
X17586131Y-11966930D02*
X17605178Y-11957406D01*
X17605178Y-11957406D02*
X17633750Y-11957406D01*
X17633750Y-11957406D02*
X17652797Y-11966930D01*
X17728988Y-12166930D02*
X17738512Y-12157406D01*
X17738512Y-12157406D02*
X17757559Y-12128835D01*
X17757559Y-12128835D02*
X17767083Y-12109787D01*
X17767083Y-12109787D02*
X17776607Y-12081216D01*
X17776607Y-12081216D02*
X17786131Y-12033597D01*
X17786131Y-12033597D02*
X17786131Y-11995502D01*
X17786131Y-11995502D02*
X17776607Y-11947883D01*
X17776607Y-11947883D02*
X17767083Y-11919311D01*
X17767083Y-11919311D02*
X17757559Y-11900264D01*
X17757559Y-11900264D02*
X17738512Y-11871692D01*
X17738512Y-11871692D02*
X17728988Y-11862168D01*
D13*
X12741482Y-12316289D02*
X12741482Y-12210222D01*
X12635415Y-12210222D01*
X12635415Y-12316289D01*
X12741482Y-12316289D01*
D11*
X13128987Y-12354740D02*
X13014702Y-12354740D01*
X13071844Y-12354740D02*
X13071844Y-12154740D01*
X13071844Y-12154740D02*
X13052797Y-12183311D01*
X13052797Y-12183311D02*
X13033749Y-12202359D01*
X13033749Y-12202359D02*
X13014702Y-12211883D01*
X13224225Y-12345216D02*
X13224225Y-12354740D01*
X13224225Y-12354740D02*
X13214702Y-12373787D01*
X13214702Y-12373787D02*
X13205178Y-12383311D01*
X13405178Y-12154740D02*
X13309940Y-12154740D01*
X13309940Y-12154740D02*
X13300416Y-12249978D01*
X13300416Y-12249978D02*
X13309940Y-12240454D01*
X13309940Y-12240454D02*
X13328987Y-12230930D01*
X13328987Y-12230930D02*
X13376606Y-12230930D01*
X13376606Y-12230930D02*
X13395654Y-12240454D01*
X13395654Y-12240454D02*
X13405178Y-12249978D01*
X13405178Y-12249978D02*
X13414702Y-12269025D01*
X13414702Y-12269025D02*
X13414702Y-12316644D01*
X13414702Y-12316644D02*
X13405178Y-12335692D01*
X13405178Y-12335692D02*
X13395654Y-12345216D01*
X13395654Y-12345216D02*
X13376606Y-12354740D01*
X13376606Y-12354740D02*
X13328987Y-12354740D01*
X13328987Y-12354740D02*
X13309940Y-12345216D01*
X13309940Y-12345216D02*
X13300416Y-12335692D01*
X13538511Y-12154740D02*
X13557559Y-12154740D01*
X13557559Y-12154740D02*
X13576606Y-12164264D01*
X13576606Y-12164264D02*
X13586130Y-12173787D01*
X13586130Y-12173787D02*
X13595654Y-12192835D01*
X13595654Y-12192835D02*
X13605178Y-12230930D01*
X13605178Y-12230930D02*
X13605178Y-12278549D01*
X13605178Y-12278549D02*
X13595654Y-12316644D01*
X13595654Y-12316644D02*
X13586130Y-12335692D01*
X13586130Y-12335692D02*
X13576606Y-12345216D01*
X13576606Y-12345216D02*
X13557559Y-12354740D01*
X13557559Y-12354740D02*
X13538511Y-12354740D01*
X13538511Y-12354740D02*
X13519463Y-12345216D01*
X13519463Y-12345216D02*
X13509940Y-12335692D01*
X13509940Y-12335692D02*
X13500416Y-12316644D01*
X13500416Y-12316644D02*
X13490892Y-12278549D01*
X13490892Y-12278549D02*
X13490892Y-12230930D01*
X13490892Y-12230930D02*
X13500416Y-12192835D01*
X13500416Y-12192835D02*
X13509940Y-12173787D01*
X13509940Y-12173787D02*
X13519463Y-12164264D01*
X13519463Y-12164264D02*
X13538511Y-12154740D01*
X13728987Y-12154740D02*
X13748035Y-12154740D01*
X13748035Y-12154740D02*
X13767083Y-12164264D01*
X13767083Y-12164264D02*
X13776606Y-12173787D01*
X13776606Y-12173787D02*
X13786130Y-12192835D01*
X13786130Y-12192835D02*
X13795654Y-12230930D01*
X13795654Y-12230930D02*
X13795654Y-12278549D01*
X13795654Y-12278549D02*
X13786130Y-12316644D01*
X13786130Y-12316644D02*
X13776606Y-12335692D01*
X13776606Y-12335692D02*
X13767083Y-12345216D01*
X13767083Y-12345216D02*
X13748035Y-12354740D01*
X13748035Y-12354740D02*
X13728987Y-12354740D01*
X13728987Y-12354740D02*
X13709940Y-12345216D01*
X13709940Y-12345216D02*
X13700416Y-12335692D01*
X13700416Y-12335692D02*
X13690892Y-12316644D01*
X13690892Y-12316644D02*
X13681368Y-12278549D01*
X13681368Y-12278549D02*
X13681368Y-12230930D01*
X13681368Y-12230930D02*
X13690892Y-12192835D01*
X13690892Y-12192835D02*
X13700416Y-12173787D01*
X13700416Y-12173787D02*
X13709940Y-12164264D01*
X13709940Y-12164264D02*
X13728987Y-12154740D01*
X13881368Y-12354740D02*
X13881368Y-12221406D01*
X13881368Y-12240454D02*
X13890892Y-12230930D01*
X13890892Y-12230930D02*
X13909940Y-12221406D01*
X13909940Y-12221406D02*
X13938511Y-12221406D01*
X13938511Y-12221406D02*
X13957559Y-12230930D01*
X13957559Y-12230930D02*
X13967083Y-12249978D01*
X13967083Y-12249978D02*
X13967083Y-12354740D01*
X13967083Y-12249978D02*
X13976606Y-12230930D01*
X13976606Y-12230930D02*
X13995654Y-12221406D01*
X13995654Y-12221406D02*
X14024225Y-12221406D01*
X14024225Y-12221406D02*
X14043273Y-12230930D01*
X14043273Y-12230930D02*
X14052797Y-12249978D01*
X14052797Y-12249978D02*
X14052797Y-12354740D01*
X14148035Y-12354740D02*
X14148035Y-12221406D01*
X14148035Y-12240454D02*
X14157559Y-12230930D01*
X14157559Y-12230930D02*
X14176606Y-12221406D01*
X14176606Y-12221406D02*
X14205178Y-12221406D01*
X14205178Y-12221406D02*
X14224225Y-12230930D01*
X14224225Y-12230930D02*
X14233749Y-12249978D01*
X14233749Y-12249978D02*
X14233749Y-12354740D01*
X14233749Y-12249978D02*
X14243273Y-12230930D01*
X14243273Y-12230930D02*
X14262321Y-12221406D01*
X14262321Y-12221406D02*
X14290892Y-12221406D01*
X14290892Y-12221406D02*
X14309940Y-12230930D01*
X14309940Y-12230930D02*
X14319464Y-12249978D01*
X14319464Y-12249978D02*
X14319464Y-12354740D01*
X14709940Y-12145216D02*
X14538511Y-12402359D01*
X14967083Y-12154740D02*
X14986130Y-12154740D01*
X14986130Y-12154740D02*
X15005178Y-12164264D01*
X15005178Y-12164264D02*
X15014702Y-12173787D01*
X15014702Y-12173787D02*
X15024226Y-12192835D01*
X15024226Y-12192835D02*
X15033749Y-12230930D01*
X15033749Y-12230930D02*
X15033749Y-12278549D01*
X15033749Y-12278549D02*
X15024226Y-12316644D01*
X15024226Y-12316644D02*
X15014702Y-12335692D01*
X15014702Y-12335692D02*
X15005178Y-12345216D01*
X15005178Y-12345216D02*
X14986130Y-12354740D01*
X14986130Y-12354740D02*
X14967083Y-12354740D01*
X14967083Y-12354740D02*
X14948035Y-12345216D01*
X14948035Y-12345216D02*
X14938511Y-12335692D01*
X14938511Y-12335692D02*
X14928987Y-12316644D01*
X14928987Y-12316644D02*
X14919464Y-12278549D01*
X14919464Y-12278549D02*
X14919464Y-12230930D01*
X14919464Y-12230930D02*
X14928987Y-12192835D01*
X14928987Y-12192835D02*
X14938511Y-12173787D01*
X14938511Y-12173787D02*
X14948035Y-12164264D01*
X14948035Y-12164264D02*
X14967083Y-12154740D01*
X15128987Y-12345216D02*
X15128987Y-12354740D01*
X15128987Y-12354740D02*
X15119464Y-12373787D01*
X15119464Y-12373787D02*
X15109940Y-12383311D01*
X15252797Y-12154740D02*
X15271845Y-12154740D01*
X15271845Y-12154740D02*
X15290892Y-12164264D01*
X15290892Y-12164264D02*
X15300416Y-12173787D01*
X15300416Y-12173787D02*
X15309940Y-12192835D01*
X15309940Y-12192835D02*
X15319464Y-12230930D01*
X15319464Y-12230930D02*
X15319464Y-12278549D01*
X15319464Y-12278549D02*
X15309940Y-12316644D01*
X15309940Y-12316644D02*
X15300416Y-12335692D01*
X15300416Y-12335692D02*
X15290892Y-12345216D01*
X15290892Y-12345216D02*
X15271845Y-12354740D01*
X15271845Y-12354740D02*
X15252797Y-12354740D01*
X15252797Y-12354740D02*
X15233749Y-12345216D01*
X15233749Y-12345216D02*
X15224226Y-12335692D01*
X15224226Y-12335692D02*
X15214702Y-12316644D01*
X15214702Y-12316644D02*
X15205178Y-12278549D01*
X15205178Y-12278549D02*
X15205178Y-12230930D01*
X15205178Y-12230930D02*
X15214702Y-12192835D01*
X15214702Y-12192835D02*
X15224226Y-12173787D01*
X15224226Y-12173787D02*
X15233749Y-12164264D01*
X15233749Y-12164264D02*
X15252797Y-12154740D01*
X15500416Y-12154740D02*
X15405178Y-12154740D01*
X15405178Y-12154740D02*
X15395654Y-12249978D01*
X15395654Y-12249978D02*
X15405178Y-12240454D01*
X15405178Y-12240454D02*
X15424226Y-12230930D01*
X15424226Y-12230930D02*
X15471845Y-12230930D01*
X15471845Y-12230930D02*
X15490892Y-12240454D01*
X15490892Y-12240454D02*
X15500416Y-12249978D01*
X15500416Y-12249978D02*
X15509940Y-12269025D01*
X15509940Y-12269025D02*
X15509940Y-12316644D01*
X15509940Y-12316644D02*
X15500416Y-12335692D01*
X15500416Y-12335692D02*
X15490892Y-12345216D01*
X15490892Y-12345216D02*
X15471845Y-12354740D01*
X15471845Y-12354740D02*
X15424226Y-12354740D01*
X15424226Y-12354740D02*
X15405178Y-12345216D01*
X15405178Y-12345216D02*
X15395654Y-12335692D01*
X15605178Y-12354740D02*
X15643273Y-12354740D01*
X15643273Y-12354740D02*
X15662321Y-12345216D01*
X15662321Y-12345216D02*
X15671845Y-12335692D01*
X15671845Y-12335692D02*
X15690892Y-12307121D01*
X15690892Y-12307121D02*
X15700416Y-12269025D01*
X15700416Y-12269025D02*
X15700416Y-12192835D01*
X15700416Y-12192835D02*
X15690892Y-12173787D01*
X15690892Y-12173787D02*
X15681368Y-12164264D01*
X15681368Y-12164264D02*
X15662321Y-12154740D01*
X15662321Y-12154740D02*
X15624226Y-12154740D01*
X15624226Y-12154740D02*
X15605178Y-12164264D01*
X15605178Y-12164264D02*
X15595654Y-12173787D01*
X15595654Y-12173787D02*
X15586130Y-12192835D01*
X15586130Y-12192835D02*
X15586130Y-12240454D01*
X15586130Y-12240454D02*
X15595654Y-12259502D01*
X15595654Y-12259502D02*
X15605178Y-12269025D01*
X15605178Y-12269025D02*
X15624226Y-12278549D01*
X15624226Y-12278549D02*
X15662321Y-12278549D01*
X15662321Y-12278549D02*
X15681368Y-12269025D01*
X15681368Y-12269025D02*
X15690892Y-12259502D01*
X15690892Y-12259502D02*
X15700416Y-12240454D01*
X15890892Y-12354740D02*
X15776607Y-12354740D01*
X15833749Y-12354740D02*
X15833749Y-12154740D01*
X15833749Y-12154740D02*
X15814702Y-12183311D01*
X15814702Y-12183311D02*
X15795654Y-12202359D01*
X15795654Y-12202359D02*
X15776607Y-12211883D01*
X15967083Y-12154740D02*
X15967083Y-12192835D01*
X16043273Y-12154740D02*
X16043273Y-12192835D01*
X16338511Y-12430930D02*
X16328988Y-12421406D01*
X16328988Y-12421406D02*
X16309940Y-12392835D01*
X16309940Y-12392835D02*
X16300416Y-12373787D01*
X16300416Y-12373787D02*
X16290892Y-12345216D01*
X16290892Y-12345216D02*
X16281369Y-12297597D01*
X16281369Y-12297597D02*
X16281369Y-12259502D01*
X16281369Y-12259502D02*
X16290892Y-12211883D01*
X16290892Y-12211883D02*
X16300416Y-12183311D01*
X16300416Y-12183311D02*
X16309940Y-12164264D01*
X16309940Y-12164264D02*
X16328988Y-12135692D01*
X16328988Y-12135692D02*
X16338511Y-12126168D01*
X16519464Y-12354740D02*
X16405178Y-12354740D01*
X16462321Y-12354740D02*
X16462321Y-12154740D01*
X16462321Y-12154740D02*
X16443273Y-12183311D01*
X16443273Y-12183311D02*
X16424226Y-12202359D01*
X16424226Y-12202359D02*
X16405178Y-12211883D01*
X16595654Y-12173787D02*
X16605178Y-12164264D01*
X16605178Y-12164264D02*
X16624226Y-12154740D01*
X16624226Y-12154740D02*
X16671845Y-12154740D01*
X16671845Y-12154740D02*
X16690892Y-12164264D01*
X16690892Y-12164264D02*
X16700416Y-12173787D01*
X16700416Y-12173787D02*
X16709940Y-12192835D01*
X16709940Y-12192835D02*
X16709940Y-12211883D01*
X16709940Y-12211883D02*
X16700416Y-12240454D01*
X16700416Y-12240454D02*
X16586130Y-12354740D01*
X16586130Y-12354740D02*
X16709940Y-12354740D01*
X16948035Y-12354740D02*
X16948035Y-12154740D01*
X17033750Y-12354740D02*
X17033750Y-12249978D01*
X17033750Y-12249978D02*
X17024226Y-12230930D01*
X17024226Y-12230930D02*
X17005178Y-12221406D01*
X17005178Y-12221406D02*
X16976607Y-12221406D01*
X16976607Y-12221406D02*
X16957559Y-12230930D01*
X16957559Y-12230930D02*
X16948035Y-12240454D01*
X17157559Y-12354740D02*
X17138512Y-12345216D01*
X17138512Y-12345216D02*
X17128988Y-12335692D01*
X17128988Y-12335692D02*
X17119464Y-12316644D01*
X17119464Y-12316644D02*
X17119464Y-12259502D01*
X17119464Y-12259502D02*
X17128988Y-12240454D01*
X17128988Y-12240454D02*
X17138512Y-12230930D01*
X17138512Y-12230930D02*
X17157559Y-12221406D01*
X17157559Y-12221406D02*
X17186131Y-12221406D01*
X17186131Y-12221406D02*
X17205178Y-12230930D01*
X17205178Y-12230930D02*
X17214702Y-12240454D01*
X17214702Y-12240454D02*
X17224226Y-12259502D01*
X17224226Y-12259502D02*
X17224226Y-12316644D01*
X17224226Y-12316644D02*
X17214702Y-12335692D01*
X17214702Y-12335692D02*
X17205178Y-12345216D01*
X17205178Y-12345216D02*
X17186131Y-12354740D01*
X17186131Y-12354740D02*
X17157559Y-12354740D01*
X17338512Y-12354740D02*
X17319464Y-12345216D01*
X17319464Y-12345216D02*
X17309940Y-12326168D01*
X17309940Y-12326168D02*
X17309940Y-12154740D01*
X17490893Y-12345216D02*
X17471845Y-12354740D01*
X17471845Y-12354740D02*
X17433750Y-12354740D01*
X17433750Y-12354740D02*
X17414702Y-12345216D01*
X17414702Y-12345216D02*
X17405178Y-12326168D01*
X17405178Y-12326168D02*
X17405178Y-12249978D01*
X17405178Y-12249978D02*
X17414702Y-12230930D01*
X17414702Y-12230930D02*
X17433750Y-12221406D01*
X17433750Y-12221406D02*
X17471845Y-12221406D01*
X17471845Y-12221406D02*
X17490893Y-12230930D01*
X17490893Y-12230930D02*
X17500416Y-12249978D01*
X17500416Y-12249978D02*
X17500416Y-12269025D01*
X17500416Y-12269025D02*
X17405178Y-12288073D01*
X17576607Y-12345216D02*
X17595654Y-12354740D01*
X17595654Y-12354740D02*
X17633750Y-12354740D01*
X17633750Y-12354740D02*
X17652797Y-12345216D01*
X17652797Y-12345216D02*
X17662321Y-12326168D01*
X17662321Y-12326168D02*
X17662321Y-12316644D01*
X17662321Y-12316644D02*
X17652797Y-12297597D01*
X17652797Y-12297597D02*
X17633750Y-12288073D01*
X17633750Y-12288073D02*
X17605178Y-12288073D01*
X17605178Y-12288073D02*
X17586131Y-12278549D01*
X17586131Y-12278549D02*
X17576607Y-12259502D01*
X17576607Y-12259502D02*
X17576607Y-12249978D01*
X17576607Y-12249978D02*
X17586131Y-12230930D01*
X17586131Y-12230930D02*
X17605178Y-12221406D01*
X17605178Y-12221406D02*
X17633750Y-12221406D01*
X17633750Y-12221406D02*
X17652797Y-12230930D01*
X17728988Y-12430930D02*
X17738512Y-12421406D01*
X17738512Y-12421406D02*
X17757559Y-12392835D01*
X17757559Y-12392835D02*
X17767083Y-12373787D01*
X17767083Y-12373787D02*
X17776607Y-12345216D01*
X17776607Y-12345216D02*
X17786131Y-12297597D01*
X17786131Y-12297597D02*
X17786131Y-12259502D01*
X17786131Y-12259502D02*
X17776607Y-12211883D01*
X17776607Y-12211883D02*
X17767083Y-12183311D01*
X17767083Y-12183311D02*
X17757559Y-12164264D01*
X17757559Y-12164264D02*
X17738512Y-12135692D01*
X17738512Y-12135692D02*
X17728988Y-12126168D01*
X12663449Y-12633256D02*
X12763449Y-12533256D01*
X12663449Y-12433256D01*
X12563449Y-12533256D01*
X12663449Y-12633256D01*
X13014702Y-12443787D02*
X13024225Y-12434264D01*
X13024225Y-12434264D02*
X13043273Y-12424740D01*
X13043273Y-12424740D02*
X13090892Y-12424740D01*
X13090892Y-12424740D02*
X13109940Y-12434264D01*
X13109940Y-12434264D02*
X13119463Y-12443787D01*
X13119463Y-12443787D02*
X13128987Y-12462835D01*
X13128987Y-12462835D02*
X13128987Y-12481883D01*
X13128987Y-12481883D02*
X13119463Y-12510454D01*
X13119463Y-12510454D02*
X13005178Y-12624740D01*
X13005178Y-12624740D02*
X13128987Y-12624740D01*
X13224225Y-12615216D02*
X13224225Y-12624740D01*
X13224225Y-12624740D02*
X13214702Y-12643787D01*
X13214702Y-12643787D02*
X13205178Y-12653311D01*
X13395654Y-12424740D02*
X13357559Y-12424740D01*
X13357559Y-12424740D02*
X13338511Y-12434264D01*
X13338511Y-12434264D02*
X13328987Y-12443787D01*
X13328987Y-12443787D02*
X13309940Y-12472359D01*
X13309940Y-12472359D02*
X13300416Y-12510454D01*
X13300416Y-12510454D02*
X13300416Y-12586644D01*
X13300416Y-12586644D02*
X13309940Y-12605692D01*
X13309940Y-12605692D02*
X13319463Y-12615216D01*
X13319463Y-12615216D02*
X13338511Y-12624740D01*
X13338511Y-12624740D02*
X13376606Y-12624740D01*
X13376606Y-12624740D02*
X13395654Y-12615216D01*
X13395654Y-12615216D02*
X13405178Y-12605692D01*
X13405178Y-12605692D02*
X13414702Y-12586644D01*
X13414702Y-12586644D02*
X13414702Y-12539025D01*
X13414702Y-12539025D02*
X13405178Y-12519978D01*
X13405178Y-12519978D02*
X13395654Y-12510454D01*
X13395654Y-12510454D02*
X13376606Y-12500930D01*
X13376606Y-12500930D02*
X13338511Y-12500930D01*
X13338511Y-12500930D02*
X13319463Y-12510454D01*
X13319463Y-12510454D02*
X13309940Y-12519978D01*
X13309940Y-12519978D02*
X13300416Y-12539025D01*
X13538511Y-12424740D02*
X13557559Y-12424740D01*
X13557559Y-12424740D02*
X13576606Y-12434264D01*
X13576606Y-12434264D02*
X13586130Y-12443787D01*
X13586130Y-12443787D02*
X13595654Y-12462835D01*
X13595654Y-12462835D02*
X13605178Y-12500930D01*
X13605178Y-12500930D02*
X13605178Y-12548549D01*
X13605178Y-12548549D02*
X13595654Y-12586644D01*
X13595654Y-12586644D02*
X13586130Y-12605692D01*
X13586130Y-12605692D02*
X13576606Y-12615216D01*
X13576606Y-12615216D02*
X13557559Y-12624740D01*
X13557559Y-12624740D02*
X13538511Y-12624740D01*
X13538511Y-12624740D02*
X13519463Y-12615216D01*
X13519463Y-12615216D02*
X13509940Y-12605692D01*
X13509940Y-12605692D02*
X13500416Y-12586644D01*
X13500416Y-12586644D02*
X13490892Y-12548549D01*
X13490892Y-12548549D02*
X13490892Y-12500930D01*
X13490892Y-12500930D02*
X13500416Y-12462835D01*
X13500416Y-12462835D02*
X13509940Y-12443787D01*
X13509940Y-12443787D02*
X13519463Y-12434264D01*
X13519463Y-12434264D02*
X13538511Y-12424740D01*
X13728987Y-12424740D02*
X13748035Y-12424740D01*
X13748035Y-12424740D02*
X13767083Y-12434264D01*
X13767083Y-12434264D02*
X13776606Y-12443787D01*
X13776606Y-12443787D02*
X13786130Y-12462835D01*
X13786130Y-12462835D02*
X13795654Y-12500930D01*
X13795654Y-12500930D02*
X13795654Y-12548549D01*
X13795654Y-12548549D02*
X13786130Y-12586644D01*
X13786130Y-12586644D02*
X13776606Y-12605692D01*
X13776606Y-12605692D02*
X13767083Y-12615216D01*
X13767083Y-12615216D02*
X13748035Y-12624740D01*
X13748035Y-12624740D02*
X13728987Y-12624740D01*
X13728987Y-12624740D02*
X13709940Y-12615216D01*
X13709940Y-12615216D02*
X13700416Y-12605692D01*
X13700416Y-12605692D02*
X13690892Y-12586644D01*
X13690892Y-12586644D02*
X13681368Y-12548549D01*
X13681368Y-12548549D02*
X13681368Y-12500930D01*
X13681368Y-12500930D02*
X13690892Y-12462835D01*
X13690892Y-12462835D02*
X13700416Y-12443787D01*
X13700416Y-12443787D02*
X13709940Y-12434264D01*
X13709940Y-12434264D02*
X13728987Y-12424740D01*
X13881368Y-12624740D02*
X13881368Y-12491406D01*
X13881368Y-12510454D02*
X13890892Y-12500930D01*
X13890892Y-12500930D02*
X13909940Y-12491406D01*
X13909940Y-12491406D02*
X13938511Y-12491406D01*
X13938511Y-12491406D02*
X13957559Y-12500930D01*
X13957559Y-12500930D02*
X13967083Y-12519978D01*
X13967083Y-12519978D02*
X13967083Y-12624740D01*
X13967083Y-12519978D02*
X13976606Y-12500930D01*
X13976606Y-12500930D02*
X13995654Y-12491406D01*
X13995654Y-12491406D02*
X14024225Y-12491406D01*
X14024225Y-12491406D02*
X14043273Y-12500930D01*
X14043273Y-12500930D02*
X14052797Y-12519978D01*
X14052797Y-12519978D02*
X14052797Y-12624740D01*
X14148035Y-12624740D02*
X14148035Y-12491406D01*
X14148035Y-12510454D02*
X14157559Y-12500930D01*
X14157559Y-12500930D02*
X14176606Y-12491406D01*
X14176606Y-12491406D02*
X14205178Y-12491406D01*
X14205178Y-12491406D02*
X14224225Y-12500930D01*
X14224225Y-12500930D02*
X14233749Y-12519978D01*
X14233749Y-12519978D02*
X14233749Y-12624740D01*
X14233749Y-12519978D02*
X14243273Y-12500930D01*
X14243273Y-12500930D02*
X14262321Y-12491406D01*
X14262321Y-12491406D02*
X14290892Y-12491406D01*
X14290892Y-12491406D02*
X14309940Y-12500930D01*
X14309940Y-12500930D02*
X14319464Y-12519978D01*
X14319464Y-12519978D02*
X14319464Y-12624740D01*
X14709940Y-12415216D02*
X14538511Y-12672359D01*
X14967083Y-12424740D02*
X14986130Y-12424740D01*
X14986130Y-12424740D02*
X15005178Y-12434264D01*
X15005178Y-12434264D02*
X15014702Y-12443787D01*
X15014702Y-12443787D02*
X15024226Y-12462835D01*
X15024226Y-12462835D02*
X15033749Y-12500930D01*
X15033749Y-12500930D02*
X15033749Y-12548549D01*
X15033749Y-12548549D02*
X15024226Y-12586644D01*
X15024226Y-12586644D02*
X15014702Y-12605692D01*
X15014702Y-12605692D02*
X15005178Y-12615216D01*
X15005178Y-12615216D02*
X14986130Y-12624740D01*
X14986130Y-12624740D02*
X14967083Y-12624740D01*
X14967083Y-12624740D02*
X14948035Y-12615216D01*
X14948035Y-12615216D02*
X14938511Y-12605692D01*
X14938511Y-12605692D02*
X14928987Y-12586644D01*
X14928987Y-12586644D02*
X14919464Y-12548549D01*
X14919464Y-12548549D02*
X14919464Y-12500930D01*
X14919464Y-12500930D02*
X14928987Y-12462835D01*
X14928987Y-12462835D02*
X14938511Y-12443787D01*
X14938511Y-12443787D02*
X14948035Y-12434264D01*
X14948035Y-12434264D02*
X14967083Y-12424740D01*
X15128987Y-12615216D02*
X15128987Y-12624740D01*
X15128987Y-12624740D02*
X15119464Y-12643787D01*
X15119464Y-12643787D02*
X15109940Y-12653311D01*
X15319464Y-12624740D02*
X15205178Y-12624740D01*
X15262321Y-12624740D02*
X15262321Y-12424740D01*
X15262321Y-12424740D02*
X15243273Y-12453311D01*
X15243273Y-12453311D02*
X15224226Y-12472359D01*
X15224226Y-12472359D02*
X15205178Y-12481883D01*
X15443273Y-12424740D02*
X15462321Y-12424740D01*
X15462321Y-12424740D02*
X15481368Y-12434264D01*
X15481368Y-12434264D02*
X15490892Y-12443787D01*
X15490892Y-12443787D02*
X15500416Y-12462835D01*
X15500416Y-12462835D02*
X15509940Y-12500930D01*
X15509940Y-12500930D02*
X15509940Y-12548549D01*
X15509940Y-12548549D02*
X15500416Y-12586644D01*
X15500416Y-12586644D02*
X15490892Y-12605692D01*
X15490892Y-12605692D02*
X15481368Y-12615216D01*
X15481368Y-12615216D02*
X15462321Y-12624740D01*
X15462321Y-12624740D02*
X15443273Y-12624740D01*
X15443273Y-12624740D02*
X15424226Y-12615216D01*
X15424226Y-12615216D02*
X15414702Y-12605692D01*
X15414702Y-12605692D02*
X15405178Y-12586644D01*
X15405178Y-12586644D02*
X15395654Y-12548549D01*
X15395654Y-12548549D02*
X15395654Y-12500930D01*
X15395654Y-12500930D02*
X15405178Y-12462835D01*
X15405178Y-12462835D02*
X15414702Y-12443787D01*
X15414702Y-12443787D02*
X15424226Y-12434264D01*
X15424226Y-12434264D02*
X15443273Y-12424740D01*
X15586130Y-12443787D02*
X15595654Y-12434264D01*
X15595654Y-12434264D02*
X15614702Y-12424740D01*
X15614702Y-12424740D02*
X15662321Y-12424740D01*
X15662321Y-12424740D02*
X15681368Y-12434264D01*
X15681368Y-12434264D02*
X15690892Y-12443787D01*
X15690892Y-12443787D02*
X15700416Y-12462835D01*
X15700416Y-12462835D02*
X15700416Y-12481883D01*
X15700416Y-12481883D02*
X15690892Y-12510454D01*
X15690892Y-12510454D02*
X15576607Y-12624740D01*
X15576607Y-12624740D02*
X15700416Y-12624740D01*
X15871845Y-12491406D02*
X15871845Y-12624740D01*
X15824226Y-12415216D02*
X15776607Y-12558073D01*
X15776607Y-12558073D02*
X15900416Y-12558073D01*
X15967083Y-12424740D02*
X15967083Y-12462835D01*
X16043273Y-12424740D02*
X16043273Y-12462835D01*
X16338511Y-12700930D02*
X16328988Y-12691406D01*
X16328988Y-12691406D02*
X16309940Y-12662835D01*
X16309940Y-12662835D02*
X16300416Y-12643787D01*
X16300416Y-12643787D02*
X16290892Y-12615216D01*
X16290892Y-12615216D02*
X16281369Y-12567597D01*
X16281369Y-12567597D02*
X16281369Y-12529502D01*
X16281369Y-12529502D02*
X16290892Y-12481883D01*
X16290892Y-12481883D02*
X16300416Y-12453311D01*
X16300416Y-12453311D02*
X16309940Y-12434264D01*
X16309940Y-12434264D02*
X16328988Y-12405692D01*
X16328988Y-12405692D02*
X16338511Y-12396168D01*
X16405178Y-12443787D02*
X16414702Y-12434264D01*
X16414702Y-12434264D02*
X16433749Y-12424740D01*
X16433749Y-12424740D02*
X16481369Y-12424740D01*
X16481369Y-12424740D02*
X16500416Y-12434264D01*
X16500416Y-12434264D02*
X16509940Y-12443787D01*
X16509940Y-12443787D02*
X16519464Y-12462835D01*
X16519464Y-12462835D02*
X16519464Y-12481883D01*
X16519464Y-12481883D02*
X16509940Y-12510454D01*
X16509940Y-12510454D02*
X16395654Y-12624740D01*
X16395654Y-12624740D02*
X16519464Y-12624740D01*
X16757559Y-12624740D02*
X16757559Y-12424740D01*
X16843273Y-12624740D02*
X16843273Y-12519978D01*
X16843273Y-12519978D02*
X16833750Y-12500930D01*
X16833750Y-12500930D02*
X16814702Y-12491406D01*
X16814702Y-12491406D02*
X16786131Y-12491406D01*
X16786131Y-12491406D02*
X16767083Y-12500930D01*
X16767083Y-12500930D02*
X16757559Y-12510454D01*
X16967083Y-12624740D02*
X16948035Y-12615216D01*
X16948035Y-12615216D02*
X16938512Y-12605692D01*
X16938512Y-12605692D02*
X16928988Y-12586644D01*
X16928988Y-12586644D02*
X16928988Y-12529502D01*
X16928988Y-12529502D02*
X16938512Y-12510454D01*
X16938512Y-12510454D02*
X16948035Y-12500930D01*
X16948035Y-12500930D02*
X16967083Y-12491406D01*
X16967083Y-12491406D02*
X16995654Y-12491406D01*
X16995654Y-12491406D02*
X17014702Y-12500930D01*
X17014702Y-12500930D02*
X17024226Y-12510454D01*
X17024226Y-12510454D02*
X17033750Y-12529502D01*
X17033750Y-12529502D02*
X17033750Y-12586644D01*
X17033750Y-12586644D02*
X17024226Y-12605692D01*
X17024226Y-12605692D02*
X17014702Y-12615216D01*
X17014702Y-12615216D02*
X16995654Y-12624740D01*
X16995654Y-12624740D02*
X16967083Y-12624740D01*
X17148035Y-12624740D02*
X17128988Y-12615216D01*
X17128988Y-12615216D02*
X17119464Y-12596168D01*
X17119464Y-12596168D02*
X17119464Y-12424740D01*
X17300416Y-12615216D02*
X17281369Y-12624740D01*
X17281369Y-12624740D02*
X17243273Y-12624740D01*
X17243273Y-12624740D02*
X17224226Y-12615216D01*
X17224226Y-12615216D02*
X17214702Y-12596168D01*
X17214702Y-12596168D02*
X17214702Y-12519978D01*
X17214702Y-12519978D02*
X17224226Y-12500930D01*
X17224226Y-12500930D02*
X17243273Y-12491406D01*
X17243273Y-12491406D02*
X17281369Y-12491406D01*
X17281369Y-12491406D02*
X17300416Y-12500930D01*
X17300416Y-12500930D02*
X17309940Y-12519978D01*
X17309940Y-12519978D02*
X17309940Y-12539025D01*
X17309940Y-12539025D02*
X17214702Y-12558073D01*
X17386131Y-12615216D02*
X17405178Y-12624740D01*
X17405178Y-12624740D02*
X17443273Y-12624740D01*
X17443273Y-12624740D02*
X17462321Y-12615216D01*
X17462321Y-12615216D02*
X17471845Y-12596168D01*
X17471845Y-12596168D02*
X17471845Y-12586644D01*
X17471845Y-12586644D02*
X17462321Y-12567597D01*
X17462321Y-12567597D02*
X17443273Y-12558073D01*
X17443273Y-12558073D02*
X17414702Y-12558073D01*
X17414702Y-12558073D02*
X17395654Y-12548549D01*
X17395654Y-12548549D02*
X17386131Y-12529502D01*
X17386131Y-12529502D02*
X17386131Y-12519978D01*
X17386131Y-12519978D02*
X17395654Y-12500930D01*
X17395654Y-12500930D02*
X17414702Y-12491406D01*
X17414702Y-12491406D02*
X17443273Y-12491406D01*
X17443273Y-12491406D02*
X17462321Y-12500930D01*
X17538512Y-12700930D02*
X17548035Y-12691406D01*
X17548035Y-12691406D02*
X17567083Y-12662835D01*
X17567083Y-12662835D02*
X17576607Y-12643787D01*
X17576607Y-12643787D02*
X17586131Y-12615216D01*
X17586131Y-12615216D02*
X17595654Y-12567597D01*
X17595654Y-12567597D02*
X17595654Y-12529502D01*
X17595654Y-12529502D02*
X17586131Y-12481883D01*
X17586131Y-12481883D02*
X17576607Y-12453311D01*
X17576607Y-12453311D02*
X17567083Y-12434264D01*
X17567083Y-12434264D02*
X17548035Y-12405692D01*
X17548035Y-12405692D02*
X17538512Y-12396168D01*
M02*
